<?xml version="1.0" encoding="utf-8"?>
<svg viewBox="166.241 43.658 285.166 211.551" xmlns="http://www.w3.org/2000/svg">
  <g id="surface1" transform="matrix(1, 0, 0, 1, 150.18486, 9.452525)">
    <path style="stroke: none; fill-rule: evenodd; fill-opacity: 1; fill: rgb(233, 27, 27);" d="M 58.283 122.804 L 58.179 122.804 C 55.26 122.804 52.869 125.191 52.869 128.11 L 52.869 149.129 C 52.869 151.847 54.939 154.104 57.578 154.403 L 57.578 154.439 L 79.313 154.439 L 80.285 154.475 C 80.285 154.475 85.793 161.912 86.444 163.107 C 87.096 164.306 88.363 164.885 89.882 163.87 C 91.404 162.855 90.245 160.713 90.245 160.713 C 90.245 160.713 82.931 149.975 81.624 148.125 C 80.321 146.274 79.705 146.71 79.313 146.602 L 63.593 146.602 L 63.593 139.813 C 63.636 139.816 63.683 139.816 63.73 139.816 L 77.063 139.816 C 78.316 139.816 79.342 138.791 79.342 137.538 L 79.342 137.491 C 79.342 136.238 78.316 135.212 77.063 135.212 L 63.73 135.212 C 63.683 135.212 63.636 135.212 63.593 135.216 L 63.593 128.11 C 63.593 125.191 61.203 122.804 58.283 122.804 Z M 60.425 180.533 C 71.332 180.533 80.522 173.125 83.312 163.031 C 81.93 160.799 78.841 156.591 78.841 156.591 C 78.841 166.84 70.594 175.152 60.425 175.152 C 50.256 175.152 42.009 166.84 42.009 156.591 C 42.009 150.594 44.835 145.259 49.219 141.868 L 49.457 135.353 C 41.858 139.345 36.667 147.358 36.667 156.591 C 36.667 169.813 47.308 180.533 60.425 180.533 Z M 58.233 121.281 C 61.473 121.281 64.1 118.632 64.1 115.367 C 64.1 112.102 61.473 109.453 58.233 109.453 C 54.99 109.453 52.365 112.102 52.365 115.367 C 52.365 118.632 54.99 121.281 58.233 121.281 Z M 58.233 121.281"/>
    <path style="stroke: none; fill-rule: evenodd; fill-opacity: 1; fill: rgb(23, 183, 183);" d="M 186.877 151.753 L 186.877 178.017 C 186.877 179.694 185.588 181.066 184.015 181.066 L 183.957 181.066 C 182.381 181.066 181.092 179.694 181.092 178.017 L 181.092 125.95 C 180.199 126.17 179.382 126.562 178.993 127.228 L 178.993 147.754 C 178.993 149.154 177.845 150.303 176.445 150.303 L 176.394 150.303 C 174.994 150.303 173.849 149.154 173.849 147.754 L 173.849 124.55 C 173.849 124.435 173.856 124.32 173.871 124.208 C 173.943 123.211 174.17 120.5 174.789 119.32 C 175.516 117.941 179.497 117.073 181.092 117.073 L 194.67 117.073 C 196.265 117.073 200.246 117.941 200.973 119.32 C 201.592 120.5 201.819 123.211 201.891 124.208 C 201.906 124.32 201.913 124.435 201.913 124.55 L 201.913 147.754 C 201.913 149.154 200.768 150.303 199.368 150.303 L 199.317 150.303 C 197.917 150.303 196.769 149.154 196.769 147.754 L 196.769 127.228 C 196.38 126.562 195.567 126.17 194.67 125.95 L 194.67 178.017 C 194.67 179.694 193.381 181.066 191.805 181.066 L 191.747 181.066 C 190.174 181.066 188.885 179.694 188.885 178.017 L 188.885 151.753 Z M 187.881 114.676 C 191.74 114.676 194.872 111.541 194.872 107.674 C 194.872 103.808 191.74 100.673 187.881 100.673 C 184.022 100.673 180.89 103.808 180.89 107.674 C 180.89 111.541 184.022 114.676 187.881 114.676 Z M 187.881 114.676"/>
    <path style="stroke: none; fill-rule: evenodd; fill-opacity: 1; fill: rgb(26, 167, 26);" d="M 165.307 143.452 L 165.307 175.796 C 165.307 177.74 163.504 179.327 161.301 179.327 L 161.221 179.327 C 159.018 179.327 157.215 177.74 157.215 175.796 L 157.215 145.382 L 157.039 145.382 L 157.039 175.796 C 157.039 177.74 155.235 179.327 153.032 179.327 L 152.953 179.327 C 150.75 179.327 148.946 177.74 148.946 175.796 L 148.946 138.452 C 148.342 138.783 147.578 138.981 146.754 138.981 L 146.682 138.981 C 144.709 138.981 143.093 137.847 143.093 136.458 L 143.093 113.459 C 143.093 113.312 143.111 113.168 143.147 113.024 C 143.244 111.645 143.485 109.039 144.036 107.826 C 144.598 106.591 147.103 105.709 148.946 105.374 L 148.946 105.223 L 165.307 105.223 L 165.307 105.374 C 167.15 105.709 169.659 106.591 170.217 107.826 C 170.768 109.035 171.009 111.645 171.106 113.024 C 171.142 113.164 171.16 113.312 171.16 113.459 L 171.16 136.458 C 171.16 137.847 169.548 138.981 167.575 138.981 L 167.503 138.981 C 166.675 138.981 165.912 138.783 165.307 138.452 Z M 157.129 102.664 C 160.987 102.664 164.119 99.528 164.119 95.662 C 164.119 91.796 160.987 88.661 157.129 88.661 C 153.266 88.661 150.138 91.796 150.138 95.662 C 150.138 99.528 153.266 102.664 157.129 102.664 Z M 157.129 102.664"/>
    <path style="stroke: none; fill-rule: evenodd; fill-opacity: 1; fill: rgb(236, 132, 27);" d="M 101.545 161.717 L 101.545 179.223 C 101.545 180.342 100.685 181.257 99.637 181.257 L 99.597 181.257 C 98.546 181.257 97.686 180.342 97.686 179.223 L 97.686 144.518 C 97.092 144.665 96.549 144.925 96.286 145.371 L 96.286 159.053 C 96.286 159.986 95.523 160.749 94.59 160.749 L 94.558 160.749 C 93.622 160.749 92.859 159.986 92.859 159.053 L 92.859 143.585 C 92.859 143.506 92.866 143.431 92.873 143.355 C 92.92 142.689 93.075 140.882 93.485 140.097 C 93.971 139.179 96.624 138.6 97.686 138.6 L 106.739 138.6 C 107.801 138.6 110.458 139.179 110.94 140.097 C 111.351 140.882 111.505 142.689 111.552 143.355 C 111.563 143.431 111.567 143.506 111.567 143.585 L 111.567 159.053 C 111.567 159.986 110.803 160.749 109.871 160.749 L 109.835 160.749 C 108.903 160.749 108.14 159.986 108.14 159.053 L 108.14 145.371 C 107.88 144.925 107.333 144.665 106.739 144.518 L 106.739 179.223 C 106.739 180.342 105.879 181.257 104.828 181.257 L 104.792 181.257 C 103.741 181.257 102.88 180.342 102.88 179.223 L 102.88 161.717 Z M 102.215 137.001 C 104.785 137.001 106.873 134.914 106.873 132.336 C 106.873 129.759 104.785 127.667 102.215 127.667 C 99.641 127.667 97.553 129.759 97.553 132.336 C 97.553 134.914 99.641 137.001 102.215 137.001 Z M 102.215 137.001"/>
    <path style=" stroke:none;fill-rule:evenodd;fill:rgb(56.054688%,19.213867%,46.263123%);fill-opacity:1;" d="M 252.158 113.049 C 256.762 113.049 260.495 109.467 260.495 105.047 C 260.495 100.63 256.762 97.048 252.158 97.048 C 247.554 97.048 243.821 100.63 243.821 105.047 C 243.821 109.467 247.554 113.049 252.158 113.049 Z M 263.008 117.757 L 269.689 136.588 C 269.689 136.588 272.586 142.246 272.658 143.265 C 272.73 144.28 275.992 160.385 276.064 161.548 C 276.136 162.707 277.731 174.028 278.018 175.044 C 278.31 176.059 279.034 180.846 279.034 180.846 L 267.662 181.138 C 267.662 181.138 267.01 179.032 267.37 178.38 C 267.734 177.729 271.211 176.566 271.863 176.566 C 272.514 176.566 272.802 176.35 272.802 176.35 L 269.325 156.397 L 268.386 152.477 C 268.386 152.477 266.647 151.825 265.848 153.06 C 265.052 154.291 260.056 161.764 259.764 162.2 C 259.476 162.635 259.476 180.846 259.476 180.846 L 248.245 180.483 C 248.245 180.483 247.813 176.494 250.275 175.987 C 252.738 175.479 254.404 175.551 254.404 175.551 L 254.113 159.226 C 254.113 159.226 260.974 149.975 262.298 149.212 C 263.627 148.452 264.617 145.875 264.617 145.875 C 264.617 145.875 262.331 138.909 261.715 137.387 C 261.1 135.864 259.289 132.963 259.289 132.963 L 251.355 142.829 C 251.355 142.829 253.274 144.352 253.493 146.13 C 253.709 147.909 253.457 149.795 253.31 150.447 C 253.166 151.098 252.007 151.609 251.427 151.426 C 250.848 151.246 250.956 149.759 250.992 149.248 C 251.028 148.74 251.139 146.674 250.088 146.53 C 249.037 146.382 249.217 146.094 248.673 146.53 C 248.13 146.966 248.241 147.873 247.55 148.089 C 246.863 148.305 245.38 148.632 245.196 147.981 C 245.016 147.326 244.872 146.346 244.872 146.346 C 244.872 146.346 243.349 146.418 242.953 147.218 C 242.554 148.017 234.876 181.937 234.876 181.937 C 234.876 181.937 233.173 183.388 232.338 182.553 C 231.506 181.717 232.194 180.159 232.194 180.159 L 239.113 149.395 C 239.113 149.395 240.38 142.937 243.785 142.322 C 247.19 141.703 247.95 141.703 247.95 141.703 L 257.374 127.808 C 257.374 127.808 254.404 119.903 254.188 118.96 C 253.994 118.124 253.803 111.58 259.937 113.614 C 261.492 114.129 262.507 116.346 263.008 117.757 Z M 263.008 117.757"/>
    <path style="stroke: none; fill-rule: evenodd; fill-opacity: 1; fill: rgb(119, 119, 234);" d="M 227.46 101.256 C 231.621 101.256 234.994 97.941 234.994 93.855 C 234.994 89.769 231.621 86.454 227.46 86.454 C 223.302 86.454 219.926 89.769 219.926 93.855 C 219.926 97.941 223.302 101.256 227.46 101.256 Z M 227.583 150.184 C 227.694 150.576 227.752 150.986 227.752 151.408 L 227.752 176.185 C 227.752 178.708 225.686 180.774 223.162 180.774 L 223.068 180.774 C 220.545 180.774 218.479 178.708 218.479 176.185 L 218.479 151.408 C 218.479 151.084 218.511 150.767 218.576 150.461 C 212.521 150.583 207.143 150.511 207.467 149.867 C 208.191 148.416 208.338 146.094 208.338 140.724 C 208.338 135.356 206.02 136.228 205.441 128.679 C 204.861 121.134 216.161 117.361 215.437 115.331 C 214.71 113.297 217.176 104.737 225.29 104.445 C 233.4 104.157 233.983 110.831 234.127 112.43 C 234.271 114.024 234.271 125.922 234.85 134.341 C 235.43 142.757 234.415 149.14 234.706 149.867 C 234.706 149.867 231.65 150.025 227.583 150.184 Z M 226.337 105.871 L 226.413 105.871 C 228.756 105.871 230.675 107.79 230.675 110.137 L 230.675 131.987 C 230.675 134.334 228.756 136.253 226.413 136.253 L 226.337 136.253 C 223.994 136.253 222.075 134.334 222.075 131.987 L 222.075 110.137 C 222.075 107.79 223.994 105.871 226.337 105.871 Z M 226.337 106.479 L 226.413 106.479 C 228.425 106.479 230.07 108.124 230.07 110.137 L 230.07 131.987 C 230.07 133.999 228.425 135.644 226.413 135.644 L 226.337 135.644 C 224.325 135.644 222.68 133.999 222.68 131.987 L 222.68 110.137 C 222.68 108.124 224.325 106.479 226.337 106.479 Z M 226.337 106.479"/>
    <path style="stroke: none; fill-rule: evenodd; fill-opacity: 1; fill: rgb(221, 101, 21);" d="M 133.867 162.383 L 133.867 178.344 C 133.867 180 132.51 181.354 130.854 181.354 L 130.793 181.354 C 129.137 181.354 127.78 180 127.78 178.344 C 127.78 180 126.426 181.354 124.77 181.354 L 124.709 181.354 C 123.05 181.354 121.696 180 121.696 178.344 L 121.696 162.383 L 113.438 162.383 L 121.657 133.107 C 117.38 130.461 109.918 124.957 109.076 122.563 C 108.888 122.387 108.741 122.246 108.651 122.149 C 107.564 120.99 106.045 119.392 108.143 116.418 C 110.246 113.445 114.59 116.49 115.534 116.854 C 116.473 117.217 116.549 117.145 117.344 114.968 C 118.14 112.79 122.269 113.445 126.254 113.297 C 130.238 113.153 137.481 113.153 139.004 114.316 C 140.527 115.475 139.947 118.74 139.947 122.441 C 139.947 126.141 137.989 128.171 135.454 130.277 C 132.96 132.347 133.838 132.451 133.867 132.451 L 142.269 162.383 Z M 123.543 133.189 C 126.261 133.2 129.187 132.711 130.062 130.821 C 131.106 128.575 132.902 125.702 130.739 123.535 C 128.381 121.173 123.644 118.639 120.418 117.653 C 116.07 116.321 116.703 120.284 113.316 121.623 C 112.326 122.016 111.232 121.703 110.228 122.045 L 110.102 122.088 L 111.189 122.999 C 112.017 122.725 112.834 122.459 113.654 122.135 C 114.742 121.703 115.584 121.116 116.369 120.256 C 116.75 119.842 117.211 119.194 117.668 118.859 C 117.585 119.082 117.571 119.352 117.553 119.568 C 117.51 120.072 117.488 120.587 117.467 121.094 C 117.431 122.03 117.402 122.97 117.38 123.906 C 117.276 124.777 117.182 125.522 117.139 125.875 C 117.063 126.508 116.981 127.145 116.898 127.783 L 117.409 128.715 C 117.423 127.574 118.097 126.357 118.118 125.216 C 118.129 124.644 118.143 123.96 118.158 123.387 C 118.377 121.49 118.583 120.248 118.399 119.59 C 118.356 119.435 118.338 118.718 118.219 118.628 C 118.709 118.614 119.194 118.135 119.63 118.268 C 122.661 119.194 127.452 121.231 129.666 123.448 C 129.972 123.758 130.825 124.867 130.919 125.295 C 131.2 126.584 130.008 129.046 129.472 130.202 C 128.892 131.451 126.138 132.549 123.95 132.577 C 123.219 132.588 122.528 131.944 121.862 131.893 C 121.984 131.994 122.085 132.07 122.157 132.127 C 122.607 132.473 123.104 132.847 123.543 133.189 Z M 118.687 129.273 L 119.922 129.316 C 120.966 128.888 121.822 129.291 122.863 128.859 C 124.277 128.269 125.04 127.491 126.444 126.872 C 126.79 126.483 127.524 125.266 129.465 125.886 L 129.932 125.5 L 129.126 125.324 C 128.385 124.669 127.445 125.576 126.56 125.965 C 125.181 126.573 123.788 127.16 122.395 127.739 C 121.164 128.254 119.925 128.765 118.687 129.273 Z M 127.78 108.51 C 131.783 108.51 135.026 105.295 135.026 101.328 C 135.026 97.361 131.783 94.143 127.78 94.143 C 123.781 94.143 120.537 97.361 120.537 101.328 C 120.537 105.295 123.781 108.51 127.78 108.51 Z M 127.78 108.51"/>
    <path style=" stroke:none;fill-rule:evenodd;fill:rgb(10.594177%,9.812927%,9.423828%);fill-opacity:1;" d="M 19.601 102.262 L 155.703 36.544 C 156.6 35.957 157.676 35.644 158.77 35.655 C 159.861 35.644 160.937 35.957 161.833 36.544 L 297.94 102.262 C 300.495 103.495 301.511 106.466 300.189 108.86 L 300.142 108.949 C 298.822 111.343 295.65 112.29 293.091 111.056 L 158.77 46.199 L 24.445 111.056 C 21.886 112.29 18.715 111.343 17.397 108.949 L 17.347 108.86 C 16.03 106.466 17.041 103.495 19.601 102.262 Z M 19.601 102.262"/>
    <path style="stroke: none; fill-rule: evenodd; fill: rgb(217, 218, 219); fill-opacity: 1;" d="M 13.822 245.634 L 301.658 245.634 L 301.658 183.478 L 13.822 183.478 Z M 13.822 245.634"/>
    <path style=" stroke:none;fill-rule:evenodd;fill:rgb(10.594177%,9.812927%,9.423828%);fill-opacity:1;" d="M 44.723 201.778 L 40.713 201.778 C 40.607 201.046 40.362 200.475 39.975 200.063 C 39.586 199.651 39.072 199.446 38.432 199.446 C 37.575 199.446 36.948 199.892 36.563 200.788 C 36.172 201.68 35.978 202.708 35.978 203.865 C 35.978 204.587 36.059 205.288 36.223 205.962 C 36.39 206.639 36.662 207.201 37.047 207.654 C 37.428 208.107 37.925 208.331 38.538 208.331 C 39.188 208.331 39.695 208.083 40.052 207.586 C 40.407 207.082 40.625 206.428 40.713 205.612 L 44.805 205.612 C 44.733 206.956 44.42 208.148 43.868 209.179 C 43.314 210.203 42.582 210.996 41.673 211.551 C 40.761 212.103 39.743 212.382 38.616 212.382 C 37.84 212.382 37.057 212.226 36.271 211.916 C 35.484 211.599 34.749 211.102 34.075 210.418 C 33.398 209.741 32.853 208.852 32.445 207.76 C 32.032 206.667 31.828 205.383 31.828 203.912 C 31.828 202.762 31.988 201.66 32.315 200.617 C 32.642 199.576 33.102 198.664 33.694 197.885 C 34.289 197.105 35.001 196.496 35.828 196.053 C 36.652 195.614 37.557 195.392 38.538 195.392 C 39.688 195.392 40.662 195.628 41.459 196.097 C 42.255 196.564 42.875 197.142 43.32 197.826 C 43.77 198.514 44.097 199.201 44.307 199.889 C 44.515 200.577 44.655 201.207 44.723 201.778 Z M 57.475 195.787 L 57.475 199.644 L 50.306 199.644 L 50.306 201.826 L 56.811 201.826 L 56.811 205.417 L 50.306 205.417 L 50.306 207.964 L 57.655 207.964 L 57.655 211.967 L 46.336 211.967 L 46.336 195.787 Z M 71.659 195.787 L 71.659 211.967 L 67.731 211.967 L 63.5 203.137 L 63.5 211.967 L 59.534 211.967 L 59.534 195.787 L 63.606 195.787 L 67.69 204.423 L 67.69 195.787 Z M 85.181 195.787 L 85.181 199.988 L 81.436 199.988 L 81.436 211.967 L 77.324 211.967 L 77.324 199.988 L 73.563 199.988 L 73.563 195.787 Z M 87.07 211.967 L 87.07 195.787 L 93.922 195.787 C 95.358 195.787 96.455 196.046 97.207 196.564 C 97.779 196.958 98.238 197.503 98.582 198.201 C 98.929 198.899 99.099 199.634 99.099 200.421 C 99.099 201.312 98.929 202.129 98.589 202.875 C 98.245 203.617 97.751 204.158 97.101 204.495 C 98.238 204.971 98.892 206.306 99.058 208.498 L 99.195 210.221 C 99.233 211.099 99.348 211.681 99.542 211.967 L 95.478 211.967 C 95.335 211.551 95.226 210.741 95.151 209.54 C 95.09 208.757 95.001 208.148 94.889 207.705 C 94.773 207.266 94.558 206.919 94.249 206.66 C 93.939 206.401 93.486 206.269 92.89 206.269 L 91.097 206.269 L 91.097 211.967 Z M 91.097 199.546 L 91.097 202.844 L 93.398 202.844 C 94.551 202.844 95.131 202.255 95.131 201.074 C 95.131 200.056 94.48 199.546 93.176 199.546 Z M 107.698 195.392 C 108.71 195.392 109.628 195.603 110.459 196.029 C 111.283 196.448 111.991 197.047 112.58 197.816 C 113.169 198.589 113.614 199.491 113.928 200.529 C 114.234 201.567 114.391 202.687 114.391 203.889 C 114.391 205.132 114.23 206.265 113.917 207.307 C 113.604 208.342 113.148 209.237 112.546 209.999 C 111.95 210.758 111.225 211.348 110.374 211.759 C 109.526 212.178 108.587 212.382 107.558 212.382 C 106.558 212.382 105.601 212.155 104.689 211.687 C 103.78 211.225 103.01 210.548 102.378 209.662 C 101.837 208.889 101.431 208.005 101.166 207.01 C 100.904 206.017 100.767 204.985 100.767 203.912 C 100.767 202.65 100.928 201.499 101.251 200.458 C 101.571 199.412 102.037 198.51 102.647 197.751 C 103.256 196.996 103.991 196.414 104.849 196.005 C 105.707 195.597 106.656 195.392 107.698 195.392 Z M 107.66 199.446 C 106.701 199.446 106.003 199.882 105.571 200.751 C 105.135 201.625 104.917 202.684 104.917 203.937 C 104.917 205.166 105.135 206.207 105.578 207.055 C 106.013 207.909 106.708 208.331 107.66 208.331 C 108.294 208.331 108.798 208.114 109.189 207.674 C 109.574 207.232 109.846 206.673 110.006 206 C 110.163 205.329 110.241 204.607 110.241 203.841 C 110.241 202.439 110.019 201.356 109.574 200.614 C 109.117 199.835 108.481 199.446 107.66 199.446 Z M 122.346 195.787 L 128.354 195.787 C 130.335 195.787 131.908 196.417 133.065 197.673 C 133.753 198.405 134.271 199.317 134.621 200.407 C 134.964 201.499 135.142 202.637 135.142 203.817 C 135.142 206.521 134.502 208.6 133.225 210.047 C 132.786 210.544 132.306 210.935 131.778 211.218 C 131.251 211.507 130.707 211.701 130.137 211.807 C 129.569 211.916 128.95 211.967 128.273 211.967 L 122.346 211.967 Z M 126.376 199.814 L 126.376 207.964 L 128.003 207.964 C 128.936 207.964 129.651 207.657 130.144 207.048 C 130.707 206.299 130.989 205.213 130.989 203.797 C 130.989 203.116 130.88 202.469 130.655 201.86 C 130.43 201.248 130.103 200.774 129.678 200.441 C 129.164 200.022 128.48 199.814 127.626 199.814 Z M 147.985 195.787 L 147.985 199.644 L 140.82 199.644 L 140.82 201.826 L 147.321 201.826 L 147.321 205.417 L 140.82 205.417 L 140.82 207.964 L 148.169 207.964 L 148.169 211.967 L 136.851 211.967 L 136.851 195.787 Z M 156.309 211.967 L 156.309 195.787 L 163.161 195.787 C 164.597 195.787 165.693 196.046 166.443 196.564 C 167.018 196.958 167.477 197.503 167.821 198.201 C 168.165 198.899 168.338 199.634 168.338 200.421 C 168.338 201.312 168.165 202.129 167.827 202.875 C 167.484 203.617 166.99 204.158 166.34 204.495 C 167.477 204.971 168.131 206.306 168.297 208.498 L 168.434 210.221 C 168.471 211.099 168.586 211.681 168.781 211.967 L 164.713 211.967 C 164.573 211.551 164.464 210.741 164.389 209.54 C 164.328 208.757 164.24 208.148 164.127 207.705 C 164.011 207.266 163.797 206.919 163.484 206.66 C 163.177 206.401 162.725 206.269 162.129 206.269 L 160.335 206.269 L 160.335 211.967 Z M 160.335 199.546 L 160.335 202.844 L 162.636 202.844 C 163.791 202.844 164.369 202.255 164.369 201.074 C 164.369 200.056 163.719 199.546 162.415 199.546 Z M 181.709 195.787 L 181.709 199.644 L 174.543 199.644 L 174.543 201.826 L 181.045 201.826 L 181.045 205.417 L 174.543 205.417 L 174.543 207.964 L 181.893 207.964 L 181.893 211.967 L 170.575 211.967 L 170.575 195.787 Z M 194.165 195.787 L 194.165 199.814 L 187.861 199.814 L 187.861 202.408 L 193.3 202.408 L 193.3 206.146 L 187.861 206.146 L 187.861 211.967 L 183.772 211.967 L 183.772 195.787 Z M 206.777 195.787 L 206.777 199.644 L 199.608 199.644 L 199.608 201.826 L 206.11 201.826 L 206.11 205.417 L 199.608 205.417 L 199.608 207.964 L 206.958 207.964 L 206.958 211.967 L 195.638 211.967 L 195.638 195.787 Z M 208.85 211.967 L 208.85 195.787 L 215.702 195.787 C 217.142 195.787 218.235 196.046 218.987 196.564 C 219.563 196.958 220.022 197.503 220.363 198.201 C 220.71 198.899 220.88 199.634 220.88 200.421 C 220.88 201.312 220.71 202.129 220.369 202.875 C 220.029 203.617 219.535 204.158 218.882 204.495 C 220.022 204.971 220.672 206.306 220.842 208.498 L 220.979 210.221 C 221.017 211.099 221.128 211.681 221.326 211.967 L 217.258 211.967 C 217.119 211.551 217.006 210.741 216.931 209.54 C 216.874 208.757 216.785 208.148 216.669 207.705 C 216.557 207.266 216.342 206.919 216.029 206.66 C 215.719 206.401 215.267 206.269 214.674 206.269 L 212.881 206.269 L 212.881 211.967 Z M 212.881 199.546 L 212.881 202.844 L 215.178 202.844 C 216.335 202.844 216.915 202.255 216.915 201.074 C 216.915 200.056 216.261 199.546 214.957 199.546 Z M 234.255 195.787 L 234.255 199.644 L 227.085 199.644 L 227.085 201.826 L 233.591 201.826 L 233.591 205.417 L 227.085 205.417 L 227.085 207.964 L 234.435 207.964 L 234.435 211.967 L 223.117 211.967 L 223.117 195.787 Z M 232.073 194.456 L 229.472 194.456 L 228.549 192.73 L 227.667 194.456 L 225.084 194.456 L 227.119 191.008 L 230.078 191.008 Z M 248.439 195.787 L 248.439 211.967 L 244.511 211.967 L 240.283 203.137 L 240.283 211.967 L 236.314 211.967 L 236.314 195.787 L 240.385 195.787 L 244.474 204.423 L 244.474 195.787 Z M 263.07 201.778 L 259.06 201.778 C 258.958 201.046 258.712 200.475 258.321 200.063 C 257.933 199.651 257.419 199.446 256.783 199.446 C 255.921 199.446 255.298 199.892 254.91 200.788 C 254.523 201.68 254.328 202.708 254.328 203.865 C 254.328 204.587 254.407 205.288 254.573 205.962 C 254.737 206.639 255.012 207.201 255.394 207.654 C 255.778 208.107 256.275 208.331 256.885 208.331 C 257.539 208.331 258.046 208.083 258.4 207.586 C 258.757 207.082 258.975 206.428 259.06 205.612 L 263.155 205.612 C 263.08 206.956 262.767 208.148 262.219 209.179 C 261.664 210.203 260.932 210.996 260.02 211.551 C 259.107 212.103 258.09 212.382 256.966 212.382 C 256.187 212.382 255.404 212.226 254.618 211.916 C 253.835 211.599 253.1 211.102 252.422 210.418 C 251.744 209.741 251.2 208.852 250.792 207.76 C 250.383 206.667 250.175 205.383 250.175 203.912 C 250.175 202.762 250.339 201.66 250.662 200.617 C 250.989 199.576 251.448 198.664 252.044 197.885 C 252.637 197.105 253.348 196.496 254.175 196.053 C 255.003 195.614 255.905 195.392 256.885 195.392 C 258.039 195.392 259.012 195.628 259.805 196.097 C 260.602 196.564 261.225 197.142 261.671 197.826 C 262.117 198.514 262.447 199.201 262.658 199.889 C 262.866 200.577 263.002 201.207 263.07 201.778 Z M 268.796 211.967 L 264.707 211.967 L 264.707 195.787 L 268.796 195.787 Z M 278.844 195.787 L 283.8 211.967 L 279.61 211.967 L 278.967 209.686 L 274.634 209.686 L 273.991 211.967 L 269.82 211.967 L 274.777 195.787 Z M 278.119 206.214 L 276.832 200.74 L 275.42 206.214 Z M 35.804 218.404 L 41.813 218.404 C 43.793 218.404 45.363 219.034 46.52 220.293 C 47.211 221.025 47.729 221.934 48.076 223.023 C 48.423 224.116 48.597 225.253 48.597 226.434 C 48.597 229.137 47.961 231.217 46.684 232.664 C 46.245 233.161 45.765 233.552 45.237 233.838 C 44.709 234.124 44.161 234.318 43.593 234.423 C 43.027 234.532 42.405 234.584 41.731 234.584 L 35.804 234.584 Z M 39.834 222.431 L 39.834 230.58 L 41.462 230.58 C 42.391 230.58 43.106 230.274 43.6 229.664 C 44.165 228.916 44.447 227.833 44.447 226.414 C 44.447 225.733 44.335 225.086 44.111 224.477 C 43.886 223.868 43.559 223.394 43.134 223.057 C 42.62 222.642 41.935 222.431 41.081 222.431 Z M 57.277 218.404 L 62.234 234.584 L 58.043 234.584 L 57.397 232.303 L 53.066 232.303 L 52.42 234.584 L 48.25 234.584 L 53.206 218.404 Z M 56.552 228.83 L 55.265 223.357 L 53.852 228.83 Z M 77.238 218.404 L 82.195 234.584 L 78.004 234.584 L 77.358 232.303 L 73.028 232.303 L 72.381 234.584 L 68.211 234.584 L 73.167 218.404 Z M 76.513 228.83 L 75.227 223.357 L 73.814 228.83 Z M 93.715 223.33 L 89.844 223.33 C 89.837 222.748 89.681 222.309 89.388 222.023 C 89.095 221.73 88.704 221.587 88.21 221.587 C 87.274 221.587 86.804 221.998 86.804 222.819 C 86.804 223.119 86.93 223.353 87.185 223.523 C 87.44 223.694 87.91 223.878 88.595 224.078 C 89.279 224.286 89.633 224.391 89.66 224.398 C 90.667 224.739 91.481 225.082 92.101 225.43 C 92.724 225.773 93.238 226.291 93.642 226.975 C 94.048 227.659 94.256 228.562 94.256 229.685 C 94.256 230.88 93.969 231.877 93.394 232.664 C 92.819 233.453 92.074 234.032 91.161 234.4 C 90.252 234.764 89.283 234.944 88.254 234.944 C 87.192 234.944 86.212 234.734 85.313 234.314 C 84.418 233.893 83.693 233.246 83.148 232.375 C 82.6 231.496 82.321 230.417 82.308 229.123 L 86.44 229.123 C 86.477 229.841 86.678 230.382 87.039 230.744 C 87.399 231.105 87.883 231.285 88.496 231.285 C 89.02 231.285 89.435 231.196 89.745 231.023 C 90.055 230.846 90.208 230.498 90.208 229.975 C 90.208 229.709 90.103 229.471 89.895 229.259 C 89.687 229.048 89.439 228.875 89.149 228.735 C 88.863 228.596 88.56 228.477 88.247 228.371 C 87.934 228.269 87.686 228.187 87.508 228.126 C 86.606 227.799 85.94 227.544 85.514 227.364 C 85.088 227.187 84.66 226.914 84.227 226.56 C 83.799 226.2 83.458 225.739 83.206 225.175 C 82.958 224.613 82.835 223.912 82.835 223.061 C 82.835 221.849 83.121 220.869 83.69 220.123 C 84.261 219.378 84.965 218.846 85.806 218.537 C 86.644 218.227 87.481 218.067 88.315 218.067 C 89.058 218.067 89.749 218.166 90.381 218.36 C 91.018 218.557 91.58 218.864 92.081 219.286 C 92.577 219.705 92.972 220.252 93.262 220.926 C 93.547 221.597 93.701 222.397 93.715 223.33 Z M 106.446 223.33 L 102.578 223.33 C 102.569 222.748 102.412 222.309 102.122 222.023 C 101.83 221.73 101.435 221.587 100.941 221.587 C 100.005 221.587 99.535 221.998 99.535 222.819 C 99.535 223.119 99.665 223.353 99.92 223.523 C 100.176 223.694 100.645 223.878 101.326 224.078 C 102.01 224.286 102.367 224.391 102.394 224.398 C 103.399 224.739 104.212 225.082 104.835 225.43 C 105.455 225.773 105.969 226.291 106.374 226.975 C 106.783 227.659 106.987 228.562 106.987 229.685 C 106.987 230.88 106.701 231.877 106.126 232.664 C 105.553 233.453 104.808 234.032 103.892 234.4 C 102.983 234.764 102.013 234.944 100.985 234.944 C 99.926 234.944 98.946 234.734 98.044 234.314 C 97.149 233.893 96.428 233.246 95.879 232.375 C 95.331 231.496 95.052 230.417 95.038 229.123 L 99.174 229.123 C 99.208 229.841 99.413 230.382 99.77 230.744 C 100.135 231.105 100.617 231.285 101.227 231.285 C 101.751 231.285 102.167 231.196 102.476 231.023 C 102.786 230.846 102.939 230.498 102.939 229.975 C 102.939 229.709 102.837 229.471 102.63 229.259 C 102.419 229.048 102.174 228.875 101.884 228.735 C 101.594 228.596 101.292 228.477 100.978 228.371 C 100.669 228.269 100.42 228.187 100.24 228.126 C 99.338 227.799 98.674 227.544 98.245 227.364 C 97.819 227.187 97.394 226.914 96.962 226.56 C 96.529 226.2 96.192 225.739 95.94 225.175 C 95.692 224.613 95.567 223.912 95.567 223.061 C 95.567 221.849 95.852 220.869 96.424 220.123 C 96.992 219.378 97.701 218.846 98.538 218.537 C 99.379 218.227 100.213 218.067 101.047 218.067 C 101.789 218.067 102.48 218.166 103.117 218.36 C 103.749 218.557 104.315 218.864 104.815 219.286 C 105.312 219.705 105.703 220.252 105.992 220.926 C 106.282 221.597 106.432 222.397 106.446 223.33 Z M 112.75 234.584 L 108.665 234.584 L 108.665 218.404 L 112.75 218.404 Z M 125.559 223.33 L 121.692 223.33 C 121.682 222.748 121.528 222.309 121.237 222.023 C 120.944 221.73 120.552 221.587 120.058 221.587 C 119.122 221.587 118.653 221.998 118.653 222.819 C 118.653 223.119 118.778 223.353 119.034 223.523 C 119.289 223.694 119.759 223.878 120.439 224.078 C 121.124 224.286 121.481 224.391 121.508 224.398 C 122.516 224.739 123.33 225.082 123.949 225.43 C 124.569 225.773 125.083 226.291 125.491 226.975 C 125.896 227.659 126.101 228.562 126.101 229.685 C 126.101 230.88 125.814 231.877 125.243 232.664 C 124.667 233.453 123.922 234.032 123.01 234.4 C 122.101 234.764 121.128 234.944 120.103 234.944 C 119.041 234.944 118.06 234.734 117.162 234.314 C 116.263 233.893 115.541 233.246 114.993 232.375 C 114.448 231.496 114.169 230.417 114.156 229.123 L 118.288 229.123 C 118.326 229.841 118.526 230.382 118.887 230.744 C 119.248 231.105 119.732 231.285 120.344 231.285 C 120.865 231.285 121.284 231.196 121.594 231.023 C 121.9 230.846 122.057 230.498 122.057 229.975 C 122.057 229.709 121.951 229.471 121.744 229.259 C 121.535 229.048 121.287 228.875 120.998 228.735 C 120.708 228.596 120.405 228.477 120.096 228.371 C 119.783 228.269 119.534 228.187 119.357 228.126 C 118.451 227.799 117.788 227.544 117.362 227.364 C 116.933 227.187 116.508 226.914 116.076 226.56 C 115.646 226.2 115.306 225.739 115.055 225.175 C 114.806 224.613 114.683 223.912 114.683 223.061 C 114.683 221.849 114.966 220.869 115.537 220.123 C 116.11 219.378 116.814 218.846 117.651 218.537 C 118.492 218.227 119.33 218.067 120.16 218.067 C 120.903 218.067 121.597 218.166 122.23 218.36 C 122.864 218.557 123.428 218.864 123.928 219.286 C 124.426 219.705 124.817 220.252 125.107 220.926 C 125.396 221.597 125.549 222.397 125.559 223.33 Z M 138.192 218.404 L 138.192 222.605 L 134.444 222.605 L 134.444 234.584 L 130.335 234.584 L 130.335 222.605 L 126.571 222.605 L 126.571 218.404 Z M 151.198 218.404 L 151.198 222.261 L 144.033 222.261 L 144.033 224.443 L 150.535 224.443 L 150.535 228.034 L 144.033 228.034 L 144.033 230.58 L 151.382 230.58 L 151.382 234.584 L 140.064 234.584 L 140.064 218.404 Z M 149.016 217.073 L 146.419 217.073 L 145.493 215.347 L 144.612 217.073 L 142.032 217.073 L 144.064 213.625 L 147.022 213.625 Z M 165.387 218.404 L 165.387 234.584 L 161.459 234.584 L 157.227 225.753 L 157.227 234.584 L 153.259 234.584 L 153.259 218.404 L 157.33 218.404 L 161.418 227.04 L 161.418 218.404 Z M 180.014 224.395 L 176.007 224.395 C 175.902 223.664 175.657 223.095 175.269 222.683 C 174.877 222.268 174.363 222.064 173.727 222.064 C 172.866 222.064 172.243 222.512 171.854 223.405 C 171.466 224.3 171.273 225.325 171.273 226.482 C 171.273 227.207 171.354 227.905 171.518 228.579 C 171.681 229.257 171.957 229.818 172.338 230.271 C 172.723 230.723 173.22 230.951 173.829 230.951 C 174.482 230.951 174.99 230.7 175.343 230.202 C 175.702 229.702 175.919 229.045 176.007 228.228 L 180.099 228.228 C 180.024 229.576 179.715 230.764 179.163 231.796 C 178.608 232.823 177.877 233.614 176.968 234.168 C 176.052 234.723 175.038 235.002 173.911 235.002 C 173.131 235.002 172.348 234.842 171.565 234.532 C 170.779 234.216 170.043 233.719 169.37 233.034 C 168.689 232.357 168.148 231.472 167.736 230.376 C 167.327 229.284 167.123 228.003 167.123 226.53 C 167.123 225.379 167.283 224.28 167.609 223.234 C 167.933 222.193 168.396 221.284 168.988 220.501 C 169.584 219.721 170.295 219.112 171.123 218.669 C 171.947 218.23 172.849 218.012 173.829 218.012 C 174.983 218.012 175.957 218.248 176.753 218.714 C 177.546 219.18 178.17 219.759 178.615 220.446 C 179.061 221.134 179.391 221.821 179.602 222.505 C 179.81 223.193 179.95 223.827 180.014 224.395 Z M 185.74 234.584 L 181.655 234.584 L 181.655 218.404 L 185.74 218.404 Z M 195.788 218.404 L 200.745 234.584 L 196.554 234.584 L 195.911 232.303 L 191.578 232.303 L 190.934 234.584 L 186.765 234.584 L 191.72 218.404 Z M 195.063 228.83 L 193.777 223.357 L 192.364 228.83 Z M 218.511 223.33 L 214.644 223.33 C 214.633 222.748 214.477 222.309 214.188 222.023 C 213.895 221.73 213.5 221.587 213.006 221.587 C 212.07 221.587 211.601 221.998 211.601 222.819 C 211.601 223.119 211.73 223.353 211.981 223.523 C 212.237 223.694 212.71 223.878 213.391 224.078 C 214.076 224.286 214.433 224.391 214.456 224.398 C 215.464 224.739 216.278 225.082 216.897 225.43 C 217.52 225.773 218.034 226.291 218.44 226.975 C 218.848 227.659 219.052 228.562 219.052 229.685 C 219.052 230.88 218.766 231.877 218.19 232.664 C 217.619 233.453 216.874 234.032 215.958 234.4 C 215.049 234.764 214.079 234.944 213.051 234.944 C 211.988 234.944 211.008 234.734 210.11 234.314 C 209.215 233.893 208.492 233.246 207.945 232.375 C 207.397 231.496 207.117 230.417 207.104 229.123 L 211.236 229.123 C 211.274 229.841 211.478 230.382 211.835 230.744 C 212.199 231.105 212.683 231.285 213.292 231.285 C 213.817 231.285 214.232 231.196 214.542 231.023 C 214.851 230.846 215.004 230.498 215.004 229.975 C 215.004 229.709 214.903 229.471 214.692 229.259 C 214.483 229.048 214.235 228.875 213.949 228.735 C 213.66 228.596 213.357 228.477 213.044 228.371 C 212.731 228.269 212.483 228.187 212.305 228.126 C 211.403 227.799 210.74 227.544 210.31 227.364 C 209.885 227.187 209.459 226.914 209.024 226.56 C 208.595 226.2 208.258 225.739 208.006 225.175 C 207.758 224.613 207.631 223.912 207.631 223.061 C 207.631 221.849 207.917 220.869 208.49 220.123 C 209.058 219.378 209.765 218.846 210.603 218.537 C 211.444 218.227 212.278 218.067 213.112 218.067 C 213.854 218.067 214.545 218.166 215.178 218.36 C 215.815 218.557 216.38 218.864 216.88 219.286 C 217.377 219.705 217.769 220.252 218.058 220.926 C 218.347 221.597 218.497 222.397 218.511 223.33 Z M 227.069 218.012 C 228.08 218.012 228.999 218.22 229.829 218.646 C 230.656 219.068 231.365 219.664 231.95 220.433 C 232.539 221.205 232.985 222.107 233.298 223.146 C 233.608 224.184 233.761 225.304 233.761 226.505 C 233.761 227.748 233.605 228.885 233.288 229.923 C 232.974 230.958 232.519 231.857 231.919 232.616 C 231.32 233.375 230.595 233.968 229.744 234.379 C 228.897 234.795 227.96 235.002 226.929 235.002 C 225.928 235.002 224.976 234.771 224.06 234.304 C 223.151 233.841 222.381 233.164 221.748 232.279 C 221.207 231.507 220.805 230.621 220.54 229.627 C 220.274 228.633 220.138 227.602 220.138 226.53 C 220.138 225.27 220.301 224.116 220.621 223.075 C 220.942 222.03 221.408 221.127 222.02 220.368 C 222.626 219.612 223.362 219.03 224.219 218.621 C 225.077 218.214 226.027 218.012 227.069 218.012 Z M 227.031 222.064 C 226.071 222.064 225.374 222.499 224.941 223.367 C 224.508 224.242 224.291 225.3 224.291 226.553 C 224.291 227.782 224.508 228.823 224.948 229.671 C 225.383 230.526 226.078 230.951 227.031 230.951 C 227.664 230.951 228.171 230.73 228.56 230.291 C 228.948 229.848 229.217 229.291 229.376 228.616 C 229.533 227.946 229.612 227.227 229.612 226.458 C 229.612 225.055 229.39 223.976 228.948 223.231 C 228.488 222.451 227.851 222.064 227.031 222.064 Z M 247.819 224.395 L 243.81 224.395 C 243.708 223.664 243.462 223.095 243.071 222.683 C 242.683 222.268 242.169 222.064 241.533 222.064 C 240.671 222.064 240.048 222.512 239.66 223.405 C 239.272 224.3 239.078 225.325 239.078 226.482 C 239.078 227.207 239.156 227.905 239.323 228.579 C 239.487 229.257 239.762 229.818 240.144 230.271 C 240.528 230.723 241.025 230.951 241.635 230.951 C 242.285 230.951 242.792 230.7 243.149 230.202 C 243.507 229.702 243.725 229.045 243.81 228.228 L 247.905 228.228 C 247.83 229.576 247.517 230.764 246.965 231.796 C 246.414 232.823 245.682 233.614 244.769 234.168 C 243.857 234.723 242.84 235.002 241.716 235.002 C 240.937 235.002 240.153 234.842 239.367 234.532 C 238.581 234.216 237.849 233.719 237.172 233.034 C 236.494 232.357 235.95 231.472 235.542 230.376 C 235.13 229.284 234.925 228.003 234.925 226.53 C 234.925 225.379 235.089 224.28 235.412 223.234 C 235.739 222.193 236.198 221.284 236.794 220.501 C 237.387 219.721 238.098 219.112 238.925 218.669 C 239.753 218.23 240.654 218.012 241.635 218.012 C 242.785 218.012 243.759 218.248 244.555 218.714 C 245.352 219.18 245.971 219.759 246.421 220.446 C 246.867 221.134 247.197 221.821 247.408 222.505 C 247.616 223.193 247.751 223.827 247.819 224.395 Z M 253.546 234.584 L 249.457 234.584 L 249.457 218.404 L 253.546 218.404 Z M 263.594 218.404 L 268.55 234.584 L 264.36 234.584 L 263.714 232.303 L 259.383 232.303 L 258.74 234.584 L 254.57 234.584 L 259.523 218.404 Z M 262.869 228.83 L 261.582 223.357 L 260.17 228.83 Z M 279.624 230.382 L 279.624 234.584 L 269.538 234.584 L 269.538 218.404 L 273.623 218.404 L 273.623 230.382 Z M 279.624 230.382"/>
  </g>
</svg>