<?xml version="1.0" encoding="utf-8"?>
<svg viewBox="73.566 77.307 313.591 162.718" xmlns="http://www.w3.org/2000/svg">
  <g id="surface1" transform="matrix(1, 0, 0, 1, 63.929893, 55.453568)">
    <path style="stroke: none; fill-rule: evenodd; fill-opacity: 1; fill: rgb(233, 27, 27);" d="M 52.867188 115.859375 L 52.753906 115.859375 C 49.585938 115.859375 46.992188 118.449219 46.992188 121.617188 L 46.992188 144.425781 C 46.992188 147.375 49.238281 149.824219 52.101563 150.148438 L 52.101563 150.1875 L 75.6875 150.1875 L 76.742188 150.226563 C 76.742188 150.226563 82.71875 158.296875 83.425781 159.59375 C 84.132813 160.894531 85.507813 161.523438 87.15625 160.421875 C 88.808594 159.320313 87.550781 156.996094 87.550781 156.996094 C 87.550781 156.996094 79.613281 145.34375 78.195313 143.335938 C 76.78125 141.328125 76.113281 141.800781 75.6875 141.683594 L 58.628906 141.683594 L 58.628906 134.316406 C 58.675781 134.320313 58.726563 134.320313 58.777344 134.320313 L 73.246094 134.320313 C 74.605469 134.320313 75.71875 133.207031 75.71875 131.847656 L 75.71875 131.796875 C 75.71875 130.4375 74.605469 129.324219 73.246094 129.324219 L 58.777344 129.324219 C 58.726563 129.324219 58.675781 129.324219 58.628906 129.328125 L 58.628906 121.617188 C 58.628906 118.449219 56.035156 115.859375 52.867188 115.859375 Z M 55.191406 178.503906 C 67.027344 178.503906 77 170.464844 80.027344 159.511719 C 78.527344 157.089844 75.175781 152.523438 75.175781 152.523438 C 75.175781 163.644531 66.226563 172.664063 55.191406 172.664063 C 44.15625 172.664063 35.207031 163.644531 35.207031 152.523438 C 35.207031 146.015625 38.273438 140.226563 43.03125 136.546875 L 43.289063 129.476563 C 35.042969 133.808594 29.410156 142.503906 29.410156 152.523438 C 29.410156 166.871094 40.957031 178.503906 55.191406 178.503906 Z M 52.8125 114.207031 C 56.328125 114.207031 59.179688 111.332031 59.179688 107.789063 C 59.179688 104.246094 56.328125 101.371094 52.8125 101.371094 C 49.292969 101.371094 46.445313 104.246094 46.445313 107.789063 C 46.445313 111.332031 49.292969 114.207031 52.8125 114.207031 Z M 52.8125 114.207031 "/>
    <path style="stroke: none; fill-rule: evenodd; fill-opacity: 1; fill: rgb(23, 183, 183);" d="M 195.41 147.273 L 195.41 175.773 C 195.41 177.594 194.012 179.082 192.305 179.082 L 192.242 179.082 C 190.531 179.082 189.133 177.594 189.133 175.773 L 189.133 119.273 C 188.164 119.512 187.277 119.938 186.855 120.66 L 186.855 142.934 C 186.855 144.453 185.609 145.699 184.09 145.699 L 184.035 145.699 C 182.516 145.699 181.273 144.453 181.273 142.934 L 181.273 117.754 C 181.273 117.629 181.281 117.504 181.297 117.383 C 181.375 116.301 181.621 113.359 182.293 112.078 C 183.082 110.582 187.402 109.641 189.133 109.641 L 203.867 109.641 C 205.598 109.641 209.918 110.582 210.707 112.078 C 211.379 113.359 211.625 116.301 211.703 117.383 C 211.719 117.504 211.727 117.629 211.727 117.754 L 211.727 142.934 C 211.727 144.453 210.484 145.699 208.965 145.699 L 208.91 145.699 C 207.391 145.699 206.145 144.453 206.145 142.934 L 206.145 120.66 C 205.723 119.938 204.84 119.512 203.867 119.273 L 203.867 175.773 C 203.867 177.594 202.469 179.082 200.758 179.082 L 200.695 179.082 C 198.988 179.082 197.59 177.594 197.59 175.773 L 197.59 147.273 Z M 196.5 107.039 C 200.688 107.039 204.086 103.637 204.086 99.441 C 204.086 95.246 200.688 91.844 196.5 91.844 C 192.313 91.844 188.914 95.246 188.914 99.441 C 188.914 103.637 192.313 107.039 196.5 107.039 Z M 196.5 107.039"/>
    <path style="stroke: none; fill-rule: evenodd; fill-opacity: 1; fill: rgb(26, 167, 26);" d="M 171.004 138.266 L 171.004 173.363 C 171.004 175.473 169.047 177.195 166.656 177.195 L 166.57 177.195 C 164.18 177.195 162.223 175.473 162.223 173.363 L 162.223 140.359 L 162.031 140.359 L 162.031 173.363 C 162.031 175.473 160.074 177.195 157.684 177.195 L 157.598 177.195 C 155.207 177.195 153.25 175.473 153.25 173.363 L 153.25 132.84 C 152.594 133.199 151.766 133.414 150.871 133.414 L 150.793 133.414 C 148.652 133.414 146.898 132.184 146.898 130.676 L 146.898 105.719 C 146.898 105.559 146.918 105.402 146.957 105.246 C 147.063 103.75 147.324 100.922 147.922 99.605 C 148.531 98.266 151.25 97.309 153.25 96.945 L 153.25 96.781 L 171.004 96.781 L 171.004 96.945 C 173.004 97.309 175.727 98.266 176.332 99.605 C 176.93 100.918 177.191 103.75 177.297 105.246 C 177.336 105.398 177.355 105.559 177.355 105.719 L 177.355 130.676 C 177.355 132.184 175.605 133.414 173.465 133.414 L 173.387 133.414 C 172.488 133.414 171.66 133.199 171.004 132.84 Z M 162.129 94.004 C 166.316 94.004 169.715 90.602 169.715 86.406 C 169.715 82.211 166.316 78.809 162.129 78.809 C 157.938 78.809 154.543 82.211 154.543 86.406 C 154.543 90.602 157.938 94.004 162.129 94.004 Z M 162.129 94.004"/>
    <path style="stroke: none; fill-rule: evenodd; fill-opacity: 1; fill: rgb(236, 132, 27);" d="M 99.8125 158.085938 L 99.8125 177.082031 C 99.8125 178.296875 98.878906 179.289063 97.742188 179.289063 L 97.699219 179.289063 C 96.558594 179.289063 95.625 178.296875 95.625 177.082031 L 95.625 139.421875 C 94.980469 139.582031 94.390625 139.863281 94.105469 140.347656 L 94.105469 155.195313 C 94.105469 156.207031 93.277344 157.035156 92.265625 157.035156 L 92.230469 157.035156 C 91.214844 157.035156 90.386719 156.207031 90.386719 155.195313 L 90.386719 138.410156 C 90.386719 138.324219 90.394531 138.242188 90.402344 138.160156 C 90.453125 137.4375 90.621094 135.476563 91.066406 134.625 C 91.59375 133.628906 94.472656 133 95.625 133 L 105.449219 133 C 106.601563 133 109.484375 133.628906 110.007813 134.625 C 110.453125 135.476563 110.621094 137.4375 110.671875 138.160156 C 110.683594 138.242188 110.6875 138.324219 110.6875 138.410156 L 110.6875 155.195313 C 110.6875 156.207031 109.859375 157.035156 108.847656 157.035156 L 108.808594 157.035156 C 107.796875 157.035156 106.96875 156.207031 106.96875 155.195313 L 106.96875 140.347656 C 106.6875 139.863281 106.09375 139.582031 105.449219 139.421875 L 105.449219 177.082031 C 105.449219 178.296875 104.515625 179.289063 103.375 179.289063 L 103.335938 179.289063 C 102.195313 179.289063 101.261719 178.296875 101.261719 177.082031 L 101.261719 158.085938 Z M 100.539063 131.265625 C 103.328125 131.265625 105.59375 129 105.59375 126.203125 C 105.59375 123.40625 103.328125 121.136719 100.539063 121.136719 C 97.746094 121.136719 95.480469 123.40625 95.480469 126.203125 C 95.480469 129 97.746094 131.265625 100.539063 131.265625 Z M 100.539063 131.265625 "/>
    <path style="stroke: none; fill-rule: evenodd; fill-opacity: 1; fill: rgb(187, 114, 246);" d="M 267.485 111.359 C 272.08 111.359 275.805 107.785 275.805 103.373 C 275.805 98.966 272.08 95.391 267.485 95.391 C 262.891 95.391 259.166 98.966 259.166 103.373 C 259.166 107.785 262.891 111.359 267.485 111.359 Z M 278.312 116.058 L 284.979 134.849 C 284.979 134.849 287.871 140.496 287.943 141.512 C 288.015 142.525 291.269 158.597 291.341 159.757 C 291.413 160.914 293.004 172.211 293.292 173.225 C 293.583 174.238 294.305 179.015 294.305 179.015 L 282.957 179.306 C 282.957 179.306 282.307 177.205 282.666 176.555 C 283.029 175.904 286.499 174.744 287.149 174.744 C 287.799 174.744 288.087 174.528 288.087 174.528 L 284.617 154.617 L 283.679 150.705 C 283.679 150.705 281.944 150.055 281.146 151.287 C 280.353 152.515 275.367 159.973 275.076 160.407 C 274.788 160.842 274.788 179.015 274.788 179.015 L 263.58 178.652 C 263.58 178.652 263.149 174.672 265.606 174.166 C 268.064 173.659 269.727 173.731 269.727 173.731 L 269.436 157.44 C 269.436 157.44 276.283 148.208 277.605 147.447 C 278.93 146.689 279.918 144.117 279.918 144.117 C 279.918 144.117 277.637 137.166 277.023 135.646 C 276.408 134.127 274.601 131.231 274.601 131.231 L 266.684 141.078 C 266.684 141.078 268.599 142.597 268.818 144.372 C 269.033 146.146 268.782 148.029 268.635 148.679 C 268.491 149.329 267.334 149.839 266.756 149.656 C 266.178 149.476 266.285 147.993 266.321 147.483 C 266.357 146.976 266.469 144.914 265.42 144.77 C 264.371 144.623 264.55 144.336 264.008 144.77 C 263.465 145.205 263.577 146.11 262.887 146.326 C 262.201 146.541 260.721 146.868 260.538 146.218 C 260.358 145.564 260.215 144.587 260.215 144.587 C 260.215 144.587 258.695 144.659 258.3 145.456 C 257.901 146.254 250.239 180.104 250.239 180.104 C 250.239 180.104 248.54 181.551 247.706 180.718 C 246.877 179.885 247.563 178.329 247.563 178.329 L 254.467 147.63 C 254.467 147.63 255.731 141.185 259.13 140.571 C 262.528 139.953 263.286 139.953 263.286 139.953 L 272.69 126.087 C 272.69 126.087 269.727 118.199 269.511 117.257 C 269.317 116.424 269.127 109.893 275.248 111.923 C 276.8 112.437 277.813 114.649 278.312 116.058 Z M 278.312 116.058"/>
    <path style="stroke: none; fill-rule: evenodd; fill-opacity: 1; fill: rgb(119, 119, 234);" d="M 238.555 99.309 C 242.713 99.309 246.084 95.997 246.084 91.914 C 246.084 87.832 242.713 84.519 238.555 84.519 C 234.401 84.519 231.027 87.832 231.027 91.914 C 231.027 95.997 234.401 99.309 238.555 99.309 Z M 238.678 148.199 C 238.789 148.591 238.847 149.001 238.847 149.422 L 238.847 174.18 C 238.847 176.701 236.782 178.766 234.261 178.766 L 234.167 178.766 C 231.646 178.766 229.581 176.701 229.581 174.18 L 229.581 149.422 C 229.581 149.098 229.613 148.782 229.678 148.476 C 223.628 148.598 218.254 148.526 218.578 147.882 C 219.301 146.433 219.448 144.113 219.448 138.746 C 219.448 133.383 217.132 134.254 216.553 126.711 C 215.974 119.172 227.265 115.402 226.542 113.373 C 225.815 111.341 228.279 102.788 236.386 102.496 C 244.49 102.209 245.073 108.877 245.217 110.474 C 245.361 112.068 245.361 123.956 245.94 132.369 C 246.519 140.778 245.505 147.156 245.796 147.882 C 245.796 147.882 242.742 148.041 238.678 148.199 Z M 237.433 103.921 L 237.509 103.921 C 239.85 103.921 241.767 105.838 241.767 108.183 L 241.767 130.016 C 241.767 132.362 239.85 134.279 237.509 134.279 L 237.433 134.279 C 235.091 134.279 233.174 132.362 233.174 130.016 L 233.174 108.183 C 233.174 105.838 235.091 103.921 237.433 103.921 Z M 237.433 104.529 L 237.509 104.529 C 239.519 104.529 241.163 106.172 241.163 108.183 L 241.163 130.016 C 241.163 132.027 239.519 133.671 237.509 133.671 L 237.433 133.671 C 235.422 133.671 233.779 132.027 233.779 130.016 L 233.779 108.183 C 233.779 106.172 235.422 104.529 237.433 104.529 Z M 237.433 104.529"/>
    <path style="stroke: none; fill-rule: evenodd; fill-opacity: 1; fill: rgb(221, 101, 21);" d="M 134.886719 158.808594 L 134.886719 176.128906 C 134.886719 177.925781 133.414063 179.394531 131.617188 179.394531 L 131.550781 179.394531 C 129.753906 179.394531 128.28125 177.925781 128.28125 176.128906 C 128.28125 177.925781 126.8125 179.394531 125.015625 179.394531 L 124.949219 179.394531 C 123.148438 179.394531 121.679688 177.925781 121.679688 176.128906 L 121.679688 158.808594 L 112.71875 158.808594 L 121.636719 127.039063 C 116.996094 124.167969 108.898438 118.195313 107.984375 115.597656 C 107.78125 115.40625 107.621094 115.253906 107.523438 115.148438 C 106.34375 113.890625 104.695313 112.15625 106.972656 108.929688 C 109.253906 105.703125 113.96875 109.007813 114.992188 109.402344 C 116.011719 109.796875 116.09375 109.71875 116.957031 107.355469 C 117.820313 104.992188 122.300781 105.703125 126.625 105.542969 C 130.949219 105.386719 138.808594 105.386719 140.460938 106.648438 C 142.113281 107.90625 141.484375 111.449219 141.484375 115.464844 C 141.484375 119.480469 139.359375 121.683594 136.609375 123.96875 C 133.902344 126.214844 134.855469 126.328125 134.886719 126.328125 L 144.003906 158.808594 Z M 123.683594 127.128906 C 126.632813 127.140625 129.808594 126.609375 130.757813 124.558594 C 131.890625 122.121094 133.839844 119.003906 131.492188 116.652344 C 128.933594 114.089844 123.792969 111.339844 120.292969 110.269531 C 115.574219 108.824219 116.261719 113.125 112.585938 114.578125 C 111.511719 115.003906 110.324219 114.664063 109.234375 115.035156 L 109.097656 115.082031 L 110.277344 116.070313 C 111.175781 115.773438 112.0625 115.484375 112.953125 115.132813 C 114.132813 114.664063 115.046875 114.027344 115.898438 113.09375 C 116.3125 112.644531 116.8125 111.941406 117.308594 111.578125 C 117.21875 111.820313 117.203125 112.113281 117.183594 112.347656 C 117.136719 112.894531 117.113281 113.453125 117.089844 114.003906 C 117.050781 115.019531 117.019531 116.039063 116.996094 117.054688 C 116.882813 118 116.78125 118.808594 116.734375 119.191406 C 116.652344 119.878906 116.5625 120.570313 116.472656 121.261719 L 117.027344 122.273438 C 117.042969 121.035156 117.773438 119.714844 117.796875 118.476563 C 117.808594 117.855469 117.824219 117.113281 117.839844 116.492188 C 118.078125 114.433594 118.300781 113.085938 118.101563 112.371094 C 118.054688 112.203125 118.035156 111.425781 117.90625 111.328125 C 118.4375 111.3125 118.964844 110.792969 119.4375 110.9375 C 122.726563 111.941406 127.925781 114.152344 130.328125 116.558594 C 130.660156 116.894531 131.585938 118.097656 131.6875 118.5625 C 131.992188 119.960938 130.699219 122.632813 130.117188 123.886719 C 129.488281 125.242188 126.5 126.433594 124.125 126.464844 C 123.332031 126.476563 122.582031 125.777344 121.859375 125.722656 C 121.992188 125.832031 122.101563 125.914063 122.179688 125.976563 C 122.667969 126.351563 123.207031 126.757813 123.683594 127.128906 Z M 118.414063 122.878906 L 119.753906 122.925781 C 120.886719 122.460938 121.816406 122.898438 122.945313 122.429688 C 124.480469 121.789063 125.308594 120.945313 126.832031 120.273438 C 127.207031 119.851563 128.003906 118.53125 130.109375 119.203125 L 130.617188 118.785156 L 129.742188 118.59375 C 128.9375 117.882813 127.917969 118.867188 126.957031 119.289063 C 125.460938 119.949219 123.949219 120.585938 122.4375 121.214844 C 121.101563 121.773438 119.757813 122.328125 118.414063 122.878906 Z M 128.28125 100.347656 C 132.625 100.347656 136.144531 96.859375 136.144531 92.554688 C 136.144531 88.25 132.625 84.757813 128.28125 84.757813 C 123.941406 84.757813 120.421875 88.25 120.421875 92.554688 C 120.421875 96.859375 123.941406 100.347656 128.28125 100.347656 Z M 128.28125 100.347656 "/>
    <path style="stroke: none; fill-rule: evenodd; fill-opacity: 1; fill: rgb(204, 201, 201);" d="M 14.891 95.227 L 162.582 23.914 C 163.555 23.277 164.723 22.938 165.91 22.949 C 167.094 22.938 168.262 23.277 169.234 23.914 L 316.93 95.227 C 319.703 96.566 320.805 99.789 319.371 102.387 L 319.32 102.484 C 317.887 105.082 314.445 106.109 311.668 104.77 L 165.91 34.391 L 20.148 104.77 C 17.371 106.109 13.93 105.082 12.5 102.484 L 12.445 102.387 C 11.016 99.789 12.113 96.566 14.891 95.227 Z M 14.891 95.227"/>
  </g>
</svg>