<?xml version="1.0" encoding="utf-8"?>
<svg viewBox="87.703 49.58 317.446 359.98" xmlns="http://www.w3.org/2000/svg">
  <defs>
    <clipPath id="clip1">
      <path d="M 0 186 L 317.199219 186 L 317.199219 257 L 0 257 Z M 0 186 "/>
    </clipPath>
  </defs>
  <g id="surface1" transform="matrix(1, 0, 0, 1, 87.577866, 50.05542)">
    <path style="stroke: none; fill-rule: evenodd; fill-opacity: 1; fill: rgb(255, 0, 0);" d="M 52.867188 115.859375 L 52.753906 115.859375 C 49.585938 115.859375 46.992188 118.449219 46.992188 121.617188 L 46.992188 144.425781 C 46.992188 147.375 49.238281 149.824219 52.101563 150.148438 L 52.101563 150.1875 L 75.6875 150.1875 L 76.742188 150.226563 C 76.742188 150.226563 82.71875 158.296875 83.425781 159.59375 C 84.132813 160.894531 85.507813 161.523438 87.15625 160.421875 C 88.808594 159.320313 87.550781 156.996094 87.550781 156.996094 C 87.550781 156.996094 79.613281 145.34375 78.195313 143.335938 C 76.78125 141.328125 76.113281 141.800781 75.6875 141.683594 L 58.628906 141.683594 L 58.628906 134.316406 C 58.675781 134.320313 58.726563 134.320313 58.777344 134.320313 L 73.246094 134.320313 C 74.605469 134.320313 75.71875 133.207031 75.71875 131.847656 L 75.71875 131.796875 C 75.71875 130.4375 74.605469 129.324219 73.246094 129.324219 L 58.777344 129.324219 C 58.726563 129.324219 58.675781 129.324219 58.628906 129.328125 L 58.628906 121.617188 C 58.628906 118.449219 56.035156 115.859375 52.867188 115.859375 Z M 55.191406 178.503906 C 67.027344 178.503906 77 170.464844 80.027344 159.511719 C 78.527344 157.089844 75.175781 152.523438 75.175781 152.523438 C 75.175781 163.644531 66.226563 172.664063 55.191406 172.664063 C 44.15625 172.664063 35.207031 163.644531 35.207031 152.523438 C 35.207031 146.015625 38.273438 140.226563 43.03125 136.546875 L 43.289063 129.476563 C 35.042969 133.808594 29.410156 142.503906 29.410156 152.523438 C 29.410156 166.871094 40.957031 178.503906 55.191406 178.503906 Z M 52.8125 114.207031 C 56.328125 114.207031 59.179688 111.332031 59.179688 107.789063 C 59.179688 104.246094 56.328125 101.371094 52.8125 101.371094 C 49.292969 101.371094 46.445313 104.246094 46.445313 107.789063 C 46.445313 111.332031 49.292969 114.207031 52.8125 114.207031 Z M 52.8125 114.207031 "/>
    <path style="stroke: none; fill-rule: evenodd; fill-opacity: 1; fill: rgb(0, 255, 255);" d="M 192.410156 147.273438 L 192.410156 175.773438 C 192.410156 177.59375 191.011719 179.082031 189.304688 179.082031 L 189.242188 179.082031 C 187.53125 179.082031 186.132813 177.59375 186.132813 175.773438 L 186.132813 119.273438 C 185.164063 119.511719 184.277344 119.9375 183.855469 120.660156 L 183.855469 142.933594 C 183.855469 144.453125 182.609375 145.699219 181.089844 145.699219 L 181.035156 145.699219 C 179.515625 145.699219 178.273438 144.453125 178.273438 142.933594 L 178.273438 117.753906 C 178.273438 117.628906 178.28125 117.503906 178.296875 117.382813 C 178.375 116.300781 178.621094 113.359375 179.292969 112.078125 C 180.082031 110.582031 184.402344 109.640625 186.132813 109.640625 L 200.867188 109.640625 C 202.597656 109.640625 206.917969 110.582031 207.707031 112.078125 C 208.378906 113.359375 208.625 116.300781 208.703125 117.382813 C 208.71875 117.503906 208.726563 117.628906 208.726563 117.753906 L 208.726563 142.933594 C 208.726563 144.453125 207.484375 145.699219 205.964844 145.699219 L 205.910156 145.699219 C 204.390625 145.699219 203.144531 144.453125 203.144531 142.933594 L 203.144531 120.660156 C 202.722656 119.9375 201.839844 119.511719 200.867188 119.273438 L 200.867188 175.773438 C 200.867188 177.59375 199.46875 179.082031 197.757813 179.082031 L 197.695313 179.082031 C 195.988281 179.082031 194.589844 177.59375 194.589844 175.773438 L 194.589844 147.273438 Z M 193.5 107.039063 C 197.6875 107.039063 201.085938 103.636719 201.085938 99.441406 C 201.085938 95.246094 197.6875 91.84375 193.5 91.84375 C 189.3125 91.84375 185.914063 95.246094 185.914063 99.441406 C 185.914063 103.636719 189.3125 107.039063 193.5 107.039063 Z M 193.5 107.039063 "/>
    <path style="stroke: none; fill-rule: evenodd; fill-opacity: 1; fill: rgb(0, 255, 0);" d="M 169.003906 138.265625 L 169.003906 173.363281 C 169.003906 175.472656 167.046875 177.195313 164.65625 177.195313 L 164.570313 177.195313 C 162.179688 177.195313 160.222656 175.472656 160.222656 173.363281 L 160.222656 140.359375 L 160.03125 140.359375 L 160.03125 173.363281 C 160.03125 175.472656 158.074219 177.195313 155.683594 177.195313 L 155.597656 177.195313 C 153.207031 177.195313 151.25 175.472656 151.25 173.363281 L 151.25 132.839844 C 150.59375 133.199219 149.765625 133.414063 148.871094 133.414063 L 148.792969 133.414063 C 146.652344 133.414063 144.898438 132.183594 144.898438 130.675781 L 144.898438 105.71875 C 144.898438 105.558594 144.917969 105.402344 144.957031 105.246094 C 145.0625 103.75 145.324219 100.921875 145.921875 99.605469 C 146.53125 98.265625 149.25 97.308594 151.25 96.945313 L 151.25 96.78125 L 169.003906 96.78125 L 169.003906 96.945313 C 171.003906 97.308594 173.726563 98.265625 174.332031 99.605469 C 174.929688 100.917969 175.191406 103.75 175.296875 105.246094 C 175.335938 105.398438 175.355469 105.558594 175.355469 105.71875 L 175.355469 130.675781 C 175.355469 132.183594 173.605469 133.414063 171.464844 133.414063 L 171.386719 133.414063 C 170.488281 133.414063 169.660156 133.199219 169.003906 132.839844 Z M 160.128906 94.003906 C 164.316406 94.003906 167.714844 90.601563 167.714844 86.40625 C 167.714844 82.210938 164.316406 78.808594 160.128906 78.808594 C 155.9375 78.808594 152.542969 82.210938 152.542969 86.40625 C 152.542969 90.601563 155.9375 94.003906 160.128906 94.003906 Z M 160.128906 94.003906 "/>
    <path style="stroke: none; fill-rule: evenodd; fill-opacity: 1; fill: rgb(255, 127, 0);" d="M 99.8125 158.085938 L 99.8125 177.082031 C 99.8125 178.296875 98.878906 179.289063 97.742188 179.289063 L 97.699219 179.289063 C 96.558594 179.289063 95.625 178.296875 95.625 177.082031 L 95.625 139.421875 C 94.980469 139.582031 94.390625 139.863281 94.105469 140.347656 L 94.105469 155.195313 C 94.105469 156.207031 93.277344 157.035156 92.265625 157.035156 L 92.230469 157.035156 C 91.214844 157.035156 90.386719 156.207031 90.386719 155.195313 L 90.386719 138.410156 C 90.386719 138.324219 90.394531 138.242188 90.402344 138.160156 C 90.453125 137.4375 90.621094 135.476563 91.066406 134.625 C 91.59375 133.628906 94.472656 133 95.625 133 L 105.449219 133 C 106.601563 133 109.484375 133.628906 110.007813 134.625 C 110.453125 135.476563 110.621094 137.4375 110.671875 138.160156 C 110.683594 138.242188 110.6875 138.324219 110.6875 138.410156 L 110.6875 155.195313 C 110.6875 156.207031 109.859375 157.035156 108.847656 157.035156 L 108.808594 157.035156 C 107.796875 157.035156 106.96875 156.207031 106.96875 155.195313 L 106.96875 140.347656 C 106.6875 139.863281 106.09375 139.582031 105.449219 139.421875 L 105.449219 177.082031 C 105.449219 178.296875 104.515625 179.289063 103.375 179.289063 L 103.335938 179.289063 C 102.195313 179.289063 101.261719 178.296875 101.261719 177.082031 L 101.261719 158.085938 Z M 100.539063 131.265625 C 103.328125 131.265625 105.59375 129 105.59375 126.203125 C 105.59375 123.40625 103.328125 121.136719 100.539063 121.136719 C 97.746094 121.136719 95.480469 123.40625 95.480469 126.203125 C 95.480469 129 97.746094 131.265625 100.539063 131.265625 Z M 100.539063 131.265625 "/>
    <path style="stroke: none; fill-rule: evenodd; fill-opacity: 1; fill: rgb(139, 0, 255);" d="M 263.25 105.273438 C 268.246094 105.273438 272.296875 101.386719 272.296875 96.589844 C 272.296875 91.796875 268.246094 87.910156 263.25 87.910156 C 258.253906 87.910156 254.203125 91.796875 254.203125 96.589844 C 254.203125 101.386719 258.253906 105.273438 263.25 105.273438 Z M 275.023438 110.382813 L 282.273438 130.816406 C 282.273438 130.816406 285.417969 136.957031 285.496094 138.0625 C 285.574219 139.164063 289.113281 156.640625 289.191406 157.902344 C 289.269531 159.160156 291 171.445313 291.3125 172.546875 C 291.628906 173.648438 292.414063 178.84375 292.414063 178.84375 L 280.074219 179.160156 C 280.074219 179.160156 279.367188 176.875 279.757813 176.167969 C 280.152344 175.460938 283.925781 174.199219 284.632813 174.199219 C 285.339844 174.199219 285.652344 173.964844 285.652344 173.964844 L 281.878906 152.3125 L 280.859375 148.058594 C 280.859375 148.058594 278.972656 147.351563 278.105469 148.691406 C 277.242188 150.027344 271.820313 158.136719 271.503906 158.609375 C 271.191406 159.082031 271.191406 178.84375 271.191406 178.84375 L 259.003906 178.449219 C 259.003906 178.449219 258.535156 174.121094 261.207031 173.570313 C 263.878906 173.019531 265.6875 173.097656 265.6875 173.097656 L 265.371094 155.382813 C 265.371094 155.382813 272.816406 145.34375 274.253906 144.515625 C 275.695313 143.691406 276.769531 140.894531 276.769531 140.894531 C 276.769531 140.894531 274.289063 133.335938 273.621094 131.683594 C 272.953125 130.03125 270.988281 126.882813 270.988281 126.882813 L 262.378906 137.589844 C 262.378906 137.589844 264.460938 139.242188 264.699219 141.171875 C 264.933594 143.101563 264.660156 145.148438 264.5 145.855469 C 264.34375 146.5625 263.085938 147.117188 262.457031 146.917969 C 261.828125 146.722656 261.945313 145.109375 261.984375 144.554688 C 262.023438 144.003906 262.144531 141.761719 261.003906 141.605469 C 259.863281 141.445313 260.058594 141.132813 259.46875 141.605469 C 258.878906 142.078125 259 143.0625 258.25 143.296875 C 257.503906 143.53125 255.894531 143.886719 255.695313 143.179688 C 255.5 142.46875 255.34375 141.40625 255.34375 141.40625 C 255.34375 141.40625 253.691406 141.484375 253.261719 142.351563 C 252.828125 143.21875 244.496094 180.027344 244.496094 180.027344 C 244.496094 180.027344 242.648438 181.601563 241.742188 180.695313 C 240.839844 179.789063 241.585938 178.097656 241.585938 178.097656 L 249.09375 144.714844 C 249.09375 144.714844 250.46875 137.707031 254.164063 137.039063 C 257.859375 136.367188 258.683594 136.367188 258.683594 136.367188 L 268.910156 121.289063 C 268.910156 121.289063 265.6875 112.710938 265.453125 111.6875 C 265.242188 110.78125 265.035156 103.679688 271.691406 105.886719 C 273.378906 106.445313 274.480469 108.851563 275.023438 110.382813 Z M 275.023438 110.382813 "/>
    <path style="stroke: none; fill-rule: evenodd; fill-opacity: 1; fill: rgb(0, 0, 255);" d="M 236.449219 92.476563 C 240.964844 92.476563 244.625 88.878906 244.625 84.445313 C 244.625 80.011719 240.964844 76.414063 236.449219 76.414063 C 231.9375 76.414063 228.273438 80.011719 228.273438 84.445313 C 228.273438 88.878906 231.9375 92.476563 236.449219 92.476563 Z M 236.582031 145.570313 C 236.703125 145.996094 236.765625 146.441406 236.765625 146.898438 L 236.765625 173.785156 C 236.765625 176.523438 234.523438 178.765625 231.785156 178.765625 L 231.683594 178.765625 C 228.945313 178.765625 226.703125 176.523438 226.703125 173.785156 L 226.703125 146.898438 C 226.703125 146.546875 226.738281 146.203125 226.808594 145.871094 C 220.238281 146.003906 214.402344 145.925781 214.753906 145.226563 C 215.539063 143.652344 215.699219 141.132813 215.699219 135.304688 C 215.699219 129.480469 213.183594 130.425781 212.554688 122.234375 C 211.925781 114.046875 224.1875 109.953125 223.402344 107.75 C 222.613281 105.542969 225.289063 96.253906 234.09375 95.9375 C 242.894531 95.625 243.527344 102.867188 243.683594 104.601563 C 243.839844 106.332031 243.839844 119.242188 244.46875 128.378906 C 245.097656 137.511719 243.996094 144.4375 244.3125 145.226563 C 244.3125 145.226563 240.996094 145.398438 236.582031 145.570313 Z M 235.230469 97.484375 L 235.3125 97.484375 C 237.855469 97.484375 239.9375 99.566406 239.9375 102.113281 L 239.9375 125.824219 C 239.9375 128.371094 237.855469 130.453125 235.3125 130.453125 L 235.230469 130.453125 C 232.6875 130.453125 230.605469 128.371094 230.605469 125.824219 L 230.605469 102.113281 C 230.605469 99.566406 232.6875 97.484375 235.230469 97.484375 Z M 235.230469 98.144531 L 235.3125 98.144531 C 237.496094 98.144531 239.28125 99.929688 239.28125 102.113281 L 239.28125 125.824219 C 239.28125 128.007813 237.496094 129.792969 235.3125 129.792969 L 235.230469 129.792969 C 233.046875 129.792969 231.261719 128.007813 231.261719 125.824219 L 231.261719 102.113281 C 231.261719 99.929688 233.046875 98.144531 235.230469 98.144531 Z M 235.230469 98.144531 "/>
    <path style="stroke: none; fill-rule: evenodd; fill-opacity: 1; fill: rgb(255, 255, 0);" d="M 134.886719 158.808594 L 134.886719 176.128906 C 134.886719 177.925781 133.414063 179.394531 131.617188 179.394531 L 131.550781 179.394531 C 129.753906 179.394531 128.28125 177.925781 128.28125 176.128906 C 128.28125 177.925781 126.8125 179.394531 125.015625 179.394531 L 124.949219 179.394531 C 123.148438 179.394531 121.679688 177.925781 121.679688 176.128906 L 121.679688 158.808594 L 112.71875 158.808594 L 121.636719 127.039063 C 116.996094 124.167969 108.898438 118.195313 107.984375 115.597656 C 107.78125 115.40625 107.621094 115.253906 107.523438 115.148438 C 106.34375 113.890625 104.695313 112.15625 106.972656 108.929688 C 109.253906 105.703125 113.96875 109.007813 114.992188 109.402344 C 116.011719 109.796875 116.09375 109.71875 116.957031 107.355469 C 117.820313 104.992188 122.300781 105.703125 126.625 105.542969 C 130.949219 105.386719 138.808594 105.386719 140.460938 106.648438 C 142.113281 107.90625 141.484375 111.449219 141.484375 115.464844 C 141.484375 119.480469 139.359375 121.683594 136.609375 123.96875 C 133.902344 126.214844 134.855469 126.328125 134.886719 126.328125 L 144.003906 158.808594 Z M 123.683594 127.128906 C 126.632813 127.140625 129.808594 126.609375 130.757813 124.558594 C 131.890625 122.121094 133.839844 119.003906 131.492188 116.652344 C 128.933594 114.089844 123.792969 111.339844 120.292969 110.269531 C 115.574219 108.824219 116.261719 113.125 112.585938 114.578125 C 111.511719 115.003906 110.324219 114.664063 109.234375 115.035156 L 109.097656 115.082031 L 110.277344 116.070313 C 111.175781 115.773438 112.0625 115.484375 112.953125 115.132813 C 114.132813 114.664063 115.046875 114.027344 115.898438 113.09375 C 116.3125 112.644531 116.8125 111.941406 117.308594 111.578125 C 117.21875 111.820313 117.203125 112.113281 117.183594 112.347656 C 117.136719 112.894531 117.113281 113.453125 117.089844 114.003906 C 117.050781 115.019531 117.019531 116.039063 116.996094 117.054688 C 116.882813 118 116.78125 118.808594 116.734375 119.191406 C 116.652344 119.878906 116.5625 120.570313 116.472656 121.261719 L 117.027344 122.273438 C 117.042969 121.035156 117.773438 119.714844 117.796875 118.476563 C 117.808594 117.855469 117.824219 117.113281 117.839844 116.492188 C 118.078125 114.433594 118.300781 113.085938 118.101563 112.371094 C 118.054688 112.203125 118.035156 111.425781 117.90625 111.328125 C 118.4375 111.3125 118.964844 110.792969 119.4375 110.9375 C 122.726563 111.941406 127.925781 114.152344 130.328125 116.558594 C 130.660156 116.894531 131.585938 118.097656 131.6875 118.5625 C 131.992188 119.960938 130.699219 122.632813 130.117188 123.886719 C 129.488281 125.242188 126.5 126.433594 124.125 126.464844 C 123.332031 126.476563 122.582031 125.777344 121.859375 125.722656 C 121.992188 125.832031 122.101563 125.914063 122.179688 125.976563 C 122.667969 126.351563 123.207031 126.757813 123.683594 127.128906 Z M 118.414063 122.878906 L 119.753906 122.925781 C 120.886719 122.460938 121.816406 122.898438 122.945313 122.429688 C 124.480469 121.789063 125.308594 120.945313 126.832031 120.273438 C 127.207031 119.851563 128.003906 118.53125 130.109375 119.203125 L 130.617188 118.785156 L 129.742188 118.59375 C 128.9375 117.882813 127.917969 118.867188 126.957031 119.289063 C 125.460938 119.949219 123.949219 120.585938 122.4375 121.214844 C 121.101563 121.773438 119.757813 122.328125 118.414063 122.878906 Z M 128.28125 100.347656 C 132.625 100.347656 136.144531 96.859375 136.144531 92.554688 C 136.144531 88.25 132.625 84.757813 128.28125 84.757813 C 123.941406 84.757813 120.421875 88.25 120.421875 92.554688 C 120.421875 96.859375 123.941406 100.347656 128.28125 100.347656 Z M 128.28125 100.347656 "/>
    <g clip-path="url(#clip1)" clip-rule="nonzero">
      <path style="stroke: none; fill-rule: evenodd; fill-opacity: 1; fill: rgb(217, 218, 219);" d="M 76.371094 212.902344 L 52.644531 212.902344 C 52.027344 209.894531 50.578125 207.554688 48.269531 205.859375 C 45.964844 204.164063 42.925781 203.320313 39.148438 203.320313 C 34.0625 203.320313 30.367188 205.160156 28.078125 208.832031 C 25.773438 212.5 24.621094 216.71875 24.621094 221.46875 C 24.621094 224.441406 25.097656 227.316406 26.074219 230.089844 C 27.046875 232.863281 28.675781 235.171875 30.941406 237.03125 C 33.207031 238.890625 36.148438 239.820313 39.765625 239.820313 C 43.621094 239.820313 46.621094 238.789063 48.726563 236.746094 C 50.835938 234.6875 52.125 232 52.644531 228.644531 L 76.867188 228.644531 C 76.433594 234.171875 74.582031 239.054688 71.324219 243.289063 C 68.046875 247.507813 63.710938 250.765625 58.328125 253.039063 C 52.921875 255.3125 46.898438 256.460938 40.242188 256.460938 C 35.632813 256.460938 31 255.8125 26.351563 254.535156 C 21.699219 253.238281 17.347656 251.195313 13.355469 248.390625 C 9.339844 245.597656 6.121094 241.960938 3.695313 237.460938 C 1.269531 232.976563 0.0585938 227.714844 0.0585938 221.667969 C 0.0585938 216.9375 1.011719 212.417969 2.941406 208.132813 C 4.867188 203.851563 7.589844 200.113281 11.109375 196.90625 C 14.625 193.703125 18.839844 191.195313 23.726563 189.386719 C 28.617188 187.574219 33.960938 186.679688 39.765625 186.679688 C 46.582031 186.679688 52.34375 187.640625 57.054688 189.566406 C 61.765625 191.476563 65.441406 193.851563 68.085938 196.675781 C 70.726563 199.5 72.675781 202.320313 73.925781 205.144531 C 75.160156 207.96875 75.972656 210.558594 76.371094 212.902344 Z M 86.03125 254.75 L 86.03125 188.289063 L 126.59375 188.289063 C 135.097656 188.289063 141.578125 189.351563 146.027344 191.476563 C 149.425781 193.105469 152.148438 195.347656 154.175781 198.203125 C 156.222656 201.078125 157.238281 204.097656 157.238281 207.320313 C 157.238281 210.992188 156.222656 214.34375 154.214844 217.402344 C 152.1875 220.457031 149.269531 222.683594 145.410156 224.058594 C 152.148438 226.019531 156.003906 231.5 157 240.5 L 157.8125 247.574219 C 158.03125 251.179688 158.707031 253.570313 159.859375 254.75 L 135.792969 254.75 C 134.957031 253.039063 134.300781 249.71875 133.867188 244.785156 C 133.507813 241.5625 132.992188 239.054688 132.316406 237.246094 C 131.640625 235.4375 130.367188 234.007813 128.519531 232.945313 C 126.691406 231.882813 124.007813 231.351563 120.492188 231.351563 L 109.878906 231.351563 L 109.878906 254.75 Z M 109.878906 203.734375 L 109.878906 217.285156 L 123.492188 217.285156 C 130.328125 217.285156 133.746094 214.859375 133.746094 210.011719 C 133.746094 205.824219 129.890625 203.734375 122.179688 203.734375 Z M 216.5 188.289063 L 245.832031 254.75 L 221.03125 254.75 L 217.214844 245.382813 L 191.578125 245.382813 L 187.761719 254.75 L 163.078125 254.75 L 192.414063 188.289063 Z M 212.207031 231.117188 L 204.59375 208.632813 L 196.226563 231.117188 Z M 314.015625 208.515625 L 291.125 208.515625 C 291.0625 206.125 290.148438 204.332031 288.421875 203.152344 C 286.691406 201.957031 284.367188 201.359375 281.445313 201.359375 C 275.898438 201.359375 273.117188 203.054688 273.117188 206.425781 C 273.117188 207.652344 273.875 208.617188 275.382813 209.3125 C 276.894531 210.011719 279.675781 210.773438 283.710938 211.605469 C 287.765625 212.453125 289.871094 212.882813 290.03125 212.917969 C 295.992188 214.3125 300.800781 215.722656 304.476563 217.152344 C 308.15625 218.5625 311.195313 220.6875 313.601563 223.496094 C 316.003906 226.300781 317.21875 230.003906 317.21875 234.621094 C 317.21875 239.539063 315.527344 243.621094 312.128906 246.859375 C 308.730469 250.101563 304.320313 252.472656 298.914063 253.984375 C 293.527344 255.480469 287.785156 256.226563 281.703125 256.226563 C 275.421875 256.226563 269.621094 255.363281 264.292969 253.636719 C 258.988281 251.910156 254.714844 249.253906 251.476563 245.664063 C 248.238281 242.0625 246.585938 237.628906 246.507813 232.3125 L 270.972656 232.3125 C 271.191406 235.269531 272.382813 237.496094 274.507813 238.972656 C 276.65625 240.449219 279.515625 241.199219 283.132813 241.199219 C 286.234375 241.199219 288.699219 240.832031 290.527344 240.117188 C 292.355469 239.386719 293.269531 237.960938 293.269531 235.816406 C 293.269531 234.722656 292.652344 233.742188 291.421875 232.878906 C 290.1875 232.015625 288.71875 231.300781 287.007813 230.71875 C 285.300781 230.15625 283.511719 229.65625 281.664063 229.226563 C 279.816406 228.808594 278.34375 228.476563 277.292969 228.230469 C 271.945313 226.882813 268.011719 225.835938 265.488281 225.089844 C 262.964844 224.359375 260.4375 223.246094 257.875 221.785156 C 255.332031 220.308594 253.324219 218.414063 251.832031 216.105469 C 250.363281 213.796875 249.628906 210.90625 249.628906 207.421875 C 249.628906 202.4375 251.316406 198.417969 254.695313 195.347656 C 258.074219 192.292969 262.246094 190.117188 267.214844 188.835938 C 272.183594 187.558594 277.132813 186.910156 282.0625 186.910156 C 286.453125 186.910156 290.546875 187.308594 294.304688 188.105469 C 298.058594 188.921875 301.398438 190.183594 304.359375 191.910156 C 307.300781 193.636719 309.625 195.878906 311.335938 198.652344 C 313.042969 201.410156 313.9375 204.695313 314.015625 208.515625 Z M 314.015625 208.515625 "/>
    </g>
    <path style="stroke: none; fill-rule: evenodd; fill-opacity: 1; fill: rgb(217, 218, 219);" d="M 5.890625 72.226563 L 153.582031 0.914063 C 154.554688 0.277344 155.722656 -0.0625 156.910156 -0.0507813 C 158.09375 -0.0625 159.261719 0.277344 160.234375 0.914063 L 307.929688 72.226563 C 310.703125 73.566406 311.804688 76.789063 310.371094 79.386719 L 310.320313 79.484375 C 308.886719 82.082031 305.445313 83.109375 302.667969 81.769531 L 156.910156 11.390625 L 11.148438 81.769531 C 8.371094 83.109375 4.929688 82.082031 3.5 79.484375 L 3.445313 79.386719 C 2.015625 76.789063 3.113281 73.566406 5.890625 72.226563 Z M 5.890625 72.226563 "/>
    <path style="stroke: none; fill-rule: evenodd; fill: rgb(217, 218, 219); fill-opacity: 1;" d="M -0.148 363.548 L 317.503 360.95 L 316.998 269.165 L -0.234 269.165 C -0.223 271.26 -0.075 377.065 -0.148 363.548 Z M -14.266 393.484" transform="matrix(0.999985, 0.005398, -0.005398, 0.999985, 1.702993, -0.851719)"/>
    <path style=" stroke:none;fill-rule:evenodd;fill:rgb(10.594177%,9.812927%,9.423828%);fill-opacity:1;" d="M 27.46875 290.15625 L 22.867188 290.15625 C 22.746094 289.316406 22.464844 288.660156 22.019531 288.1875 C 21.574219 287.714844 20.984375 287.480469 20.25 287.480469 C 19.265625 287.480469 18.546875 287.992188 18.105469 289.019531 C 17.65625 290.042969 17.433594 291.222656 17.433594 292.550781 C 17.433594 293.378906 17.527344 294.183594 17.714844 294.957031 C 17.90625 295.734375 18.21875 296.378906 18.660156 296.898438 C 19.097656 297.417969 19.667969 297.675781 20.371094 297.675781 C 21.117188 297.675781 21.699219 297.390625 22.109375 296.820313 C 22.515625 296.242188 22.765625 295.492188 22.867188 294.554688 L 27.5625 294.554688 C 27.480469 296.097656 27.121094 297.464844 26.488281 298.648438 C 25.851563 299.824219 25.011719 300.734375 23.96875 301.371094 C 22.921875 302.003906 21.753906 302.324219 20.460938 302.324219 C 19.570313 302.324219 18.671875 302.144531 17.769531 301.789063 C 16.867188 301.425781 16.023438 300.855469 15.25 300.070313 C 14.472656 299.292969 13.847656 298.273438 13.378906 297.019531 C 12.90625 295.765625 12.671875 294.292969 12.671875 292.605469 C 12.671875 291.285156 12.855469 290.019531 13.230469 288.824219 C 13.605469 287.628906 14.132813 286.582031 14.8125 285.6875 C 15.496094 284.792969 16.3125 284.09375 17.261719 283.585938 C 18.207031 283.082031 19.246094 282.828125 20.371094 282.828125 C 21.691406 282.828125 22.808594 283.097656 23.722656 283.636719 C 24.636719 284.171875 25.347656 284.835938 25.859375 285.621094 C 26.375 286.410156 26.75 287.199219 26.992188 287.988281 C 27.230469 288.777344 27.390625 289.5 27.46875 290.15625 Z M 42.101563 283.28125 L 42.101563 287.707031 L 33.875 287.707031 L 33.875 290.210938 L 41.339844 290.210938 L 41.339844 294.332031 L 33.875 294.332031 L 33.875 297.253906 L 42.308594 297.253906 L 42.308594 301.847656 L 29.320313 301.847656 L 29.320313 283.28125 Z M 58.378906 283.28125 L 58.378906 301.847656 L 53.871094 301.847656 L 49.015625 291.714844 L 49.015625 301.847656 L 44.464844 301.847656 L 44.464844 283.28125 L 49.136719 283.28125 L 53.824219 293.191406 L 53.824219 283.28125 Z M 73.894531 283.28125 L 73.894531 288.101563 L 69.597656 288.101563 L 69.597656 301.847656 L 64.878906 301.847656 L 64.878906 288.101563 L 60.5625 288.101563 L 60.5625 283.28125 Z M 76.0625 301.847656 L 76.0625 283.28125 L 83.925781 283.28125 C 85.574219 283.28125 86.832031 283.578125 87.695313 284.171875 C 88.351563 284.625 88.878906 285.25 89.273438 286.050781 C 89.671875 286.851563 89.867188 287.695313 89.867188 288.597656 C 89.867188 289.621094 89.671875 290.558594 89.28125 291.414063 C 88.886719 292.265625 88.320313 292.886719 87.574219 293.273438 C 88.878906 293.820313 89.628906 295.351563 89.820313 297.867188 L 89.976563 299.84375 C 90.019531 300.851563 90.152344 301.519531 90.375 301.847656 L 85.710938 301.847656 C 85.546875 301.371094 85.421875 300.441406 85.335938 299.0625 C 85.265625 298.164063 85.164063 297.464844 85.035156 296.957031 C 84.902344 296.453125 84.65625 296.054688 84.300781 295.757813 C 83.945313 295.460938 83.425781 295.308594 82.742188 295.308594 L 80.683594 295.308594 L 80.683594 301.847656 Z M 80.683594 287.59375 L 80.683594 291.378906 L 83.324219 291.378906 C 84.648438 291.378906 85.3125 290.703125 85.3125 289.347656 C 85.3125 288.179688 84.566406 287.59375 83.070313 287.59375 Z M 99.734375 282.828125 C 100.894531 282.828125 101.949219 283.070313 102.902344 283.558594 C 103.847656 284.039063 104.660156 284.726563 105.335938 285.609375 C 106.011719 286.496094 106.523438 287.53125 106.882813 288.722656 C 107.234375 289.914063 107.414063 291.199219 107.414063 292.578125 C 107.414063 294.003906 107.230469 295.304688 106.871094 296.5 C 106.511719 297.6875 105.988281 298.714844 105.296875 299.589844 C 104.613281 300.460938 103.78125 301.136719 102.804688 301.609375 C 101.832031 302.089844 100.753906 302.324219 99.574219 302.324219 C 98.425781 302.324219 97.328125 302.0625 96.28125 301.527344 C 95.238281 300.996094 94.355469 300.21875 93.628906 299.203125 C 93.007813 298.316406 92.542969 297.300781 92.238281 296.160156 C 91.9375 295.019531 91.78125 293.835938 91.78125 292.605469 C 91.78125 291.15625 91.964844 289.835938 92.335938 288.640625 C 92.703125 287.441406 93.238281 286.40625 93.9375 285.535156 C 94.636719 284.667969 95.480469 284 96.464844 283.53125 C 97.449219 283.0625 98.539063 282.828125 99.734375 282.828125 Z M 99.691406 287.480469 C 98.589844 287.480469 97.789063 287.980469 97.292969 288.976563 C 96.792969 289.980469 96.542969 291.195313 96.542969 292.632813 C 96.542969 294.042969 96.792969 295.238281 97.300781 296.210938 C 97.800781 297.191406 98.597656 297.675781 99.691406 297.675781 C 100.417969 297.675781 100.996094 297.425781 101.445313 296.921875 C 101.886719 296.414063 102.199219 295.773438 102.382813 295 C 102.5625 294.230469 102.652344 293.402344 102.652344 292.523438 C 102.652344 290.914063 102.398438 289.671875 101.886719 288.820313 C 101.363281 287.925781 100.632813 287.480469 99.691406 287.480469 Z M 116.542969 283.28125 L 123.4375 283.28125 C 125.710938 283.28125 127.515625 284.003906 128.84375 285.445313 C 129.632813 286.285156 130.226563 287.332031 130.628906 288.582031 C 131.023438 289.835938 131.226563 291.140625 131.226563 292.496094 C 131.226563 295.597656 130.492188 297.984375 129.027344 299.644531 C 128.523438 300.214844 127.972656 300.664063 127.367188 300.988281 C 126.761719 301.320313 126.136719 301.542969 125.484375 301.664063 C 124.832031 301.789063 124.121094 301.847656 123.34375 301.847656 L 116.542969 301.847656 Z M 121.167969 287.902344 L 121.167969 297.253906 L 123.035156 297.253906 C 124.105469 297.253906 124.925781 296.902344 125.492188 296.203125 C 126.136719 295.34375 126.460938 294.097656 126.460938 292.472656 C 126.460938 291.691406 126.335938 290.949219 126.078125 290.25 C 125.820313 289.546875 125.445313 289.003906 124.957031 288.621094 C 124.367188 288.140625 123.582031 287.902344 122.601563 287.902344 Z M 145.964844 283.28125 L 145.964844 287.707031 L 137.742188 287.707031 L 137.742188 290.210938 L 145.203125 290.210938 L 145.203125 294.332031 L 137.742188 294.332031 L 137.742188 297.253906 L 146.175781 297.253906 L 146.175781 301.847656 L 133.1875 301.847656 L 133.1875 283.28125 Z M 155.515625 301.847656 L 155.515625 283.28125 L 163.378906 283.28125 C 165.027344 283.28125 166.285156 283.578125 167.144531 284.171875 C 167.804688 284.625 168.332031 285.25 168.726563 286.050781 C 169.121094 286.851563 169.320313 287.695313 169.320313 288.597656 C 169.320313 289.621094 169.121094 290.558594 168.734375 291.414063 C 168.339844 292.265625 167.773438 292.886719 167.027344 293.273438 C 168.332031 293.820313 169.082031 295.351563 169.273438 297.867188 L 169.429688 299.84375 C 169.472656 300.851563 169.605469 301.519531 169.828125 301.847656 L 165.160156 301.847656 C 165 301.371094 164.875 300.441406 164.789063 299.0625 C 164.71875 298.164063 164.617188 297.464844 164.488281 296.957031 C 164.355469 296.453125 164.109375 296.054688 163.75 295.757813 C 163.398438 295.460938 162.878906 295.308594 162.195313 295.308594 L 160.136719 295.308594 L 160.136719 301.847656 Z M 160.136719 287.59375 L 160.136719 291.378906 L 162.777344 291.378906 C 164.101563 291.378906 164.765625 290.703125 164.765625 289.347656 C 164.765625 288.179688 164.019531 287.59375 162.523438 287.59375 Z M 184.664063 283.28125 L 184.664063 287.707031 L 176.441406 287.707031 L 176.441406 290.210938 L 183.902344 290.210938 L 183.902344 294.332031 L 176.441406 294.332031 L 176.441406 297.253906 L 184.875 297.253906 L 184.875 301.847656 L 171.886719 301.847656 L 171.886719 283.28125 Z M 198.957031 283.28125 L 198.957031 287.902344 L 191.722656 287.902344 L 191.722656 290.878906 L 197.964844 290.878906 L 197.964844 295.167969 L 191.722656 295.167969 L 191.722656 301.847656 L 187.03125 301.847656 L 187.03125 283.28125 Z M 213.429688 283.28125 L 213.429688 287.707031 L 205.203125 287.707031 L 205.203125 290.210938 L 212.664063 290.210938 L 212.664063 294.332031 L 205.203125 294.332031 L 205.203125 297.253906 L 213.636719 297.253906 L 213.636719 301.847656 L 200.648438 301.847656 L 200.648438 283.28125 Z M 215.808594 301.847656 L 215.808594 283.28125 L 223.671875 283.28125 C 225.324219 283.28125 226.578125 283.578125 227.441406 284.171875 C 228.101563 284.625 228.628906 285.25 229.019531 286.050781 C 229.417969 286.851563 229.613281 287.695313 229.613281 288.597656 C 229.613281 289.621094 229.417969 290.558594 229.027344 291.414063 C 228.636719 292.265625 228.070313 292.886719 227.320313 293.273438 C 228.628906 293.820313 229.375 295.351563 229.570313 297.867188 L 229.726563 299.84375 C 229.769531 300.851563 229.898438 301.519531 230.125 301.847656 L 225.457031 301.847656 C 225.296875 301.371094 225.167969 300.441406 225.082031 299.0625 C 225.015625 298.164063 224.914063 297.464844 224.78125 296.957031 C 224.652344 296.453125 224.40625 296.054688 224.046875 295.757813 C 223.691406 295.460938 223.171875 295.308594 222.492188 295.308594 L 220.433594 295.308594 L 220.433594 301.847656 Z M 220.433594 287.59375 L 220.433594 291.378906 L 223.070313 291.378906 C 224.398438 291.378906 225.0625 290.703125 225.0625 289.347656 C 225.0625 288.179688 224.3125 287.59375 222.816406 287.59375 Z M 244.960938 283.28125 L 244.960938 287.707031 L 236.734375 287.707031 L 236.734375 290.210938 L 244.199219 290.210938 L 244.199219 294.332031 L 236.734375 294.332031 L 236.734375 297.253906 L 245.167969 297.253906 L 245.167969 301.847656 L 232.179688 301.847656 L 232.179688 283.28125 Z M 242.457031 281.753906 L 239.472656 281.753906 L 238.414063 279.773438 L 237.402344 281.753906 L 234.4375 281.753906 L 236.773438 277.796875 L 240.167969 277.796875 Z M 261.238281 283.28125 L 261.238281 301.847656 L 256.730469 301.847656 L 251.878906 291.714844 L 251.878906 301.847656 L 247.324219 301.847656 L 247.324219 283.28125 L 251.996094 283.28125 L 256.6875 293.191406 L 256.6875 283.28125 Z M 278.027344 290.15625 L 273.425781 290.15625 C 273.308594 289.316406 273.027344 288.660156 272.578125 288.1875 C 272.132813 287.714844 271.542969 287.480469 270.8125 287.480469 C 269.824219 287.480469 269.109375 287.992188 268.664063 289.019531 C 268.21875 290.042969 267.996094 291.222656 267.996094 292.550781 C 267.996094 293.378906 268.085938 294.183594 268.277344 294.957031 C 268.464844 295.734375 268.78125 296.378906 269.21875 296.898438 C 269.660156 297.417969 270.230469 297.675781 270.929688 297.675781 C 271.679688 297.675781 272.261719 297.390625 272.667969 296.820313 C 273.078125 296.242188 273.328125 295.492188 273.425781 294.554688 L 278.125 294.554688 C 278.039063 296.097656 277.679688 297.464844 277.050781 298.648438 C 276.414063 299.824219 275.574219 300.734375 274.527344 301.371094 C 273.480469 302.003906 272.3125 302.324219 271.023438 302.324219 C 270.128906 302.324219 269.230469 302.144531 268.328125 301.789063 C 267.429688 301.425781 266.585938 300.855469 265.808594 300.070313 C 265.03125 299.292969 264.40625 298.273438 263.9375 297.019531 C 263.46875 295.765625 263.230469 294.292969 263.230469 292.605469 C 263.230469 291.285156 263.417969 290.019531 263.789063 288.824219 C 264.164063 287.628906 264.691406 286.582031 265.375 285.6875 C 266.054688 284.792969 266.871094 284.09375 267.820313 283.585938 C 268.769531 283.082031 269.804688 282.828125 270.929688 282.828125 C 272.253906 282.828125 273.371094 283.097656 274.28125 283.636719 C 275.195313 284.171875 275.910156 284.835938 276.421875 285.621094 C 276.933594 286.410156 277.3125 287.199219 277.554688 287.988281 C 277.792969 288.777344 277.949219 289.5 278.027344 290.15625 Z M 284.597656 301.847656 L 279.90625 301.847656 L 279.90625 283.28125 L 284.597656 283.28125 Z M 296.128906 283.28125 L 301.816406 301.847656 L 297.007813 301.847656 L 296.269531 299.230469 L 291.296875 299.230469 L 290.558594 301.847656 L 285.773438 301.847656 L 291.460938 283.28125 Z M 295.296875 295.246094 L 293.820313 288.964844 L 292.199219 295.246094 Z M 17.234375 309.234375 L 24.128906 309.234375 C 26.402344 309.234375 28.203125 309.957031 29.53125 311.402344 C 30.324219 312.242188 30.917969 313.285156 31.316406 314.535156 C 31.714844 315.789063 31.914063 317.09375 31.914063 318.449219 C 31.914063 321.550781 31.183594 323.9375 29.71875 325.597656 C 29.214844 326.167969 28.664063 326.617188 28.058594 326.945313 C 27.453125 327.273438 26.824219 327.496094 26.171875 327.617188 C 25.523438 327.742188 24.808594 327.800781 24.035156 327.800781 L 17.234375 327.800781 Z M 21.859375 313.855469 L 21.859375 323.207031 L 23.726563 323.207031 C 24.792969 323.207031 25.613281 322.855469 26.179688 322.15625 C 26.828125 321.296875 27.152344 320.054688 27.152344 318.425781 C 27.152344 317.644531 27.023438 316.902344 26.765625 316.203125 C 26.507813 315.503906 26.132813 314.960938 25.644531 314.574219 C 25.054688 314.097656 24.269531 313.855469 23.289063 313.855469 Z M 41.875 309.234375 L 47.5625 327.800781 L 42.753906 327.800781 L 42.011719 325.183594 L 37.042969 325.183594 L 36.300781 327.800781 L 31.515625 327.800781 L 37.203125 309.234375 Z M 41.042969 321.199219 L 39.566406 314.917969 L 37.945313 321.199219 Z M 64.78125 309.234375 L 70.46875 327.800781 L 65.660156 327.800781 L 64.917969 325.183594 L 59.949219 325.183594 L 59.207031 327.800781 L 54.421875 327.800781 L 60.109375 309.234375 Z M 63.949219 321.199219 L 62.472656 314.917969 L 60.851563 321.199219 Z M 83.6875 314.886719 L 79.246094 314.886719 C 79.238281 314.21875 79.058594 313.714844 78.722656 313.386719 C 78.386719 313.050781 77.9375 312.886719 77.371094 312.886719 C 76.296875 312.886719 75.757813 313.359375 75.757813 314.300781 C 75.757813 314.644531 75.902344 314.914063 76.195313 315.109375 C 76.488281 315.304688 77.027344 315.515625 77.8125 315.746094 C 78.597656 315.984375 79.003906 316.105469 79.035156 316.113281 C 80.191406 316.503906 81.125 316.898438 81.835938 317.296875 C 82.550781 317.691406 83.140625 318.285156 83.605469 319.070313 C 84.070313 319.855469 84.308594 320.890625 84.308594 322.179688 C 84.308594 323.550781 83.980469 324.695313 83.320313 325.597656 C 82.660156 326.503906 81.804688 327.167969 80.757813 327.589844 C 79.714844 328.007813 78.601563 328.214844 77.421875 328.214844 C 76.203125 328.214844 75.078125 327.972656 74.046875 327.492188 C 73.019531 327.007813 72.1875 326.265625 71.5625 325.265625 C 70.933594 324.257813 70.613281 323.019531 70.597656 321.535156 L 75.339844 321.535156 C 75.382813 322.359375 75.613281 322.980469 76.027344 323.394531 C 76.441406 323.808594 76.996094 324.015625 77.699219 324.015625 C 78.300781 324.015625 78.777344 323.914063 79.132813 323.714844 C 79.488281 323.511719 79.664063 323.113281 79.664063 322.511719 C 79.664063 322.207031 79.542969 321.933594 79.304688 321.691406 C 79.066406 321.449219 78.78125 321.25 78.449219 321.089844 C 78.121094 320.929688 77.773438 320.792969 77.414063 320.671875 C 77.054688 320.554688 76.769531 320.460938 76.566406 320.390625 C 75.53125 320.015625 74.765625 319.722656 74.277344 319.515625 C 73.789063 319.3125 73.296875 319 72.800781 318.59375 C 72.308594 318.179688 71.917969 317.652344 71.628906 317.003906 C 71.34375 316.359375 71.203125 315.554688 71.203125 314.578125 C 71.203125 313.1875 71.53125 312.0625 72.183594 311.207031 C 72.839844 310.351563 73.648438 309.742188 74.613281 309.386719 C 75.574219 309.03125 76.535156 308.847656 77.492188 308.847656 C 78.34375 308.847656 79.136719 308.960938 79.863281 309.183594 C 80.59375 309.410156 81.238281 309.761719 81.8125 310.246094 C 82.382813 310.726563 82.835938 311.355469 83.167969 312.128906 C 83.496094 312.898438 83.671875 313.816406 83.6875 314.886719 Z M 98.296875 314.886719 L 93.859375 314.886719 C 93.847656 314.21875 93.667969 313.714844 93.335938 313.386719 C 93 313.050781 92.546875 312.886719 91.980469 312.886719 C 90.90625 312.886719 90.367188 313.359375 90.367188 314.300781 C 90.367188 314.644531 90.515625 314.914063 90.808594 315.109375 C 91.101563 315.304688 91.640625 315.515625 92.421875 315.746094 C 93.207031 315.984375 93.617188 316.105469 93.648438 316.113281 C 94.800781 316.503906 95.734375 316.898438 96.449219 317.296875 C 97.160156 317.691406 97.75 318.285156 98.214844 319.070313 C 98.683594 319.855469 98.917969 320.890625 98.917969 322.179688 C 98.917969 323.550781 98.589844 324.695313 97.929688 325.597656 C 97.273438 326.503906 96.417969 327.167969 95.367188 327.589844 C 94.324219 328.007813 93.210938 328.214844 92.03125 328.214844 C 90.816406 328.214844 89.691406 327.972656 88.65625 327.492188 C 87.628906 327.007813 86.800781 326.265625 86.171875 325.265625 C 85.542969 324.257813 85.222656 323.019531 85.207031 321.535156 L 89.953125 321.535156 C 89.992188 322.359375 90.226563 322.980469 90.636719 323.394531 C 91.054688 323.808594 91.609375 324.015625 92.308594 324.015625 C 92.910156 324.015625 93.386719 323.914063 93.742188 323.714844 C 94.097656 323.511719 94.273438 323.113281 94.273438 322.511719 C 94.273438 322.207031 94.15625 321.933594 93.917969 321.691406 C 93.675781 321.449219 93.394531 321.25 93.0625 321.089844 C 92.730469 320.929688 92.382813 320.792969 92.023438 320.671875 C 91.667969 320.554688 91.382813 320.460938 91.175781 320.390625 C 90.140625 320.015625 89.378906 319.722656 88.886719 319.515625 C 88.398438 319.3125 87.910156 319 87.414063 318.59375 C 86.917969 318.179688 86.53125 317.652344 86.242188 317.003906 C 85.957031 316.359375 85.8125 315.554688 85.8125 314.578125 C 85.8125 313.1875 86.140625 312.0625 86.796875 311.207031 C 87.449219 310.351563 88.261719 309.742188 89.222656 309.386719 C 90.1875 309.03125 91.144531 308.847656 92.101563 308.847656 C 92.953125 308.847656 93.746094 308.960938 94.476563 309.183594 C 95.203125 309.410156 95.851563 309.761719 96.425781 310.246094 C 96.996094 310.726563 97.445313 311.355469 97.777344 312.128906 C 98.109375 312.898438 98.28125 313.816406 98.296875 314.886719 Z M 105.53125 327.800781 L 100.84375 327.800781 L 100.84375 309.234375 L 105.53125 309.234375 Z M 120.230469 314.886719 L 115.792969 314.886719 C 115.78125 314.21875 115.605469 313.714844 115.269531 313.386719 C 114.933594 313.050781 114.484375 312.886719 113.917969 312.886719 C 112.84375 312.886719 112.304688 313.359375 112.304688 314.300781 C 112.304688 314.644531 112.449219 314.914063 112.742188 315.109375 C 113.035156 315.304688 113.574219 315.515625 114.355469 315.746094 C 115.140625 315.984375 115.550781 316.105469 115.582031 316.113281 C 116.738281 316.503906 117.671875 316.898438 118.382813 317.296875 C 119.09375 317.691406 119.683594 318.285156 120.152344 319.070313 C 120.617188 319.855469 120.851563 320.890625 120.851563 322.179688 C 120.851563 323.550781 120.523438 324.695313 119.867188 325.597656 C 119.207031 326.503906 118.351563 327.167969 117.304688 327.589844 C 116.261719 328.007813 115.144531 328.214844 113.96875 328.214844 C 112.75 328.214844 111.625 327.972656 110.59375 327.492188 C 109.5625 327.007813 108.734375 326.265625 108.105469 325.265625 C 107.480469 324.257813 107.160156 323.019531 107.144531 321.535156 L 111.886719 321.535156 C 111.929688 322.359375 112.160156 322.980469 112.574219 323.394531 C 112.988281 323.808594 113.542969 324.015625 114.246094 324.015625 C 114.84375 324.015625 115.324219 323.914063 115.679688 323.714844 C 116.03125 323.511719 116.210938 323.113281 116.210938 322.511719 C 116.210938 322.207031 116.089844 321.933594 115.851563 321.691406 C 115.613281 321.449219 115.328125 321.25 114.996094 321.089844 C 114.664063 320.929688 114.316406 320.792969 113.960938 320.671875 C 113.601563 320.554688 113.316406 320.460938 113.113281 320.390625 C 112.074219 320.015625 111.3125 319.722656 110.824219 319.515625 C 110.332031 319.3125 109.84375 319 109.347656 318.59375 C 108.855469 318.179688 108.464844 317.652344 108.175781 317.003906 C 107.890625 316.359375 107.75 315.554688 107.75 314.578125 C 107.75 313.1875 108.074219 312.0625 108.730469 311.207031 C 109.386719 310.351563 110.195313 309.742188 111.15625 309.386719 C 112.121094 309.03125 113.082031 308.847656 114.035156 308.847656 C 114.886719 308.847656 115.683594 308.960938 116.410156 309.183594 C 117.136719 309.410156 117.785156 309.761719 118.359375 310.246094 C 118.929688 310.726563 119.378906 311.355469 119.710938 312.128906 C 120.042969 312.898438 120.21875 313.816406 120.230469 314.886719 Z M 134.726563 309.234375 L 134.726563 314.054688 L 130.425781 314.054688 L 130.425781 327.800781 L 125.710938 327.800781 L 125.710938 314.054688 L 121.390625 314.054688 L 121.390625 309.234375 Z M 149.652344 309.234375 L 149.652344 313.660156 L 141.429688 313.660156 L 141.429688 316.164063 L 148.890625 316.164063 L 148.890625 320.285156 L 141.429688 320.285156 L 141.429688 323.207031 L 149.863281 323.207031 L 149.863281 327.800781 L 136.875 327.800781 L 136.875 309.234375 Z M 147.148438 307.707031 L 144.167969 307.707031 L 143.105469 305.726563 L 142.09375 307.707031 L 139.132813 307.707031 L 141.464844 303.75 L 144.859375 303.75 Z M 165.933594 309.234375 L 165.933594 327.800781 L 161.425781 327.800781 L 156.570313 317.667969 L 156.570313 327.800781 L 152.015625 327.800781 L 152.015625 309.234375 L 156.6875 309.234375 L 161.378906 319.144531 L 161.378906 309.234375 Z M 182.71875 316.109375 L 178.121094 316.109375 C 178 315.269531 177.71875 314.617188 177.273438 314.144531 C 176.824219 313.667969 176.234375 313.433594 175.503906 313.433594 C 174.515625 313.433594 173.800781 313.949219 173.355469 314.972656 C 172.910156 316 172.6875 317.175781 172.6875 318.503906 C 172.6875 319.335938 172.78125 320.136719 172.96875 320.910156 C 173.15625 321.6875 173.472656 322.332031 173.910156 322.851563 C 174.351563 323.371094 174.921875 323.632813 175.621094 323.632813 C 176.371094 323.632813 176.953125 323.34375 177.359375 322.773438 C 177.769531 322.199219 178.019531 321.445313 178.121094 320.507813 L 182.816406 320.507813 C 182.730469 322.054688 182.375 323.417969 181.742188 324.601563 C 181.105469 325.78125 180.265625 326.6875 179.222656 327.324219 C 178.171875 327.960938 177.007813 328.28125 175.714844 328.28125 C 174.820313 328.28125 173.921875 328.097656 173.023438 327.742188 C 172.121094 327.378906 171.277344 326.808594 170.503906 326.023438 C 169.722656 325.246094 169.101563 324.230469 168.628906 322.972656 C 168.160156 321.71875 167.925781 320.25 167.925781 318.558594 C 167.925781 317.238281 168.109375 315.976563 168.484375 314.777344 C 168.855469 313.582031 169.386719 312.539063 170.066406 311.640625 C 170.75 310.746094 171.566406 310.046875 172.515625 309.539063 C 173.460938 309.035156 174.496094 308.785156 175.621094 308.785156 C 176.945313 308.785156 178.0625 309.054688 178.976563 309.589844 C 179.886719 310.125 180.601563 310.789063 181.113281 311.578125 C 181.625 312.367188 182.003906 313.15625 182.246094 313.941406 C 182.484375 314.730469 182.644531 315.457031 182.71875 316.109375 Z M 189.289063 327.800781 L 184.601563 327.800781 L 184.601563 309.234375 L 189.289063 309.234375 Z M 200.820313 309.234375 L 206.507813 327.800781 L 201.699219 327.800781 L 200.960938 325.183594 L 195.988281 325.183594 L 195.25 327.800781 L 190.464844 327.800781 L 196.152344 309.234375 Z M 199.988281 321.199219 L 198.511719 314.917969 L 196.890625 321.199219 Z M 226.894531 314.886719 L 222.457031 314.886719 C 222.445313 314.21875 222.265625 313.714844 221.933594 313.386719 C 221.597656 313.050781 221.144531 312.886719 220.578125 312.886719 C 219.503906 312.886719 218.964844 313.359375 218.964844 314.300781 C 218.964844 314.644531 219.113281 314.914063 219.402344 315.109375 C 219.695313 315.304688 220.238281 315.515625 221.019531 315.746094 C 221.804688 315.984375 222.214844 316.105469 222.242188 316.113281 C 223.398438 316.503906 224.332031 316.898438 225.042969 317.296875 C 225.757813 317.691406 226.347656 318.285156 226.8125 319.070313 C 227.28125 319.855469 227.515625 320.890625 227.515625 322.179688 C 227.515625 323.550781 227.1875 324.695313 226.527344 325.597656 C 225.871094 326.503906 225.015625 327.167969 223.964844 327.589844 C 222.921875 328.007813 221.808594 328.214844 220.628906 328.214844 C 219.410156 328.214844 218.285156 327.972656 217.253906 327.492188 C 216.226563 327.007813 215.398438 326.265625 214.769531 325.265625 C 214.140625 324.257813 213.820313 323.019531 213.804688 321.535156 L 218.546875 321.535156 C 218.589844 322.359375 218.824219 322.980469 219.234375 323.394531 C 219.652344 323.808594 220.207031 324.015625 220.90625 324.015625 C 221.507813 324.015625 221.984375 323.914063 222.339844 323.714844 C 222.695313 323.511719 222.871094 323.113281 222.871094 322.511719 C 222.871094 322.207031 222.753906 321.933594 222.511719 321.691406 C 222.273438 321.449219 221.988281 321.25 221.660156 321.089844 C 221.328125 320.929688 220.980469 320.792969 220.621094 320.671875 C 220.261719 320.554688 219.976563 320.460938 219.773438 320.390625 C 218.738281 320.015625 217.976563 319.722656 217.484375 319.515625 C 216.996094 319.3125 216.507813 319 216.007813 318.59375 C 215.515625 318.179688 215.128906 317.652344 214.839844 317.003906 C 214.554688 316.359375 214.410156 315.554688 214.410156 314.578125 C 214.410156 313.1875 214.738281 312.0625 215.394531 311.207031 C 216.046875 310.351563 216.859375 309.742188 217.820313 309.386719 C 218.785156 309.03125 219.742188 308.847656 220.699219 308.847656 C 221.550781 308.847656 222.34375 308.960938 223.070313 309.183594 C 223.800781 309.410156 224.449219 309.761719 225.023438 310.246094 C 225.59375 310.726563 226.042969 311.355469 226.375 312.128906 C 226.707031 312.898438 226.878906 313.816406 226.894531 314.886719 Z M 236.714844 308.785156 C 237.875 308.785156 238.929688 309.023438 239.882813 309.511719 C 240.832031 309.996094 241.644531 310.679688 242.316406 311.5625 C 242.992188 312.449219 243.503906 313.484375 243.863281 314.675781 C 244.21875 315.867188 244.394531 317.152344 244.394531 318.53125 C 244.394531 319.957031 244.214844 321.261719 243.851563 322.453125 C 243.492188 323.640625 242.96875 324.671875 242.28125 325.542969 C 241.59375 326.414063 240.761719 327.09375 239.785156 327.566406 C 238.8125 328.042969 237.738281 328.28125 236.554688 328.28125 C 235.40625 328.28125 234.3125 328.015625 233.261719 327.480469 C 232.21875 326.949219 231.335938 326.171875 230.609375 325.15625 C 229.988281 324.269531 229.527344 323.253906 229.222656 322.113281 C 228.917969 320.972656 228.761719 319.789063 228.761719 318.558594 C 228.761719 317.113281 228.949219 315.789063 229.316406 314.59375 C 229.683594 313.394531 230.21875 312.359375 230.921875 311.488281 C 231.617188 310.621094 232.460938 309.953125 233.445313 309.484375 C 234.429688 309.015625 235.519531 308.785156 236.714844 308.785156 Z M 236.671875 313.433594 C 235.570313 313.433594 234.769531 313.933594 234.273438 314.929688 C 233.777344 315.933594 233.527344 317.148438 233.527344 318.585938 C 233.527344 319.996094 233.777344 321.191406 234.28125 322.164063 C 234.78125 323.144531 235.578125 323.632813 236.671875 323.632813 C 237.398438 323.632813 237.980469 323.378906 238.425781 322.875 C 238.871094 322.367188 239.179688 321.726563 239.363281 320.953125 C 239.542969 320.183594 239.632813 319.359375 239.632813 318.476563 C 239.632813 316.867188 239.378906 315.628906 238.871094 314.773438 C 238.34375 313.878906 237.613281 313.433594 236.671875 313.433594 Z M 260.527344 316.109375 L 255.925781 316.109375 C 255.808594 315.269531 255.527344 314.617188 255.078125 314.144531 C 254.632813 313.667969 254.042969 313.433594 253.3125 313.433594 C 252.324219 313.433594 251.609375 313.949219 251.164063 314.972656 C 250.71875 316 250.496094 317.175781 250.496094 318.503906 C 250.496094 319.335938 250.585938 320.136719 250.777344 320.910156 C 250.964844 321.6875 251.28125 322.332031 251.71875 322.851563 C 252.160156 323.371094 252.730469 323.632813 253.429688 323.632813 C 254.175781 323.632813 254.757813 323.34375 255.167969 322.773438 C 255.578125 322.199219 255.828125 321.445313 255.925781 320.507813 L 260.625 320.507813 C 260.539063 322.054688 260.179688 323.417969 259.546875 324.601563 C 258.914063 325.78125 258.074219 326.6875 257.027344 327.324219 C 255.980469 327.960938 254.8125 328.28125 253.523438 328.28125 C 252.628906 328.28125 251.730469 328.097656 250.828125 327.742188 C 249.925781 327.378906 249.085938 326.808594 248.308594 326.023438 C 247.53125 325.246094 246.90625 324.230469 246.4375 322.972656 C 245.964844 321.71875 245.730469 320.25 245.730469 318.558594 C 245.730469 317.238281 245.917969 315.976563 246.289063 314.777344 C 246.664063 313.582031 247.191406 312.539063 247.875 311.640625 C 248.554688 310.746094 249.371094 310.046875 250.320313 309.539063 C 251.269531 309.035156 252.304688 308.785156 253.429688 308.785156 C 254.75 308.785156 255.867188 309.054688 256.78125 309.589844 C 257.695313 310.125 258.40625 310.789063 258.921875 311.578125 C 259.433594 312.367188 259.8125 313.15625 260.054688 313.941406 C 260.292969 314.730469 260.449219 315.457031 260.527344 316.109375 Z M 267.097656 327.800781 L 262.40625 327.800781 L 262.40625 309.234375 L 267.097656 309.234375 Z M 278.628906 309.234375 L 284.316406 327.800781 L 279.507813 327.800781 L 278.765625 325.183594 L 273.796875 325.183594 L 273.058594 327.800781 L 268.273438 327.800781 L 273.957031 309.234375 Z M 277.796875 321.199219 L 276.320313 314.917969 L 274.699219 321.199219 Z M 297.023438 322.980469 L 297.023438 327.800781 L 285.449219 327.800781 L 285.449219 309.234375 L 290.136719 309.234375 L 290.136719 322.980469 Z M 297.023438 322.980469 "/>
    <path style=" stroke:none;fill-rule:evenodd;fill:rgb(10.594177%,9.812927%,9.423828%);fill-opacity:1;" d="M 62.128906 340.902344 L 62.128906 342.632813 L 60.390625 342.632813 L 60.390625 341.269531 C 60.390625 340.527344 60.484375 339.992188 60.679688 339.65625 C 60.933594 339.214844 61.332031 338.882813 61.878906 338.65625 L 62.277344 339.238281 C 61.945313 339.363281 61.703125 339.554688 61.546875 339.804688 C 61.386719 340.054688 61.300781 340.421875 61.285156 340.902344 Z M 65.90625 340.902344 L 65.90625 342.632813 L 64.164063 342.632813 L 64.164063 341.269531 C 64.164063 340.527344 64.261719 339.992188 64.453125 339.65625 C 64.707031 339.214844 65.105469 338.882813 65.652344 338.65625 L 66.050781 339.238281 C 65.71875 339.363281 65.476563 339.554688 65.320313 339.804688 C 65.164063 340.054688 65.078125 340.421875 65.058594 340.902344 Z M 77.984375 346.753906 L 79.738281 347.160156 C 79.371094 348.480469 78.707031 349.488281 77.753906 350.183594 C 76.800781 350.875 75.636719 351.222656 74.253906 351.222656 C 72.828125 351.222656 71.671875 350.957031 70.777344 350.425781 C 69.882813 349.890625 69.203125 349.117188 68.738281 348.105469 C 68.273438 347.09375 68.039063 346.007813 68.039063 344.847656 C 68.039063 343.582031 68.300781 342.480469 68.828125 341.535156 C 69.351563 340.59375 70.101563 339.878906 71.074219 339.390625 C 72.046875 338.898438 73.113281 338.65625 74.28125 338.65625 C 75.609375 338.65625 76.71875 338.964844 77.621094 339.585938 C 78.527344 340.203125 79.15625 341.074219 79.507813 342.195313 L 77.785156 342.570313 C 77.476563 341.683594 77.035156 341.042969 76.449219 340.636719 C 75.867188 340.230469 75.132813 340.03125 74.246094 340.03125 C 73.230469 340.03125 72.382813 340.253906 71.699219 340.703125 C 71.015625 341.152344 70.535156 341.75 70.257813 342.507813 C 69.980469 343.261719 69.84375 344.039063 69.84375 344.839844 C 69.84375 345.875 70.007813 346.773438 70.332031 347.546875 C 70.664063 348.316406 71.171875 348.894531 71.863281 349.277344 C 72.558594 349.65625 73.304688 349.847656 74.113281 349.847656 C 75.09375 349.847656 75.921875 349.585938 76.601563 349.070313 C 77.285156 348.546875 77.742188 347.777344 77.984375 346.753906 Z M 80.4375 351.015625 L 85.523438 338.863281 L 87.410156 338.863281 L 92.824219 351.015625 L 90.828125 351.015625 L 89.285156 347.335938 L 83.75 347.335938 L 82.300781 351.015625 Z M 84.257813 346.023438 L 88.746094 346.023438 L 87.363281 342.660156 C 86.945313 341.636719 86.628906 340.796875 86.425781 340.140625 C 86.257813 340.917969 86.019531 341.691406 85.710938 342.460938 Z M 93.628906 347.109375 L 95.28125 346.976563 C 95.359375 347.585938 95.539063 348.085938 95.828125 348.476563 C 96.113281 348.867188 96.558594 349.179688 97.15625 349.417969 C 97.757813 349.660156 98.4375 349.777344 99.1875 349.777344 C 99.855469 349.777344 100.445313 349.6875 100.957031 349.507813 C 101.46875 349.324219 101.851563 349.074219 102.101563 348.757813 C 102.351563 348.4375 102.476563 348.09375 102.476563 347.714844 C 102.476563 347.335938 102.355469 347.003906 102.113281 346.71875 C 101.871094 346.433594 101.476563 346.195313 100.921875 346 C 100.566406 345.875 99.78125 345.675781 98.566406 345.40625 C 97.351563 345.140625 96.5 344.886719 96.011719 344.648438 C 95.378906 344.347656 94.910156 343.96875 94.597656 343.515625 C 94.289063 343.066406 94.136719 342.5625 94.136719 342.003906 C 94.136719 341.390625 94.324219 340.816406 94.703125 340.285156 C 95.082031 339.75 95.636719 339.347656 96.363281 339.070313 C 97.09375 338.792969 97.902344 338.65625 98.789063 338.65625 C 99.773438 338.65625 100.636719 338.800781 101.386719 339.09375 C 102.136719 339.378906 102.714844 339.808594 103.117188 340.371094 C 103.515625 340.933594 103.734375 341.574219 103.765625 342.285156 L 102.085938 342.402344 C 101.996094 341.636719 101.691406 341.050781 101.167969 340.664063 C 100.648438 340.269531 99.882813 340.074219 98.863281 340.074219 C 97.804688 340.074219 97.035156 340.253906 96.546875 340.609375 C 96.0625 340.964844 95.820313 341.394531 95.820313 341.894531 C 95.820313 342.335938 95.992188 342.695313 96.335938 342.972656 C 96.675781 343.257813 97.550781 343.546875 98.976563 343.839844 C 100.398438 344.136719 101.375 344.394531 101.90625 344.613281 C 102.675781 344.945313 103.246094 345.355469 103.613281 345.855469 C 103.980469 346.355469 104.160156 346.933594 104.160156 347.582031 C 104.160156 348.230469 103.960938 348.839844 103.558594 349.410156 C 103.152344 349.984375 102.574219 350.425781 101.820313 350.746094 C 101.066406 351.0625 100.214844 351.222656 99.273438 351.222656 C 98.074219 351.222656 97.066406 351.0625 96.261719 350.742188 C 95.449219 350.421875 94.816406 349.941406 94.355469 349.296875 C 93.894531 348.652344 93.652344 347.921875 93.628906 347.109375 Z M 105.101563 351.015625 L 110.183594 338.863281 L 112.070313 338.863281 L 117.488281 351.015625 L 115.492188 351.015625 L 113.945313 347.335938 L 108.414063 347.335938 L 106.960938 351.015625 Z M 108.917969 346.023438 L 113.40625 346.023438 L 112.023438 342.660156 C 111.605469 341.636719 111.292969 340.796875 111.085938 340.140625 C 110.917969 340.917969 110.679688 341.691406 110.371094 342.460938 Z M 123.003906 351.015625 L 123.003906 338.863281 L 127.558594 338.863281 C 128.589844 338.863281 129.375 338.921875 129.917969 339.039063 C 130.675781 339.195313 131.324219 339.488281 131.859375 339.90625 C 132.554688 340.449219 133.078125 341.140625 133.421875 341.984375 C 133.773438 342.828125 133.945313 343.789063 133.945313 344.871094 C 133.945313 345.796875 133.828125 346.613281 133.589844 347.324219 C 133.355469 348.039063 133.058594 348.628906 132.6875 349.097656 C 132.320313 349.5625 131.917969 349.933594 131.484375 350.199219 C 131.046875 350.46875 130.519531 350.671875 129.90625 350.808594 C 129.285156 350.949219 128.578125 351.015625 127.777344 351.015625 Z M 124.753906 349.582031 L 127.578125 349.582031 C 128.449219 349.582031 129.136719 349.507813 129.632813 349.359375 C 130.128906 349.207031 130.523438 349 130.820313 348.726563 C 131.234375 348.347656 131.558594 347.832031 131.789063 347.191406 C 132.023438 346.542969 132.140625 345.765625 132.140625 344.847656 C 132.140625 343.578125 131.910156 342.601563 131.457031 341.917969 C 131 341.234375 130.449219 340.777344 129.800781 340.546875 C 129.332031 340.378906 128.574219 340.296875 127.535156 340.296875 L 124.753906 340.296875 Z M 134.898438 351.015625 L 139.984375 338.863281 L 141.871094 338.863281 L 147.285156 351.015625 L 145.289063 351.015625 L 143.746094 347.335938 L 138.210938 347.335938 L 136.761719 351.015625 Z M 138.71875 346.023438 L 143.207031 346.023438 L 141.824219 342.660156 C 141.402344 341.636719 141.089844 340.796875 140.886719 340.140625 C 140.714844 340.917969 140.480469 341.691406 140.171875 342.460938 Z M 148.089844 347.109375 L 149.742188 346.976563 C 149.820313 347.585938 150 348.085938 150.285156 348.476563 C 150.574219 348.867188 151.015625 349.179688 151.617188 349.417969 C 152.21875 349.660156 152.898438 349.777344 153.648438 349.777344 C 154.316406 349.777344 154.90625 349.6875 155.417969 349.507813 C 155.929688 349.324219 156.308594 349.074219 156.558594 348.757813 C 156.808594 348.4375 156.9375 348.09375 156.9375 347.714844 C 156.9375 347.335938 156.816406 347.003906 156.574219 346.71875 C 156.332031 346.433594 155.933594 346.195313 155.382813 346 C 155.027344 345.875 154.242188 345.675781 153.027344 345.40625 C 151.8125 345.140625 150.957031 344.886719 150.472656 344.648438 C 149.839844 344.347656 149.367188 343.96875 149.058594 343.515625 C 148.75 343.066406 148.59375 342.5625 148.59375 342.003906 C 148.59375 341.390625 148.785156 340.816406 149.160156 340.285156 C 149.542969 339.75 150.097656 339.347656 150.824219 339.070313 C 151.554688 338.792969 152.359375 338.65625 153.25 338.65625 C 154.234375 338.65625 155.097656 338.800781 155.847656 339.09375 C 156.597656 339.378906 157.171875 339.808594 157.578125 340.371094 C 157.976563 340.933594 158.195313 341.574219 158.226563 342.285156 L 156.546875 342.402344 C 156.457031 341.636719 156.152344 341.050781 155.628906 340.664063 C 155.109375 340.269531 154.339844 340.074219 153.324219 340.074219 C 152.265625 340.074219 151.496094 340.253906 151.007813 340.609375 C 150.523438 340.964844 150.28125 341.394531 150.28125 341.894531 C 150.28125 342.335938 150.453125 342.695313 150.796875 342.972656 C 151.132813 343.257813 152.011719 343.546875 153.4375 343.839844 C 154.859375 344.136719 155.835938 344.394531 156.367188 344.613281 C 157.136719 344.945313 157.707031 345.355469 158.074219 345.855469 C 158.441406 346.355469 158.621094 346.933594 158.621094 347.582031 C 158.621094 348.230469 158.421875 348.839844 158.019531 349.410156 C 157.613281 349.984375 157.035156 350.425781 156.28125 350.746094 C 155.523438 351.0625 154.675781 351.222656 153.730469 351.222656 C 152.535156 351.222656 151.527344 351.0625 150.722656 350.742188 C 149.910156 350.421875 149.277344 349.941406 148.8125 349.296875 C 148.355469 348.652344 148.113281 347.921875 148.089844 347.109375 Z M 166.242188 351.015625 L 166.242188 338.863281 L 175.171875 338.863281 L 175.171875 340.296875 L 167.996094 340.296875 L 167.996094 344.058594 L 174.203125 344.058594 L 174.203125 345.496094 L 167.996094 345.496094 L 167.996094 351.015625 Z M 174.972656 351.015625 L 180.054688 338.863281 L 181.941406 338.863281 L 187.355469 351.015625 L 185.359375 351.015625 L 183.816406 347.335938 L 178.28125 347.335938 L 176.832031 351.015625 Z M 178.789063 346.023438 L 183.277344 346.023438 L 181.894531 342.660156 C 181.476563 341.636719 181.160156 340.796875 180.957031 340.140625 C 180.789063 340.917969 180.550781 341.691406 180.242188 342.460938 Z M 188.699219 351.015625 L 188.699219 338.863281 L 191.339844 338.863281 L 194.46875 347.46875 C 194.757813 348.269531 194.96875 348.867188 195.101563 349.265625 C 195.25 348.824219 195.484375 348.175781 195.804688 347.316406 L 198.972656 338.863281 L 201.332031 338.863281 L 201.332031 351.015625 L 199.640625 351.015625 L 199.640625 340.84375 L 195.796875 351.015625 L 194.214844 351.015625 L 190.390625 340.671875 L 190.390625 351.015625 Z M 204.453125 338.863281 L 206.203125 338.863281 L 206.203125 351.015625 L 204.453125 351.015625 Z M 204 338.117188 L 205.203125 335.796875 L 207.332031 335.796875 L 205.347656 338.117188 Z M 209.21875 351.015625 L 209.21875 338.863281 L 210.972656 338.863281 L 210.972656 349.582031 L 217.488281 349.582031 L 217.488281 351.015625 Z M 219.871094 338.863281 L 221.625 338.863281 L 221.625 351.015625 L 219.871094 351.015625 Z M 223.257813 351.015625 L 228.339844 338.863281 L 230.226563 338.863281 L 235.640625 351.015625 L 233.644531 351.015625 L 232.101563 347.335938 L 226.570313 347.335938 L 225.117188 351.015625 Z M 227.074219 346.023438 L 231.5625 346.023438 L 230.179688 342.660156 C 229.761719 341.636719 229.445313 340.796875 229.242188 340.140625 C 229.074219 340.917969 228.835938 341.691406 228.527344 342.460938 Z M 236.445313 347.109375 L 238.097656 346.976563 C 238.175781 347.585938 238.355469 348.085938 238.644531 348.476563 C 238.929688 348.867188 239.375 349.179688 239.976563 349.417969 C 240.574219 349.660156 241.253906 349.777344 242.003906 349.777344 C 242.675781 349.777344 243.261719 349.6875 243.773438 349.507813 C 244.285156 349.324219 244.667969 349.074219 244.917969 348.757813 C 245.167969 348.4375 245.292969 348.09375 245.292969 347.714844 C 245.292969 347.335938 245.171875 347.003906 244.929688 346.71875 C 244.6875 346.433594 244.292969 346.195313 243.738281 346 C 243.382813 345.875 242.601563 345.675781 241.382813 345.40625 C 240.167969 345.140625 239.316406 344.886719 238.828125 344.648438 C 238.195313 344.347656 237.726563 343.96875 237.414063 343.515625 C 237.105469 343.066406 236.953125 342.5625 236.953125 342.003906 C 236.953125 341.390625 237.140625 340.816406 237.519531 340.285156 C 237.898438 339.75 238.453125 339.347656 239.179688 339.070313 C 239.910156 338.792969 240.71875 338.65625 241.609375 338.65625 C 242.589844 338.65625 243.453125 338.800781 244.207031 339.09375 C 244.953125 339.378906 245.53125 339.808594 245.933594 340.371094 C 246.335938 340.933594 246.554688 341.574219 246.582031 342.285156 L 244.90625 342.402344 C 244.8125 341.636719 244.507813 341.050781 243.988281 340.664063 C 243.464844 340.269531 242.699219 340.074219 241.683594 340.074219 C 240.621094 340.074219 239.851563 340.253906 239.363281 340.609375 C 238.882813 340.964844 238.636719 341.394531 238.636719 341.894531 C 238.636719 342.335938 238.808594 342.695313 239.152344 342.972656 C 239.492188 343.257813 240.371094 343.546875 241.792969 343.839844 C 243.214844 344.136719 244.191406 344.394531 244.722656 344.613281 C 245.492188 344.945313 246.0625 345.355469 246.429688 345.855469 C 246.796875 346.355469 246.976563 346.933594 246.976563 347.582031 C 246.976563 348.230469 246.777344 348.839844 246.375 349.410156 C 245.972656 349.984375 245.390625 350.425781 244.636719 350.746094 C 243.882813 351.0625 243.03125 351.222656 242.089844 351.222656 C 240.890625 351.222656 239.886719 351.0625 239.078125 350.742188 C 238.265625 350.421875 237.632813 349.941406 237.171875 349.296875 C 236.710938 348.652344 236.46875 347.921875 236.445313 347.109375 Z M 249.0625 340.46875 L 249.0625 338.738281 L 250.808594 338.738281 L 250.808594 340.109375 C 250.808594 340.847656 250.714844 341.382813 250.527344 341.707031 C 250.269531 342.152344 249.867188 342.488281 249.316406 342.714844 L 248.917969 342.128906 C 249.246094 342.007813 249.488281 341.816406 249.648438 341.554688 C 249.808594 341.289063 249.894531 340.929688 249.914063 340.46875 Z M 252.839844 340.46875 L 252.839844 338.738281 L 254.582031 338.738281 L 254.582031 340.109375 C 254.582031 340.847656 254.488281 341.382813 254.300781 341.707031 C 254.042969 342.152344 253.640625 342.488281 253.09375 342.714844 L 252.695313 342.128906 C 253.019531 342.007813 253.261719 341.816406 253.421875 341.554688 C 253.582031 341.289063 253.671875 340.929688 253.6875 340.46875 Z M 252.839844 340.46875 "/>
  </g>
</svg>