<?xml version="1.0" encoding="utf-8"?>
<svg viewBox="87.427 49.58 317.541 343.601" xmlns="http://www.w3.org/2000/svg">
  <defs>
    <linearGradient gradientUnits="userSpaceOnUse" x1="58.71" y1="101.371" x2="58.71" y2="178.504" id="gradient-0">
      <stop offset="0" style="stop-color: rgba(217, 218, 219, 1)"/>
      <stop offset="1" style="stop-color: rgba(165, 167, 169, 1)"/>
    </linearGradient>
    <linearGradient gradientUnits="userSpaceOnUse" x1="193.5" y1="91.844" x2="193.5" y2="179.082" id="gradient-5">
      <stop offset="0" style="stop-color: rgba(217, 218, 219, 1)"/>
      <stop offset="1" style="stop-color: rgba(165, 167, 169, 1)"/>
    </linearGradient>
    <linearGradient gradientUnits="userSpaceOnUse" x1="160.127" y1="78.809" x2="160.127" y2="177.195" id="gradient-4">
      <stop offset="0" style="stop-color: rgba(217, 218, 219, 1)"/>
      <stop offset="1" style="stop-color: rgba(165, 167, 169, 1)"/>
    </linearGradient>
    <linearGradient gradientUnits="userSpaceOnUse" x1="100.537" y1="121.137" x2="100.537" y2="179.289" id="gradient-1">
      <stop offset="0" style="stop-color: rgba(217, 218, 219, 1)"/>
      <stop offset="1" style="stop-color: rgba(165, 167, 169, 1)"/>
    </linearGradient>
    <linearGradient gradientUnits="userSpaceOnUse" x1="266.855" y1="87.91" x2="266.855" y2="180.977" id="gradient-2">
      <stop offset="0" style="stop-color: rgba(217, 218, 219, 1)"/>
      <stop offset="1" style="stop-color: rgba(165, 167, 169, 1)"/>
    </linearGradient>
    <linearGradient gradientUnits="userSpaceOnUse" x1="228.599" y1="76.414" x2="228.599" y2="178.766" id="gradient-6">
      <stop offset="0" style="stop-color: rgba(217, 218, 219, 1)"/>
      <stop offset="1" style="stop-color: rgba(165, 167, 169, 1)"/>
    </linearGradient>
    <linearGradient gradientUnits="userSpaceOnUse" x1="124.919" y1="84.758" x2="124.919" y2="179.395" id="gradient-3">
      <stop offset="0" style="stop-color: rgba(217, 218, 219, 1)"/>
      <stop offset="1" style="stop-color: rgba(165, 167, 169, 1)"/>
    </linearGradient>
    <clipPath id="clip1">
      <path d="M 0 186 L 317.199219 186 L 317.199219 257 L 0 257 Z M 0 186 "/>
    </clipPath>
    <linearGradient gradientUnits="userSpaceOnUse" x1="158.639" y1="186.68" x2="158.639" y2="256.461" id="gradient-8">
      <stop offset="0" style="stop-color: rgba(217, 218, 219, 1)"/>
      <stop offset="1" style="stop-color: rgba(165, 167, 169, 1)"/>
    </linearGradient>
    <linearGradient gradientUnits="userSpaceOnUse" x1="156.909" y1="-0.051" x2="156.909" y2="82.358" id="gradient-7">
      <stop offset="0" style="stop-color: rgba(217, 218, 219, 1)"/>
      <stop offset="1" style="stop-color: rgba(165, 167, 169, 1)"/>
    </linearGradient>
  </defs>
  <g id="surface1" transform="matrix(1, 0, 0, 1, 87.577866, 50.05542)">
    <path style="stroke: none; fill-rule: evenodd; fill-opacity: 1; fill: url(#gradient-0);" d="M 52.867188 115.859375 L 52.753906 115.859375 C 49.585938 115.859375 46.992188 118.449219 46.992188 121.617188 L 46.992188 144.425781 C 46.992188 147.375 49.238281 149.824219 52.101563 150.148438 L 52.101563 150.1875 L 75.6875 150.1875 L 76.742188 150.226563 C 76.742188 150.226563 82.71875 158.296875 83.425781 159.59375 C 84.132813 160.894531 85.507813 161.523438 87.15625 160.421875 C 88.808594 159.320313 87.550781 156.996094 87.550781 156.996094 C 87.550781 156.996094 79.613281 145.34375 78.195313 143.335938 C 76.78125 141.328125 76.113281 141.800781 75.6875 141.683594 L 58.628906 141.683594 L 58.628906 134.316406 C 58.675781 134.320313 58.726563 134.320313 58.777344 134.320313 L 73.246094 134.320313 C 74.605469 134.320313 75.71875 133.207031 75.71875 131.847656 L 75.71875 131.796875 C 75.71875 130.4375 74.605469 129.324219 73.246094 129.324219 L 58.777344 129.324219 C 58.726563 129.324219 58.675781 129.324219 58.628906 129.328125 L 58.628906 121.617188 C 58.628906 118.449219 56.035156 115.859375 52.867188 115.859375 Z M 55.191406 178.503906 C 67.027344 178.503906 77 170.464844 80.027344 159.511719 C 78.527344 157.089844 75.175781 152.523438 75.175781 152.523438 C 75.175781 163.644531 66.226563 172.664063 55.191406 172.664063 C 44.15625 172.664063 35.207031 163.644531 35.207031 152.523438 C 35.207031 146.015625 38.273438 140.226563 43.03125 136.546875 L 43.289063 129.476563 C 35.042969 133.808594 29.410156 142.503906 29.410156 152.523438 C 29.410156 166.871094 40.957031 178.503906 55.191406 178.503906 Z M 52.8125 114.207031 C 56.328125 114.207031 59.179688 111.332031 59.179688 107.789063 C 59.179688 104.246094 56.328125 101.371094 52.8125 101.371094 C 49.292969 101.371094 46.445313 104.246094 46.445313 107.789063 C 46.445313 111.332031 49.292969 114.207031 52.8125 114.207031 Z M 52.8125 114.207031 "/>
    <path style="stroke: none; fill-rule: evenodd; fill-opacity: 1; fill: url(#gradient-5);" d="M 192.410156 147.273438 L 192.410156 175.773438 C 192.410156 177.59375 191.011719 179.082031 189.304688 179.082031 L 189.242188 179.082031 C 187.53125 179.082031 186.132813 177.59375 186.132813 175.773438 L 186.132813 119.273438 C 185.164063 119.511719 184.277344 119.9375 183.855469 120.660156 L 183.855469 142.933594 C 183.855469 144.453125 182.609375 145.699219 181.089844 145.699219 L 181.035156 145.699219 C 179.515625 145.699219 178.273438 144.453125 178.273438 142.933594 L 178.273438 117.753906 C 178.273438 117.628906 178.28125 117.503906 178.296875 117.382813 C 178.375 116.300781 178.621094 113.359375 179.292969 112.078125 C 180.082031 110.582031 184.402344 109.640625 186.132813 109.640625 L 200.867188 109.640625 C 202.597656 109.640625 206.917969 110.582031 207.707031 112.078125 C 208.378906 113.359375 208.625 116.300781 208.703125 117.382813 C 208.71875 117.503906 208.726563 117.628906 208.726563 117.753906 L 208.726563 142.933594 C 208.726563 144.453125 207.484375 145.699219 205.964844 145.699219 L 205.910156 145.699219 C 204.390625 145.699219 203.144531 144.453125 203.144531 142.933594 L 203.144531 120.660156 C 202.722656 119.9375 201.839844 119.511719 200.867188 119.273438 L 200.867188 175.773438 C 200.867188 177.59375 199.46875 179.082031 197.757813 179.082031 L 197.695313 179.082031 C 195.988281 179.082031 194.589844 177.59375 194.589844 175.773438 L 194.589844 147.273438 Z M 193.5 107.039063 C 197.6875 107.039063 201.085938 103.636719 201.085938 99.441406 C 201.085938 95.246094 197.6875 91.84375 193.5 91.84375 C 189.3125 91.84375 185.914063 95.246094 185.914063 99.441406 C 185.914063 103.636719 189.3125 107.039063 193.5 107.039063 Z M 193.5 107.039063 "/>
    <path style="stroke: none; fill-rule: evenodd; fill-opacity: 1; fill: url(#gradient-4);" d="M 169.003906 138.265625 L 169.003906 173.363281 C 169.003906 175.472656 167.046875 177.195313 164.65625 177.195313 L 164.570313 177.195313 C 162.179688 177.195313 160.222656 175.472656 160.222656 173.363281 L 160.222656 140.359375 L 160.03125 140.359375 L 160.03125 173.363281 C 160.03125 175.472656 158.074219 177.195313 155.683594 177.195313 L 155.597656 177.195313 C 153.207031 177.195313 151.25 175.472656 151.25 173.363281 L 151.25 132.839844 C 150.59375 133.199219 149.765625 133.414063 148.871094 133.414063 L 148.792969 133.414063 C 146.652344 133.414063 144.898438 132.183594 144.898438 130.675781 L 144.898438 105.71875 C 144.898438 105.558594 144.917969 105.402344 144.957031 105.246094 C 145.0625 103.75 145.324219 100.921875 145.921875 99.605469 C 146.53125 98.265625 149.25 97.308594 151.25 96.945313 L 151.25 96.78125 L 169.003906 96.78125 L 169.003906 96.945313 C 171.003906 97.308594 173.726563 98.265625 174.332031 99.605469 C 174.929688 100.917969 175.191406 103.75 175.296875 105.246094 C 175.335938 105.398438 175.355469 105.558594 175.355469 105.71875 L 175.355469 130.675781 C 175.355469 132.183594 173.605469 133.414063 171.464844 133.414063 L 171.386719 133.414063 C 170.488281 133.414063 169.660156 133.199219 169.003906 132.839844 Z M 160.128906 94.003906 C 164.316406 94.003906 167.714844 90.601563 167.714844 86.40625 C 167.714844 82.210938 164.316406 78.808594 160.128906 78.808594 C 155.9375 78.808594 152.542969 82.210938 152.542969 86.40625 C 152.542969 90.601563 155.9375 94.003906 160.128906 94.003906 Z M 160.128906 94.003906 "/>
    <path style="stroke: none; fill-rule: evenodd; fill-opacity: 1; fill: url(#gradient-1);" d="M 99.8125 158.085938 L 99.8125 177.082031 C 99.8125 178.296875 98.878906 179.289063 97.742188 179.289063 L 97.699219 179.289063 C 96.558594 179.289063 95.625 178.296875 95.625 177.082031 L 95.625 139.421875 C 94.980469 139.582031 94.390625 139.863281 94.105469 140.347656 L 94.105469 155.195313 C 94.105469 156.207031 93.277344 157.035156 92.265625 157.035156 L 92.230469 157.035156 C 91.214844 157.035156 90.386719 156.207031 90.386719 155.195313 L 90.386719 138.410156 C 90.386719 138.324219 90.394531 138.242188 90.402344 138.160156 C 90.453125 137.4375 90.621094 135.476563 91.066406 134.625 C 91.59375 133.628906 94.472656 133 95.625 133 L 105.449219 133 C 106.601563 133 109.484375 133.628906 110.007813 134.625 C 110.453125 135.476563 110.621094 137.4375 110.671875 138.160156 C 110.683594 138.242188 110.6875 138.324219 110.6875 138.410156 L 110.6875 155.195313 C 110.6875 156.207031 109.859375 157.035156 108.847656 157.035156 L 108.808594 157.035156 C 107.796875 157.035156 106.96875 156.207031 106.96875 155.195313 L 106.96875 140.347656 C 106.6875 139.863281 106.09375 139.582031 105.449219 139.421875 L 105.449219 177.082031 C 105.449219 178.296875 104.515625 179.289063 103.375 179.289063 L 103.335938 179.289063 C 102.195313 179.289063 101.261719 178.296875 101.261719 177.082031 L 101.261719 158.085938 Z M 100.539063 131.265625 C 103.328125 131.265625 105.59375 129 105.59375 126.203125 C 105.59375 123.40625 103.328125 121.136719 100.539063 121.136719 C 97.746094 121.136719 95.480469 123.40625 95.480469 126.203125 C 95.480469 129 97.746094 131.265625 100.539063 131.265625 Z M 100.539063 131.265625 "/>
    <path style="stroke: none; fill-rule: evenodd; fill-opacity: 1; fill: url(#gradient-2);" d="M 263.25 105.273438 C 268.246094 105.273438 272.296875 101.386719 272.296875 96.589844 C 272.296875 91.796875 268.246094 87.910156 263.25 87.910156 C 258.253906 87.910156 254.203125 91.796875 254.203125 96.589844 C 254.203125 101.386719 258.253906 105.273438 263.25 105.273438 Z M 275.023438 110.382813 L 282.273438 130.816406 C 282.273438 130.816406 285.417969 136.957031 285.496094 138.0625 C 285.574219 139.164063 289.113281 156.640625 289.191406 157.902344 C 289.269531 159.160156 291 171.445313 291.3125 172.546875 C 291.628906 173.648438 292.414063 178.84375 292.414063 178.84375 L 280.074219 179.160156 C 280.074219 179.160156 279.367188 176.875 279.757813 176.167969 C 280.152344 175.460938 283.925781 174.199219 284.632813 174.199219 C 285.339844 174.199219 285.652344 173.964844 285.652344 173.964844 L 281.878906 152.3125 L 280.859375 148.058594 C 280.859375 148.058594 278.972656 147.351563 278.105469 148.691406 C 277.242188 150.027344 271.820313 158.136719 271.503906 158.609375 C 271.191406 159.082031 271.191406 178.84375 271.191406 178.84375 L 259.003906 178.449219 C 259.003906 178.449219 258.535156 174.121094 261.207031 173.570313 C 263.878906 173.019531 265.6875 173.097656 265.6875 173.097656 L 265.371094 155.382813 C 265.371094 155.382813 272.816406 145.34375 274.253906 144.515625 C 275.695313 143.691406 276.769531 140.894531 276.769531 140.894531 C 276.769531 140.894531 274.289063 133.335938 273.621094 131.683594 C 272.953125 130.03125 270.988281 126.882813 270.988281 126.882813 L 262.378906 137.589844 C 262.378906 137.589844 264.460938 139.242188 264.699219 141.171875 C 264.933594 143.101563 264.660156 145.148438 264.5 145.855469 C 264.34375 146.5625 263.085938 147.117188 262.457031 146.917969 C 261.828125 146.722656 261.945313 145.109375 261.984375 144.554688 C 262.023438 144.003906 262.144531 141.761719 261.003906 141.605469 C 259.863281 141.445313 260.058594 141.132813 259.46875 141.605469 C 258.878906 142.078125 259 143.0625 258.25 143.296875 C 257.503906 143.53125 255.894531 143.886719 255.695313 143.179688 C 255.5 142.46875 255.34375 141.40625 255.34375 141.40625 C 255.34375 141.40625 253.691406 141.484375 253.261719 142.351563 C 252.828125 143.21875 244.496094 180.027344 244.496094 180.027344 C 244.496094 180.027344 242.648438 181.601563 241.742188 180.695313 C 240.839844 179.789063 241.585938 178.097656 241.585938 178.097656 L 249.09375 144.714844 C 249.09375 144.714844 250.46875 137.707031 254.164063 137.039063 C 257.859375 136.367188 258.683594 136.367188 258.683594 136.367188 L 268.910156 121.289063 C 268.910156 121.289063 265.6875 112.710938 265.453125 111.6875 C 265.242188 110.78125 265.035156 103.679688 271.691406 105.886719 C 273.378906 106.445313 274.480469 108.851563 275.023438 110.382813 Z M 275.023438 110.382813 "/>
    <path style="stroke: none; fill-rule: evenodd; fill-opacity: 1; fill: url(#gradient-6);" d="M 236.449219 92.476563 C 240.964844 92.476563 244.625 88.878906 244.625 84.445313 C 244.625 80.011719 240.964844 76.414063 236.449219 76.414063 C 231.9375 76.414063 228.273438 80.011719 228.273438 84.445313 C 228.273438 88.878906 231.9375 92.476563 236.449219 92.476563 Z M 236.582031 145.570313 C 236.703125 145.996094 236.765625 146.441406 236.765625 146.898438 L 236.765625 173.785156 C 236.765625 176.523438 234.523438 178.765625 231.785156 178.765625 L 231.683594 178.765625 C 228.945313 178.765625 226.703125 176.523438 226.703125 173.785156 L 226.703125 146.898438 C 226.703125 146.546875 226.738281 146.203125 226.808594 145.871094 C 220.238281 146.003906 214.402344 145.925781 214.753906 145.226563 C 215.539063 143.652344 215.699219 141.132813 215.699219 135.304688 C 215.699219 129.480469 213.183594 130.425781 212.554688 122.234375 C 211.925781 114.046875 224.1875 109.953125 223.402344 107.75 C 222.613281 105.542969 225.289063 96.253906 234.09375 95.9375 C 242.894531 95.625 243.527344 102.867188 243.683594 104.601563 C 243.839844 106.332031 243.839844 119.242188 244.46875 128.378906 C 245.097656 137.511719 243.996094 144.4375 244.3125 145.226563 C 244.3125 145.226563 240.996094 145.398438 236.582031 145.570313 Z M 235.230469 97.484375 L 235.3125 97.484375 C 237.855469 97.484375 239.9375 99.566406 239.9375 102.113281 L 239.9375 125.824219 C 239.9375 128.371094 237.855469 130.453125 235.3125 130.453125 L 235.230469 130.453125 C 232.6875 130.453125 230.605469 128.371094 230.605469 125.824219 L 230.605469 102.113281 C 230.605469 99.566406 232.6875 97.484375 235.230469 97.484375 Z M 235.230469 98.144531 L 235.3125 98.144531 C 237.496094 98.144531 239.28125 99.929688 239.28125 102.113281 L 239.28125 125.824219 C 239.28125 128.007813 237.496094 129.792969 235.3125 129.792969 L 235.230469 129.792969 C 233.046875 129.792969 231.261719 128.007813 231.261719 125.824219 L 231.261719 102.113281 C 231.261719 99.929688 233.046875 98.144531 235.230469 98.144531 Z M 235.230469 98.144531 "/>
    <path style="stroke: none; fill-rule: evenodd; fill-opacity: 1; fill: url(#gradient-3);" d="M 134.886719 158.808594 L 134.886719 176.128906 C 134.886719 177.925781 133.414063 179.394531 131.617188 179.394531 L 131.550781 179.394531 C 129.753906 179.394531 128.28125 177.925781 128.28125 176.128906 C 128.28125 177.925781 126.8125 179.394531 125.015625 179.394531 L 124.949219 179.394531 C 123.148438 179.394531 121.679688 177.925781 121.679688 176.128906 L 121.679688 158.808594 L 112.71875 158.808594 L 121.636719 127.039063 C 116.996094 124.167969 108.898438 118.195313 107.984375 115.597656 C 107.78125 115.40625 107.621094 115.253906 107.523438 115.148438 C 106.34375 113.890625 104.695313 112.15625 106.972656 108.929688 C 109.253906 105.703125 113.96875 109.007813 114.992188 109.402344 C 116.011719 109.796875 116.09375 109.71875 116.957031 107.355469 C 117.820313 104.992188 122.300781 105.703125 126.625 105.542969 C 130.949219 105.386719 138.808594 105.386719 140.460938 106.648438 C 142.113281 107.90625 141.484375 111.449219 141.484375 115.464844 C 141.484375 119.480469 139.359375 121.683594 136.609375 123.96875 C 133.902344 126.214844 134.855469 126.328125 134.886719 126.328125 L 144.003906 158.808594 Z M 123.683594 127.128906 C 126.632813 127.140625 129.808594 126.609375 130.757813 124.558594 C 131.890625 122.121094 133.839844 119.003906 131.492188 116.652344 C 128.933594 114.089844 123.792969 111.339844 120.292969 110.269531 C 115.574219 108.824219 116.261719 113.125 112.585938 114.578125 C 111.511719 115.003906 110.324219 114.664063 109.234375 115.035156 L 109.097656 115.082031 L 110.277344 116.070313 C 111.175781 115.773438 112.0625 115.484375 112.953125 115.132813 C 114.132813 114.664063 115.046875 114.027344 115.898438 113.09375 C 116.3125 112.644531 116.8125 111.941406 117.308594 111.578125 C 117.21875 111.820313 117.203125 112.113281 117.183594 112.347656 C 117.136719 112.894531 117.113281 113.453125 117.089844 114.003906 C 117.050781 115.019531 117.019531 116.039063 116.996094 117.054688 C 116.882813 118 116.78125 118.808594 116.734375 119.191406 C 116.652344 119.878906 116.5625 120.570313 116.472656 121.261719 L 117.027344 122.273438 C 117.042969 121.035156 117.773438 119.714844 117.796875 118.476563 C 117.808594 117.855469 117.824219 117.113281 117.839844 116.492188 C 118.078125 114.433594 118.300781 113.085938 118.101563 112.371094 C 118.054688 112.203125 118.035156 111.425781 117.90625 111.328125 C 118.4375 111.3125 118.964844 110.792969 119.4375 110.9375 C 122.726563 111.941406 127.925781 114.152344 130.328125 116.558594 C 130.660156 116.894531 131.585938 118.097656 131.6875 118.5625 C 131.992188 119.960938 130.699219 122.632813 130.117188 123.886719 C 129.488281 125.242188 126.5 126.433594 124.125 126.464844 C 123.332031 126.476563 122.582031 125.777344 121.859375 125.722656 C 121.992188 125.832031 122.101563 125.914063 122.179688 125.976563 C 122.667969 126.351563 123.207031 126.757813 123.683594 127.128906 Z M 118.414063 122.878906 L 119.753906 122.925781 C 120.886719 122.460938 121.816406 122.898438 122.945313 122.429688 C 124.480469 121.789063 125.308594 120.945313 126.832031 120.273438 C 127.207031 119.851563 128.003906 118.53125 130.109375 119.203125 L 130.617188 118.785156 L 129.742188 118.59375 C 128.9375 117.882813 127.917969 118.867188 126.957031 119.289063 C 125.460938 119.949219 123.949219 120.585938 122.4375 121.214844 C 121.101563 121.773438 119.757813 122.328125 118.414063 122.878906 Z M 128.28125 100.347656 C 132.625 100.347656 136.144531 96.859375 136.144531 92.554688 C 136.144531 88.25 132.625 84.757813 128.28125 84.757813 C 123.941406 84.757813 120.421875 88.25 120.421875 92.554688 C 120.421875 96.859375 123.941406 100.347656 128.28125 100.347656 Z M 128.28125 100.347656 "/>
    <g clip-path="url(#clip1)" clip-rule="nonzero">
      <path style="stroke: none; fill-rule: evenodd; fill-opacity: 1; fill: url(#gradient-8);" d="M 76.371094 212.902344 L 52.644531 212.902344 C 52.027344 209.894531 50.578125 207.554688 48.269531 205.859375 C 45.964844 204.164063 42.925781 203.320313 39.148438 203.320313 C 34.0625 203.320313 30.367188 205.160156 28.078125 208.832031 C 25.773438 212.5 24.621094 216.71875 24.621094 221.46875 C 24.621094 224.441406 25.097656 227.316406 26.074219 230.089844 C 27.046875 232.863281 28.675781 235.171875 30.941406 237.03125 C 33.207031 238.890625 36.148438 239.820313 39.765625 239.820313 C 43.621094 239.820313 46.621094 238.789063 48.726563 236.746094 C 50.835938 234.6875 52.125 232 52.644531 228.644531 L 76.867188 228.644531 C 76.433594 234.171875 74.582031 239.054688 71.324219 243.289063 C 68.046875 247.507813 63.710938 250.765625 58.328125 253.039063 C 52.921875 255.3125 46.898438 256.460938 40.242188 256.460938 C 35.632813 256.460938 31 255.8125 26.351563 254.535156 C 21.699219 253.238281 17.347656 251.195313 13.355469 248.390625 C 9.339844 245.597656 6.121094 241.960938 3.695313 237.460938 C 1.269531 232.976563 0.0585938 227.714844 0.0585938 221.667969 C 0.0585938 216.9375 1.011719 212.417969 2.941406 208.132813 C 4.867188 203.851563 7.589844 200.113281 11.109375 196.90625 C 14.625 193.703125 18.839844 191.195313 23.726563 189.386719 C 28.617188 187.574219 33.960938 186.679688 39.765625 186.679688 C 46.582031 186.679688 52.34375 187.640625 57.054688 189.566406 C 61.765625 191.476563 65.441406 193.851563 68.085938 196.675781 C 70.726563 199.5 72.675781 202.320313 73.925781 205.144531 C 75.160156 207.96875 75.972656 210.558594 76.371094 212.902344 Z M 86.03125 254.75 L 86.03125 188.289063 L 126.59375 188.289063 C 135.097656 188.289063 141.578125 189.351563 146.027344 191.476563 C 149.425781 193.105469 152.148438 195.347656 154.175781 198.203125 C 156.222656 201.078125 157.238281 204.097656 157.238281 207.320313 C 157.238281 210.992188 156.222656 214.34375 154.214844 217.402344 C 152.1875 220.457031 149.269531 222.683594 145.410156 224.058594 C 152.148438 226.019531 156.003906 231.5 157 240.5 L 157.8125 247.574219 C 158.03125 251.179688 158.707031 253.570313 159.859375 254.75 L 135.792969 254.75 C 134.957031 253.039063 134.300781 249.71875 133.867188 244.785156 C 133.507813 241.5625 132.992188 239.054688 132.316406 237.246094 C 131.640625 235.4375 130.367188 234.007813 128.519531 232.945313 C 126.691406 231.882813 124.007813 231.351563 120.492188 231.351563 L 109.878906 231.351563 L 109.878906 254.75 Z M 109.878906 203.734375 L 109.878906 217.285156 L 123.492188 217.285156 C 130.328125 217.285156 133.746094 214.859375 133.746094 210.011719 C 133.746094 205.824219 129.890625 203.734375 122.179688 203.734375 Z M 216.5 188.289063 L 245.832031 254.75 L 221.03125 254.75 L 217.214844 245.382813 L 191.578125 245.382813 L 187.761719 254.75 L 163.078125 254.75 L 192.414063 188.289063 Z M 212.207031 231.117188 L 204.59375 208.632813 L 196.226563 231.117188 Z M 314.015625 208.515625 L 291.125 208.515625 C 291.0625 206.125 290.148438 204.332031 288.421875 203.152344 C 286.691406 201.957031 284.367188 201.359375 281.445313 201.359375 C 275.898438 201.359375 273.117188 203.054688 273.117188 206.425781 C 273.117188 207.652344 273.875 208.617188 275.382813 209.3125 C 276.894531 210.011719 279.675781 210.773438 283.710938 211.605469 C 287.765625 212.453125 289.871094 212.882813 290.03125 212.917969 C 295.992188 214.3125 300.800781 215.722656 304.476563 217.152344 C 308.15625 218.5625 311.195313 220.6875 313.601563 223.496094 C 316.003906 226.300781 317.21875 230.003906 317.21875 234.621094 C 317.21875 239.539063 315.527344 243.621094 312.128906 246.859375 C 308.730469 250.101563 304.320313 252.472656 298.914063 253.984375 C 293.527344 255.480469 287.785156 256.226563 281.703125 256.226563 C 275.421875 256.226563 269.621094 255.363281 264.292969 253.636719 C 258.988281 251.910156 254.714844 249.253906 251.476563 245.664063 C 248.238281 242.0625 246.585938 237.628906 246.507813 232.3125 L 270.972656 232.3125 C 271.191406 235.269531 272.382813 237.496094 274.507813 238.972656 C 276.65625 240.449219 279.515625 241.199219 283.132813 241.199219 C 286.234375 241.199219 288.699219 240.832031 290.527344 240.117188 C 292.355469 239.386719 293.269531 237.960938 293.269531 235.816406 C 293.269531 234.722656 292.652344 233.742188 291.421875 232.878906 C 290.1875 232.015625 288.71875 231.300781 287.007813 230.71875 C 285.300781 230.15625 283.511719 229.65625 281.664063 229.226563 C 279.816406 228.808594 278.34375 228.476563 277.292969 228.230469 C 271.945313 226.882813 268.011719 225.835938 265.488281 225.089844 C 262.964844 224.359375 260.4375 223.246094 257.875 221.785156 C 255.332031 220.308594 253.324219 218.414063 251.832031 216.105469 C 250.363281 213.796875 249.628906 210.90625 249.628906 207.421875 C 249.628906 202.4375 251.316406 198.417969 254.695313 195.347656 C 258.074219 192.292969 262.246094 190.117188 267.214844 188.835938 C 272.183594 187.558594 277.132813 186.910156 282.0625 186.910156 C 286.453125 186.910156 290.546875 187.308594 294.304688 188.105469 C 298.058594 188.921875 301.398438 190.183594 304.359375 191.910156 C 307.300781 193.636719 309.625 195.878906 311.335938 198.652344 C 313.042969 201.410156 313.9375 204.695313 314.015625 208.515625 Z M 314.015625 208.515625 "/>
    </g>
    <path style="stroke: none; fill-rule: evenodd; fill-opacity: 1; fill: url(#gradient-7);" d="M 5.890625 72.226563 L 153.582031 0.914063 C 154.554688 0.277344 155.722656 -0.0625 156.910156 -0.0507813 C 158.09375 -0.0625 159.261719 0.277344 160.234375 0.914063 L 307.929688 72.226563 C 310.703125 73.566406 311.804688 76.789063 310.371094 79.386719 L 310.320313 79.484375 C 308.886719 82.082031 305.445313 83.109375 302.667969 81.769531 L 156.910156 11.390625 L 11.148438 81.769531 C 8.371094 83.109375 4.929688 82.082031 3.5 79.484375 L 3.445313 79.386719 C 2.015625 76.789063 3.113281 73.566406 5.890625 72.226563 Z M 5.890625 72.226563 "/>
    <rect x="-6.15" y="270.277" width="328.021" height="73.343" style="fill: rgb(216, 216, 216);"/>
    <path style=" stroke:none;fill-rule:evenodd;fill:rgb(10.594177%,9.812927%,9.423828%);fill-opacity:1;" d="M 28.469 291.156 L 23.867 291.156 C 23.746 290.316 23.465 289.66 23.02 289.188 C 22.574 288.715 21.984 288.48 21.25 288.48 C 20.266 288.48 19.547 288.992 19.105 290.02 C 18.656 291.043 18.434 292.223 18.434 293.551 C 18.434 294.379 18.527 295.184 18.715 295.957 C 18.906 296.734 19.219 297.379 19.66 297.898 C 20.098 298.418 20.668 298.676 21.371 298.676 C 22.117 298.676 22.699 298.391 23.109 297.82 C 23.516 297.242 23.766 296.492 23.867 295.555 L 28.563 295.555 C 28.48 297.098 28.121 298.465 27.488 299.648 C 26.852 300.824 26.012 301.734 24.969 302.371 C 23.922 303.004 22.754 303.324 21.461 303.324 C 20.57 303.324 19.672 303.145 18.77 302.789 C 17.867 302.426 17.023 301.855 16.25 301.07 C 15.473 300.293 14.848 299.273 14.379 298.02 C 13.906 296.766 13.672 295.293 13.672 293.605 C 13.672 292.285 13.855 291.02 14.23 289.824 C 14.605 288.629 15.133 287.582 15.813 286.688 C 16.496 285.793 17.313 285.094 18.262 284.586 C 19.207 284.082 20.246 283.828 21.371 283.828 C 22.691 283.828 23.809 284.098 24.723 284.637 C 25.637 285.172 26.348 285.836 26.859 286.621 C 27.375 287.41 27.75 288.199 27.992 288.988 C 28.23 289.777 28.391 290.5 28.469 291.156 Z M 43.102 284.281 L 43.102 288.707 L 34.875 288.707 L 34.875 291.211 L 42.34 291.211 L 42.34 295.332 L 34.875 295.332 L 34.875 298.254 L 43.309 298.254 L 43.309 302.848 L 30.32 302.848 L 30.32 284.281 Z M 59.379 284.281 L 59.379 302.848 L 54.871 302.848 L 50.016 292.715 L 50.016 302.848 L 45.465 302.848 L 45.465 284.281 L 50.137 284.281 L 54.824 294.191 L 54.824 284.281 Z M 74.895 284.281 L 74.895 289.102 L 70.598 289.102 L 70.598 302.848 L 65.879 302.848 L 65.879 289.102 L 61.563 289.102 L 61.563 284.281 Z M 77.063 302.848 L 77.063 284.281 L 84.926 284.281 C 86.574 284.281 87.832 284.578 88.695 285.172 C 89.352 285.625 89.879 286.25 90.273 287.051 C 90.672 287.852 90.867 288.695 90.867 289.598 C 90.867 290.621 90.672 291.559 90.281 292.414 C 89.887 293.266 89.32 293.887 88.574 294.273 C 89.879 294.82 90.629 296.352 90.82 298.867 L 90.977 300.844 C 91.02 301.852 91.152 302.52 91.375 302.848 L 86.711 302.848 C 86.547 302.371 86.422 301.441 86.336 300.063 C 86.266 299.164 86.164 298.465 86.035 297.957 C 85.902 297.453 85.656 297.055 85.301 296.758 C 84.945 296.461 84.426 296.309 83.742 296.309 L 81.684 296.309 L 81.684 302.848 Z M 81.684 288.594 L 81.684 292.379 L 84.324 292.379 C 85.648 292.379 86.313 291.703 86.313 290.348 C 86.313 289.18 85.566 288.594 84.07 288.594 Z M 100.734 283.828 C 101.895 283.828 102.949 284.07 103.902 284.559 C 104.848 285.039 105.66 285.727 106.336 286.609 C 107.012 287.496 107.523 288.531 107.883 289.723 C 108.234 290.914 108.414 292.199 108.414 293.578 C 108.414 295.004 108.23 296.305 107.871 297.5 C 107.512 298.688 106.988 299.715 106.297 300.59 C 105.613 301.461 104.781 302.137 103.805 302.609 C 102.832 303.09 101.754 303.324 100.574 303.324 C 99.426 303.324 98.328 303.063 97.281 302.527 C 96.238 301.996 95.355 301.219 94.629 300.203 C 94.008 299.316 93.543 298.301 93.238 297.16 C 92.938 296.02 92.781 294.836 92.781 293.605 C 92.781 292.156 92.965 290.836 93.336 289.641 C 93.703 288.441 94.238 287.406 94.938 286.535 C 95.637 285.668 96.48 285 97.465 284.531 C 98.449 284.063 99.539 283.828 100.734 283.828 Z M 100.691 288.48 C 99.59 288.48 98.789 288.98 98.293 289.977 C 97.793 290.98 97.543 292.195 97.543 293.633 C 97.543 295.043 97.793 296.238 98.301 297.211 C 98.801 298.191 99.598 298.676 100.691 298.676 C 101.418 298.676 101.996 298.426 102.445 297.922 C 102.887 297.414 103.199 296.773 103.383 296 C 103.563 295.23 103.652 294.402 103.652 293.523 C 103.652 291.914 103.398 290.672 102.887 289.82 C 102.363 288.926 101.633 288.48 100.691 288.48 Z M 117.543 284.281 L 124.438 284.281 C 126.711 284.281 128.516 285.004 129.844 286.445 C 130.633 287.285 131.227 288.332 131.629 289.582 C 132.023 290.836 132.227 292.141 132.227 293.496 C 132.227 296.598 131.492 298.984 130.027 300.645 C 129.523 301.215 128.973 301.664 128.367 301.988 C 127.762 302.32 127.137 302.543 126.484 302.664 C 125.832 302.789 125.121 302.848 124.344 302.848 L 117.543 302.848 Z M 122.168 288.902 L 122.168 298.254 L 124.035 298.254 C 125.105 298.254 125.926 297.902 126.492 297.203 C 127.137 296.344 127.461 295.098 127.461 293.473 C 127.461 292.691 127.336 291.949 127.078 291.25 C 126.82 290.547 126.445 290.004 125.957 289.621 C 125.367 289.141 124.582 288.902 123.602 288.902 Z M 146.965 284.281 L 146.965 288.707 L 138.742 288.707 L 138.742 291.211 L 146.203 291.211 L 146.203 295.332 L 138.742 295.332 L 138.742 298.254 L 147.176 298.254 L 147.176 302.848 L 134.188 302.848 L 134.188 284.281 Z M 156.516 302.848 L 156.516 284.281 L 164.379 284.281 C 166.027 284.281 167.285 284.578 168.145 285.172 C 168.805 285.625 169.332 286.25 169.727 287.051 C 170.121 287.852 170.32 288.695 170.32 289.598 C 170.32 290.621 170.121 291.559 169.734 292.414 C 169.34 293.266 168.773 293.887 168.027 294.273 C 169.332 294.82 170.082 296.352 170.273 298.867 L 170.43 300.844 C 170.473 301.852 170.605 302.52 170.828 302.848 L 166.16 302.848 C 166 302.371 165.875 301.441 165.789 300.063 C 165.719 299.164 165.617 298.465 165.488 297.957 C 165.355 297.453 165.109 297.055 164.75 296.758 C 164.398 296.461 163.879 296.309 163.195 296.309 L 161.137 296.309 L 161.137 302.848 Z M 161.137 288.594 L 161.137 292.379 L 163.777 292.379 C 165.102 292.379 165.766 291.703 165.766 290.348 C 165.766 289.18 165.02 288.594 163.523 288.594 Z M 185.664 284.281 L 185.664 288.707 L 177.441 288.707 L 177.441 291.211 L 184.902 291.211 L 184.902 295.332 L 177.441 295.332 L 177.441 298.254 L 185.875 298.254 L 185.875 302.848 L 172.887 302.848 L 172.887 284.281 Z M 199.957 284.281 L 199.957 288.902 L 192.723 288.902 L 192.723 291.879 L 198.965 291.879 L 198.965 296.168 L 192.723 296.168 L 192.723 302.848 L 188.031 302.848 L 188.031 284.281 Z M 214.43 284.281 L 214.43 288.707 L 206.203 288.707 L 206.203 291.211 L 213.664 291.211 L 213.664 295.332 L 206.203 295.332 L 206.203 298.254 L 214.637 298.254 L 214.637 302.848 L 201.648 302.848 L 201.648 284.281 Z M 216.809 302.848 L 216.809 284.281 L 224.672 284.281 C 226.324 284.281 227.578 284.578 228.441 285.172 C 229.102 285.625 229.629 286.25 230.02 287.051 C 230.418 287.852 230.613 288.695 230.613 289.598 C 230.613 290.621 230.418 291.559 230.027 292.414 C 229.637 293.266 229.07 293.887 228.32 294.273 C 229.629 294.82 230.375 296.352 230.57 298.867 L 230.727 300.844 C 230.77 301.852 230.898 302.52 231.125 302.848 L 226.457 302.848 C 226.297 302.371 226.168 301.441 226.082 300.063 C 226.016 299.164 225.914 298.465 225.781 297.957 C 225.652 297.453 225.406 297.055 225.047 296.758 C 224.691 296.461 224.172 296.309 223.492 296.309 L 221.434 296.309 L 221.434 302.848 Z M 221.434 288.594 L 221.434 292.379 L 224.07 292.379 C 225.398 292.379 226.063 291.703 226.063 290.348 C 226.063 289.18 225.313 288.594 223.816 288.594 Z M 245.961 284.281 L 245.961 288.707 L 237.734 288.707 L 237.734 291.211 L 245.199 291.211 L 245.199 295.332 L 237.734 295.332 L 237.734 298.254 L 246.168 298.254 L 246.168 302.848 L 233.18 302.848 L 233.18 284.281 Z M 243.457 282.754 L 240.473 282.754 L 239.414 280.773 L 238.402 282.754 L 235.438 282.754 L 237.773 278.797 L 241.168 278.797 Z M 262.238 284.281 L 262.238 302.848 L 257.73 302.848 L 252.879 292.715 L 252.879 302.848 L 248.324 302.848 L 248.324 284.281 L 252.996 284.281 L 257.688 294.191 L 257.688 284.281 Z M 279.027 291.156 L 274.426 291.156 C 274.309 290.316 274.027 289.66 273.578 289.188 C 273.133 288.715 272.543 288.48 271.813 288.48 C 270.824 288.48 270.109 288.992 269.664 290.02 C 269.219 291.043 268.996 292.223 268.996 293.551 C 268.996 294.379 269.086 295.184 269.277 295.957 C 269.465 296.734 269.781 297.379 270.219 297.898 C 270.66 298.418 271.23 298.676 271.93 298.676 C 272.68 298.676 273.262 298.391 273.668 297.82 C 274.078 297.242 274.328 296.492 274.426 295.555 L 279.125 295.555 C 279.039 297.098 278.68 298.465 278.051 299.648 C 277.414 300.824 276.574 301.734 275.527 302.371 C 274.48 303.004 273.313 303.324 272.023 303.324 C 271.129 303.324 270.23 303.145 269.328 302.789 C 268.43 302.426 267.586 301.855 266.809 301.07 C 266.031 300.293 265.406 299.273 264.938 298.02 C 264.469 296.766 264.23 295.293 264.23 293.605 C 264.23 292.285 264.418 291.02 264.789 289.824 C 265.164 288.629 265.691 287.582 266.375 286.688 C 267.055 285.793 267.871 285.094 268.82 284.586 C 269.77 284.082 270.805 283.828 271.93 283.828 C 273.254 283.828 274.371 284.098 275.281 284.637 C 276.195 285.172 276.91 285.836 277.422 286.621 C 277.934 287.41 278.313 288.199 278.555 288.988 C 278.793 289.777 278.949 290.5 279.027 291.156 Z M 285.598 302.848 L 280.906 302.848 L 280.906 284.281 L 285.598 284.281 Z M 297.129 284.281 L 302.816 302.848 L 298.008 302.848 L 297.27 300.23 L 292.297 300.23 L 291.559 302.848 L 286.773 302.848 L 292.461 284.281 Z M 296.297 296.246 L 294.82 289.965 L 293.199 296.246 Z M 18.234 310.234 L 25.129 310.234 C 27.402 310.234 29.203 310.957 30.531 312.402 C 31.324 313.242 31.918 314.285 32.316 315.535 C 32.715 316.789 32.914 318.094 32.914 319.449 C 32.914 322.551 32.184 324.938 30.719 326.598 C 30.215 327.168 29.664 327.617 29.059 327.945 C 28.453 328.273 27.824 328.496 27.172 328.617 C 26.523 328.742 25.809 328.801 25.035 328.801 L 18.234 328.801 Z M 22.859 314.855 L 22.859 324.207 L 24.727 324.207 C 25.793 324.207 26.613 323.855 27.18 323.156 C 27.828 322.297 28.152 321.055 28.152 319.426 C 28.152 318.645 28.023 317.902 27.766 317.203 C 27.508 316.504 27.133 315.961 26.645 315.574 C 26.055 315.098 25.27 314.855 24.289 314.855 Z M 42.875 310.234 L 48.563 328.801 L 43.754 328.801 L 43.012 326.184 L 38.043 326.184 L 37.301 328.801 L 32.516 328.801 L 38.203 310.234 Z M 42.043 322.199 L 40.566 315.918 L 38.945 322.199 Z M 65.781 310.234 L 71.469 328.801 L 66.66 328.801 L 65.918 326.184 L 60.949 326.184 L 60.207 328.801 L 55.422 328.801 L 61.109 310.234 Z M 64.949 322.199 L 63.473 315.918 L 61.852 322.199 Z M 84.688 315.887 L 80.246 315.887 C 80.238 315.219 80.059 314.715 79.723 314.387 C 79.387 314.051 78.938 313.887 78.371 313.887 C 77.297 313.887 76.758 314.359 76.758 315.301 C 76.758 315.645 76.902 315.914 77.195 316.109 C 77.488 316.305 78.027 316.516 78.813 316.746 C 79.598 316.984 80.004 317.105 80.035 317.113 C 81.191 317.504 82.125 317.898 82.836 318.297 C 83.551 318.691 84.141 319.285 84.605 320.07 C 85.07 320.855 85.309 321.891 85.309 323.18 C 85.309 324.551 84.98 325.695 84.32 326.598 C 83.66 327.504 82.805 328.168 81.758 328.59 C 80.715 329.008 79.602 329.215 78.422 329.215 C 77.203 329.215 76.078 328.973 75.047 328.492 C 74.02 328.008 73.188 327.266 72.563 326.266 C 71.934 325.258 71.613 324.02 71.598 322.535 L 76.34 322.535 C 76.383 323.359 76.613 323.98 77.027 324.395 C 77.441 324.809 77.996 325.016 78.699 325.016 C 79.301 325.016 79.777 324.914 80.133 324.715 C 80.488 324.512 80.664 324.113 80.664 323.512 C 80.664 323.207 80.543 322.934 80.305 322.691 C 80.066 322.449 79.781 322.25 79.449 322.09 C 79.121 321.93 78.773 321.793 78.414 321.672 C 78.055 321.555 77.77 321.461 77.566 321.391 C 76.531 321.016 75.766 320.723 75.277 320.516 C 74.789 320.313 74.297 320 73.801 319.594 C 73.309 319.18 72.918 318.652 72.629 318.004 C 72.344 317.359 72.203 316.555 72.203 315.578 C 72.203 314.188 72.531 313.063 73.184 312.207 C 73.84 311.352 74.648 310.742 75.613 310.387 C 76.574 310.031 77.535 309.848 78.492 309.848 C 79.344 309.848 80.137 309.961 80.863 310.184 C 81.594 310.41 82.238 310.762 82.813 311.246 C 83.383 311.727 83.836 312.355 84.168 313.129 C 84.496 313.898 84.672 314.816 84.688 315.887 Z M 99.297 315.887 L 94.859 315.887 C 94.848 315.219 94.668 314.715 94.336 314.387 C 94 314.051 93.547 313.887 92.98 313.887 C 91.906 313.887 91.367 314.359 91.367 315.301 C 91.367 315.645 91.516 315.914 91.809 316.109 C 92.102 316.305 92.641 316.516 93.422 316.746 C 94.207 316.984 94.617 317.105 94.648 317.113 C 95.801 317.504 96.734 317.898 97.449 318.297 C 98.16 318.691 98.75 319.285 99.215 320.07 C 99.684 320.855 99.918 321.891 99.918 323.18 C 99.918 324.551 99.59 325.695 98.93 326.598 C 98.273 327.504 97.418 328.168 96.367 328.59 C 95.324 329.008 94.211 329.215 93.031 329.215 C 91.816 329.215 90.691 328.973 89.656 328.492 C 88.629 328.008 87.801 327.266 87.172 326.266 C 86.543 325.258 86.223 324.02 86.207 322.535 L 90.953 322.535 C 90.992 323.359 91.227 323.98 91.637 324.395 C 92.055 324.809 92.609 325.016 93.309 325.016 C 93.91 325.016 94.387 324.914 94.742 324.715 C 95.098 324.512 95.273 324.113 95.273 323.512 C 95.273 323.207 95.156 322.934 94.918 322.691 C 94.676 322.449 94.395 322.25 94.063 322.09 C 93.73 321.93 93.383 321.793 93.023 321.672 C 92.668 321.555 92.383 321.461 92.176 321.391 C 91.141 321.016 90.379 320.723 89.887 320.516 C 89.398 320.313 88.91 320 88.414 319.594 C 87.918 319.18 87.531 318.652 87.242 318.004 C 86.957 317.359 86.813 316.555 86.813 315.578 C 86.813 314.188 87.141 313.063 87.797 312.207 C 88.449 311.352 89.262 310.742 90.223 310.387 C 91.188 310.031 92.145 309.848 93.102 309.848 C 93.953 309.848 94.746 309.961 95.477 310.184 C 96.203 310.41 96.852 310.762 97.426 311.246 C 97.996 311.727 98.445 312.355 98.777 313.129 C 99.109 313.898 99.281 314.816 99.297 315.887 Z M 106.531 328.801 L 101.844 328.801 L 101.844 310.234 L 106.531 310.234 Z M 121.23 315.887 L 116.793 315.887 C 116.781 315.219 116.605 314.715 116.27 314.387 C 115.934 314.051 115.484 313.887 114.918 313.887 C 113.844 313.887 113.305 314.359 113.305 315.301 C 113.305 315.645 113.449 315.914 113.742 316.109 C 114.035 316.305 114.574 316.516 115.355 316.746 C 116.141 316.984 116.551 317.105 116.582 317.113 C 117.738 317.504 118.672 317.898 119.383 318.297 C 120.094 318.691 120.684 319.285 121.152 320.07 C 121.617 320.855 121.852 321.891 121.852 323.18 C 121.852 324.551 121.523 325.695 120.867 326.598 C 120.207 327.504 119.352 328.168 118.305 328.59 C 117.262 329.008 116.145 329.215 114.969 329.215 C 113.75 329.215 112.625 328.973 111.594 328.492 C 110.563 328.008 109.734 327.266 109.105 326.266 C 108.48 325.258 108.16 324.02 108.145 322.535 L 112.887 322.535 C 112.93 323.359 113.16 323.98 113.574 324.395 C 113.988 324.809 114.543 325.016 115.246 325.016 C 115.844 325.016 116.324 324.914 116.68 324.715 C 117.031 324.512 117.211 324.113 117.211 323.512 C 117.211 323.207 117.09 322.934 116.852 322.691 C 116.613 322.449 116.328 322.25 115.996 322.09 C 115.664 321.93 115.316 321.793 114.961 321.672 C 114.602 321.555 114.316 321.461 114.113 321.391 C 113.074 321.016 112.313 320.723 111.824 320.516 C 111.332 320.313 110.844 320 110.348 319.594 C 109.855 319.18 109.465 318.652 109.176 318.004 C 108.891 317.359 108.75 316.555 108.75 315.578 C 108.75 314.188 109.074 313.063 109.73 312.207 C 110.387 311.352 111.195 310.742 112.156 310.387 C 113.121 310.031 114.082 309.848 115.035 309.848 C 115.887 309.848 116.684 309.961 117.41 310.184 C 118.137 310.41 118.785 310.762 119.359 311.246 C 119.93 311.727 120.379 312.355 120.711 313.129 C 121.043 313.898 121.219 314.816 121.23 315.887 Z M 135.727 310.234 L 135.727 315.055 L 131.426 315.055 L 131.426 328.801 L 126.711 328.801 L 126.711 315.055 L 122.391 315.055 L 122.391 310.234 Z M 150.652 310.234 L 150.652 314.66 L 142.43 314.66 L 142.43 317.164 L 149.891 317.164 L 149.891 321.285 L 142.43 321.285 L 142.43 324.207 L 150.863 324.207 L 150.863 328.801 L 137.875 328.801 L 137.875 310.234 Z M 148.148 308.707 L 145.168 308.707 L 144.105 306.727 L 143.094 308.707 L 140.133 308.707 L 142.465 304.75 L 145.859 304.75 Z M 166.934 310.234 L 166.934 328.801 L 162.426 328.801 L 157.57 318.668 L 157.57 328.801 L 153.016 328.801 L 153.016 310.234 L 157.688 310.234 L 162.379 320.145 L 162.379 310.234 Z M 183.719 317.109 L 179.121 317.109 C 179 316.27 178.719 315.617 178.273 315.145 C 177.824 314.668 177.234 314.434 176.504 314.434 C 175.516 314.434 174.801 314.949 174.355 315.973 C 173.91 317 173.688 318.176 173.688 319.504 C 173.688 320.336 173.781 321.137 173.969 321.91 C 174.156 322.688 174.473 323.332 174.91 323.852 C 175.352 324.371 175.922 324.633 176.621 324.633 C 177.371 324.633 177.953 324.344 178.359 323.773 C 178.77 323.199 179.02 322.445 179.121 321.508 L 183.816 321.508 C 183.73 323.055 183.375 324.418 182.742 325.602 C 182.105 326.781 181.266 327.688 180.223 328.324 C 179.172 328.961 178.008 329.281 176.715 329.281 C 175.82 329.281 174.922 329.098 174.023 328.742 C 173.121 328.379 172.277 327.809 171.504 327.023 C 170.723 326.246 170.102 325.23 169.629 323.973 C 169.16 322.719 168.926 321.25 168.926 319.559 C 168.926 318.238 169.109 316.977 169.484 315.777 C 169.855 314.582 170.387 313.539 171.066 312.641 C 171.75 311.746 172.566 311.047 173.516 310.539 C 174.461 310.035 175.496 309.785 176.621 309.785 C 177.945 309.785 179.063 310.055 179.977 310.59 C 180.887 311.125 181.602 311.789 182.113 312.578 C 182.625 313.367 183.004 314.156 183.246 314.941 C 183.484 315.73 183.645 316.457 183.719 317.109 Z M 190.289 328.801 L 185.602 328.801 L 185.602 310.234 L 190.289 310.234 Z M 201.82 310.234 L 207.508 328.801 L 202.699 328.801 L 201.961 326.184 L 196.988 326.184 L 196.25 328.801 L 191.465 328.801 L 197.152 310.234 Z M 200.988 322.199 L 199.512 315.918 L 197.891 322.199 Z M 227.895 315.887 L 223.457 315.887 C 223.445 315.219 223.266 314.715 222.934 314.387 C 222.598 314.051 222.145 313.887 221.578 313.887 C 220.504 313.887 219.965 314.359 219.965 315.301 C 219.965 315.645 220.113 315.914 220.402 316.109 C 220.695 316.305 221.238 316.516 222.02 316.746 C 222.805 316.984 223.215 317.105 223.242 317.113 C 224.398 317.504 225.332 317.898 226.043 318.297 C 226.758 318.691 227.348 319.285 227.813 320.07 C 228.281 320.855 228.516 321.891 228.516 323.18 C 228.516 324.551 228.188 325.695 227.527 326.598 C 226.871 327.504 226.016 328.168 224.965 328.59 C 223.922 329.008 222.809 329.215 221.629 329.215 C 220.41 329.215 219.285 328.973 218.254 328.492 C 217.227 328.008 216.398 327.266 215.77 326.266 C 215.141 325.258 214.82 324.02 214.805 322.535 L 219.547 322.535 C 219.59 323.359 219.824 323.98 220.234 324.395 C 220.652 324.809 221.207 325.016 221.906 325.016 C 222.508 325.016 222.984 324.914 223.34 324.715 C 223.695 324.512 223.871 324.113 223.871 323.512 C 223.871 323.207 223.754 322.934 223.512 322.691 C 223.273 322.449 222.988 322.25 222.66 322.09 C 222.328 321.93 221.98 321.793 221.621 321.672 C 221.262 321.555 220.977 321.461 220.773 321.391 C 219.738 321.016 218.977 320.723 218.484 320.516 C 217.996 320.313 217.508 320 217.008 319.594 C 216.516 319.18 216.129 318.652 215.84 318.004 C 215.555 317.359 215.41 316.555 215.41 315.578 C 215.41 314.188 215.738 313.063 216.395 312.207 C 217.047 311.352 217.859 310.742 218.82 310.387 C 219.785 310.031 220.742 309.848 221.699 309.848 C 222.551 309.848 223.344 309.961 224.07 310.184 C 224.801 310.41 225.449 310.762 226.023 311.246 C 226.594 311.727 227.043 312.355 227.375 313.129 C 227.707 313.898 227.879 314.816 227.895 315.887 Z M 237.715 309.785 C 238.875 309.785 239.93 310.023 240.883 310.512 C 241.832 310.996 242.645 311.68 243.316 312.563 C 243.992 313.449 244.504 314.484 244.863 315.676 C 245.219 316.867 245.395 318.152 245.395 319.531 C 245.395 320.957 245.215 322.262 244.852 323.453 C 244.492 324.641 243.969 325.672 243.281 326.543 C 242.594 327.414 241.762 328.094 240.785 328.566 C 239.813 329.043 238.738 329.281 237.555 329.281 C 236.406 329.281 235.313 329.016 234.262 328.48 C 233.219 327.949 232.336 327.172 231.609 326.156 C 230.988 325.27 230.527 324.254 230.223 323.113 C 229.918 321.973 229.762 320.789 229.762 319.559 C 229.762 318.113 229.949 316.789 230.316 315.594 C 230.684 314.395 231.219 313.359 231.922 312.488 C 232.617 311.621 233.461 310.953 234.445 310.484 C 235.43 310.016 236.52 309.785 237.715 309.785 Z M 237.672 314.434 C 236.57 314.434 235.77 314.934 235.273 315.93 C 234.777 316.934 234.527 318.148 234.527 319.586 C 234.527 320.996 234.777 322.191 235.281 323.164 C 235.781 324.145 236.578 324.633 237.672 324.633 C 238.398 324.633 238.98 324.379 239.426 323.875 C 239.871 323.367 240.18 322.727 240.363 321.953 C 240.543 321.184 240.633 320.359 240.633 319.477 C 240.633 317.867 240.379 316.629 239.871 315.773 C 239.344 314.879 238.613 314.434 237.672 314.434 Z M 261.527 317.109 L 256.926 317.109 C 256.809 316.27 256.527 315.617 256.078 315.145 C 255.633 314.668 255.043 314.434 254.313 314.434 C 253.324 314.434 252.609 314.949 252.164 315.973 C 251.719 317 251.496 318.176 251.496 319.504 C 251.496 320.336 251.586 321.137 251.777 321.91 C 251.965 322.688 252.281 323.332 252.719 323.852 C 253.16 324.371 253.73 324.633 254.43 324.633 C 255.176 324.633 255.758 324.344 256.168 323.773 C 256.578 323.199 256.828 322.445 256.926 321.508 L 261.625 321.508 C 261.539 323.055 261.18 324.418 260.547 325.602 C 259.914 326.781 259.074 327.688 258.027 328.324 C 256.98 328.961 255.813 329.281 254.523 329.281 C 253.629 329.281 252.73 329.098 251.828 328.742 C 250.926 328.379 250.086 327.809 249.309 327.023 C 248.531 326.246 247.906 325.23 247.438 323.973 C 246.965 322.719 246.73 321.25 246.73 319.559 C 246.73 318.238 246.918 316.977 247.289 315.777 C 247.664 314.582 248.191 313.539 248.875 312.641 C 249.555 311.746 250.371 311.047 251.32 310.539 C 252.27 310.035 253.305 309.785 254.43 309.785 C 255.75 309.785 256.867 310.055 257.781 310.59 C 258.695 311.125 259.406 311.789 259.922 312.578 C 260.434 313.367 260.813 314.156 261.055 314.941 C 261.293 315.73 261.449 316.457 261.527 317.109 Z M 268.098 328.801 L 263.406 328.801 L 263.406 310.234 L 268.098 310.234 Z M 279.629 310.234 L 285.316 328.801 L 280.508 328.801 L 279.766 326.184 L 274.797 326.184 L 274.059 328.801 L 269.273 328.801 L 274.957 310.234 Z M 278.797 322.199 L 277.32 315.918 L 275.699 322.199 Z M 298.023 323.98 L 298.023 328.801 L 286.449 328.801 L 286.449 310.234 L 291.137 310.234 L 291.137 323.98 Z M 298.023 323.98"/>
  </g>
</svg>