<?xml version="1.0" encoding="utf-8"?>
<svg viewBox="86.729 149.592 218.277 103.027" xmlns="http://www.w3.org/2000/svg">
  <defs>
    <clipPath id="clip1">
      <path d="M 0 186 L 317.199219 186 L 317.199219 257 L 0 257 Z M 0 186 "/>
    </clipPath>
  </defs>
  <g id="surface1" transform="matrix(1, 0, 0, 1, 34.609299, 16.819815)">
    <path style="stroke: none; fill-rule: evenodd; fill-opacity: 1; fill: rgb(233, 27, 27);" d="M 72.281 154.201 L 72.234 154.201 C 70.896 154.201 69.802 155.294 69.802 156.631 L 69.802 166.257 C 69.802 167.502 70.75 168.536 71.958 168.672 L 71.958 168.689 L 81.913 168.689 L 82.358 168.706 C 82.358 168.706 84.88 172.112 85.179 172.659 C 85.478 173.208 86.057 173.473 86.754 173.009 C 87.451 172.543 86.92 171.563 86.92 171.563 C 86.92 171.563 83.57 166.645 82.972 165.797 C 82.375 164.95 82.092 165.149 81.913 165.1 L 74.713 165.1 L 74.713 161.991 C 74.732 161.992 74.754 161.992 74.776 161.992 L 80.883 161.992 C 81.456 161.992 81.926 161.522 81.926 160.948 L 81.926 160.927 C 81.926 160.353 81.456 159.883 80.883 159.883 L 74.776 159.883 C 74.754 159.883 74.732 159.883 74.713 159.885 L 74.713 156.631 C 74.713 155.294 73.618 154.201 72.281 154.201 Z M 73.262 180.641 C 78.257 180.641 82.467 177.247 83.745 172.624 C 83.111 171.602 81.696 169.675 81.696 169.675 C 81.696 174.369 77.919 178.176 73.262 178.176 C 68.604 178.176 64.827 174.369 64.827 169.675 C 64.827 166.928 66.122 164.485 68.13 162.932 L 68.239 159.948 C 64.759 161.776 62.381 165.446 62.381 169.675 C 62.381 175.73 67.254 180.641 73.262 180.641 Z M 72.258 153.503 C 73.742 153.503 74.945 152.29 74.945 150.794 C 74.945 149.299 73.742 148.086 72.258 148.086 C 70.772 148.086 69.571 149.299 69.571 150.794 C 69.571 152.29 70.772 153.503 72.258 153.503 Z M 72.258 153.503"/>
    <path style="stroke: none; fill-rule: evenodd; fill-opacity: 1; fill: rgb(23, 183, 183);" d="M 189.526 167.754 L 189.526 179.843 C 189.526 180.615 188.932 181.246 188.208 181.246 L 188.182 181.246 C 187.456 181.246 186.863 180.615 186.863 179.843 L 186.863 155.877 C 186.452 155.979 186.076 156.159 185.897 156.466 L 185.897 165.913 C 185.897 166.558 185.368 167.086 184.724 167.086 L 184.7 167.086 C 184.056 167.086 183.529 166.558 183.529 165.913 L 183.529 155.233 C 183.529 155.18 183.532 155.127 183.539 155.076 C 183.572 154.617 183.677 153.369 183.961 152.826 C 184.296 152.191 186.129 151.792 186.863 151.792 L 193.112 151.792 C 193.846 151.792 195.679 152.191 196.014 152.826 C 196.299 153.369 196.403 154.617 196.437 155.076 C 196.443 155.127 196.446 155.18 196.446 155.233 L 196.446 165.913 C 196.446 166.558 195.919 167.086 195.275 167.086 L 195.251 167.086 C 194.607 167.086 194.078 166.558 194.078 165.913 L 194.078 156.466 C 193.899 156.159 193.526 155.979 193.112 155.877 L 193.112 179.843 C 193.112 180.615 192.52 181.246 191.794 181.246 L 191.767 181.246 C 191.043 181.246 190.45 180.615 190.45 179.843 L 190.45 167.754 Z M 189.988 150.688 C 191.764 150.688 193.206 149.246 193.206 147.466 C 193.206 145.686 191.764 144.243 189.988 144.243 C 188.211 144.243 186.77 145.686 186.77 147.466 C 186.77 149.246 188.211 150.688 189.988 150.688 Z M 189.988 150.688"/>
    <path style="stroke: none; fill-rule: evenodd; fill-opacity: 1; fill: rgb(26, 167, 26);" d="M 167.373 163.726 L 167.373 179.605 C 167.373 180.56 166.489 181.339 165.407 181.339 L 165.368 181.339 C 164.286 181.339 163.401 180.56 163.401 179.605 L 163.401 164.674 L 163.314 164.674 L 163.314 179.605 C 163.314 180.56 162.429 181.339 161.348 181.339 L 161.308 181.339 C 160.227 181.339 159.342 180.56 159.342 179.605 L 159.342 161.272 C 159.045 161.434 158.67 161.531 158.265 161.531 L 158.23 161.531 C 157.262 161.531 156.468 160.975 156.468 160.292 L 156.468 149.001 C 156.468 148.929 156.476 148.858 156.494 148.787 C 156.542 148.111 156.661 146.832 156.931 146.235 C 157.206 145.63 158.437 145.197 159.342 145.033 L 159.342 144.958 L 167.373 144.958 L 167.373 145.033 C 168.279 145.197 169.511 145.63 169.784 146.235 C 170.055 146.829 170.174 148.111 170.221 148.787 C 170.239 148.857 170.248 148.929 170.248 149.001 L 170.248 160.292 C 170.248 160.975 169.456 161.531 168.487 161.531 L 168.453 161.531 C 168.046 161.531 167.671 161.434 167.373 161.272 Z M 163.358 143.701 C 165.254 143.701 166.791 142.162 166.791 140.265 C 166.791 138.366 165.254 136.827 163.358 136.827 C 161.463 136.827 159.927 138.366 159.927 140.265 C 159.927 142.162 161.463 143.701 163.358 143.701 Z M 163.358 143.701"/>
    <path style="stroke: none; fill-rule: evenodd; fill-opacity: 1; fill: rgb(236, 132, 27);" d="M 106.14 167.963 L 106.14 179.469 C 106.14 180.205 105.574 180.805 104.886 180.805 L 104.86 180.805 C 104.169 180.805 103.603 180.205 103.603 179.469 L 103.603 156.659 C 103.213 156.756 102.856 156.926 102.683 157.22 L 102.683 166.213 C 102.683 166.825 102.181 167.327 101.569 167.327 L 101.548 167.327 C 100.932 167.327 100.431 166.825 100.431 166.213 L 100.431 156.046 C 100.431 155.994 100.436 155.944 100.44 155.895 C 100.471 155.457 100.573 154.269 100.843 153.754 C 101.162 153.151 102.905 152.77 103.603 152.77 L 109.554 152.77 C 110.251 152.77 111.998 153.151 112.315 153.754 C 112.585 154.269 112.687 155.457 112.717 155.895 C 112.724 155.944 112.727 155.994 112.727 156.046 L 112.727 166.213 C 112.727 166.825 112.225 167.327 111.612 167.327 L 111.589 167.327 C 110.976 167.327 110.474 166.825 110.474 166.213 L 110.474 157.22 C 110.304 156.926 109.945 156.756 109.554 156.659 L 109.554 179.469 C 109.554 180.205 108.989 180.805 108.297 180.805 L 108.274 180.805 C 107.583 180.805 107.017 180.205 107.017 179.469 L 107.017 167.963 Z M 106.58 151.719 C 108.269 151.719 109.642 150.347 109.642 148.653 C 109.642 146.959 108.269 145.584 106.58 145.584 C 104.888 145.584 103.516 146.959 103.516 148.653 C 103.516 150.347 104.888 151.719 106.58 151.719 Z M 106.58 151.719"/>
    <path style="stroke: none; fill-rule: evenodd; fill-opacity: 1; fill: rgb(187, 114, 246);" d="M 245.395 145.062 C 247.832 145.062 249.807 143.167 249.807 140.828 C 249.807 138.49 247.832 136.596 245.395 136.596 C 242.96 136.596 240.984 138.49 240.984 140.828 C 240.984 143.167 242.96 145.062 245.395 145.062 Z M 251.136 147.553 L 254.671 157.517 C 254.671 157.517 256.205 160.511 256.244 161.051 C 256.282 161.588 258.008 170.11 258.045 170.725 C 258.083 171.338 258.927 177.33 259.08 177.866 C 259.233 178.403 259.617 180.936 259.617 180.936 L 253.599 181.091 C 253.599 181.091 253.255 179.977 253.445 179.632 C 253.638 179.287 255.478 178.672 255.823 178.672 C 256.167 178.672 256.32 178.557 256.32 178.557 L 254.479 167.999 L 253.983 165.926 C 253.983 165.926 253.062 165.58 252.639 166.234 C 252.218 166.884 249.574 170.839 249.42 171.07 C 249.269 171.3 249.269 180.936 249.269 180.936 L 243.325 180.744 C 243.325 180.744 243.097 178.633 244.399 178.365 C 245.702 178.097 246.583 178.135 246.583 178.135 L 246.43 169.496 C 246.43 169.496 250.06 164.602 250.762 164.198 C 251.464 163.796 251.988 162.432 251.988 162.432 C 251.988 162.432 250.778 158.745 250.453 157.94 C 250.127 157.135 249.169 155.6 249.169 155.6 L 244.971 160.82 C 244.971 160.82 245.986 161.626 246.103 162.567 C 246.216 163.508 246.084 164.507 246.006 164.851 C 245.929 165.196 245.316 165.466 245.008 165.369 C 244.702 165.274 244.759 164.487 244.777 164.217 C 244.798 163.948 244.856 162.855 244.301 162.778 C 243.745 162.701 243.839 162.548 243.551 162.778 C 243.265 163.01 243.323 163.49 242.958 163.603 C 242.593 163.717 241.809 163.891 241.711 163.546 C 241.616 163.199 241.54 162.682 241.54 162.682 C 241.54 162.682 240.735 162.719 240.526 163.142 C 240.314 163.565 236.251 181.514 236.251 181.514 C 236.251 181.514 235.35 182.281 234.908 181.839 C 234.467 181.398 234.832 180.573 234.832 180.573 L 238.493 164.295 C 238.493 164.295 239.164 160.878 240.965 160.552 C 242.766 160.224 243.169 160.224 243.169 160.224 L 248.156 152.872 C 248.156 152.872 246.583 148.689 246.47 148.19 C 246.367 147.748 246.266 144.285 249.512 145.361 C 250.334 145.634 250.872 146.807 251.136 147.553 Z M 251.136 147.553"/>
    <path style="stroke: none; fill-rule: evenodd; fill-opacity: 1; fill: rgb(119, 119, 234);" d="M 220.465 145.682 C 222.312 145.682 223.81 144.209 223.81 142.396 C 223.81 140.581 222.312 139.109 220.465 139.109 C 218.619 139.109 217.12 140.581 217.12 142.396 C 217.12 144.209 218.619 145.682 220.465 145.682 Z M 220.52 167.406 C 220.568 167.579 220.594 167.761 220.594 167.949 L 220.594 178.949 C 220.594 180.071 219.677 180.988 218.557 180.988 L 218.515 180.988 C 217.394 180.988 216.477 180.071 216.477 178.949 L 216.477 167.949 C 216.477 167.805 216.492 167.665 216.52 167.528 C 213.832 167.583 211.443 167.551 211.588 167.265 C 211.909 166.621 211.974 165.589 211.974 163.205 C 211.974 160.822 210.944 161.209 210.688 157.857 C 210.431 154.507 215.448 152.832 215.127 151.931 C 214.804 151.028 215.899 147.227 219.502 147.098 C 223.102 146.969 223.361 149.933 223.425 150.642 C 223.489 151.351 223.489 156.632 223.747 160.371 C 224.003 164.108 223.553 166.942 223.682 167.265 C 223.682 167.265 222.326 167.335 220.52 167.406 Z M 219.967 147.73 L 220 147.73 C 221.041 147.73 221.892 148.583 221.892 149.625 L 221.892 159.326 C 221.892 160.369 221.041 161.22 220 161.22 L 219.967 161.22 C 218.926 161.22 218.073 160.369 218.073 159.326 L 218.073 149.625 C 218.073 148.583 218.926 147.73 219.967 147.73 Z M 219.967 148.001 L 220 148.001 C 220.893 148.001 221.624 148.73 221.624 149.625 L 221.624 159.326 C 221.624 160.22 220.893 160.95 220 160.95 L 219.967 160.95 C 219.072 160.95 218.342 160.22 218.342 159.326 L 218.342 149.625 C 218.342 148.73 219.072 148.001 219.967 148.001 Z M 219.967 148.001"/>
    <path style="stroke: none; fill-rule: evenodd; fill-opacity: 1; fill: rgb(221, 101, 21);" d="M 138.114 171.095 L 138.114 179.164 C 138.114 180.001 137.427 180.685 136.59 180.685 L 136.559 180.685 C 135.723 180.685 135.037 180.001 135.037 179.164 C 135.037 180.001 134.352 180.685 133.515 180.685 L 133.484 180.685 C 132.645 180.685 131.96 180.001 131.96 179.164 L 131.96 171.095 L 127.786 171.095 L 131.941 156.294 C 129.779 154.957 126.007 152.174 125.581 150.964 C 125.486 150.875 125.412 150.804 125.366 150.755 C 124.817 150.169 124.049 149.361 125.11 147.858 C 126.172 146.355 128.369 147.894 128.845 148.078 C 129.32 148.262 129.359 148.225 129.761 147.124 C 130.163 146.023 132.25 146.355 134.264 146.28 C 136.279 146.207 139.941 146.207 140.71 146.794 C 141.48 147.381 141.187 149.031 141.187 150.903 C 141.187 152.773 140.197 153.8 138.916 154.864 C 137.655 155.911 138.099 155.963 138.114 155.963 L 142.361 171.095 Z M 132.895 156.337 C 134.268 156.341 135.747 156.094 136.19 155.139 C 136.718 154.003 137.626 152.551 136.532 151.455 C 135.34 150.262 132.945 148.981 131.315 148.482 C 129.117 147.808 129.437 149.813 127.724 150.489 C 127.225 150.687 126.67 150.529 126.164 150.702 L 126.099 150.724 L 126.649 151.184 C 127.068 151.046 127.481 150.911 127.896 150.748 C 128.445 150.529 128.871 150.232 129.267 149.797 C 129.46 149.588 129.693 149.261 129.924 149.092 C 129.882 149.205 129.876 149.341 129.866 149.45 C 129.845 149.704 129.834 149.966 129.822 150.222 C 129.804 150.695 129.79 151.169 129.779 151.642 C 129.726 152.084 129.678 152.46 129.657 152.639 C 129.619 152.958 129.576 153.281 129.536 153.603 L 129.793 154.075 C 129.801 153.498 130.141 152.882 130.152 152.305 C 130.158 152.016 130.164 151.67 130.171 151.381 C 130.284 150.421 130.387 149.794 130.294 149.461 C 130.272 149.383 130.264 149.021 130.203 148.975 C 130.45 148.968 130.696 148.726 130.916 148.793 C 132.449 149.261 134.871 150.291 135.99 151.412 C 136.145 151.568 136.576 152.128 136.623 152.345 C 136.765 152.996 136.163 154.242 135.892 154.826 C 135.598 155.457 134.207 156.012 133.1 156.027 C 132.731 156.032 132.382 155.706 132.045 155.681 C 132.106 155.732 132.158 155.77 132.194 155.799 C 132.422 155.974 132.672 156.164 132.895 156.337 Z M 130.44 154.356 L 131.064 154.378 C 131.591 154.161 132.025 154.366 132.551 154.147 C 133.266 153.849 133.652 153.455 134.361 153.142 C 134.536 152.946 134.907 152.331 135.888 152.644 L 136.125 152.449 L 135.717 152.36 C 135.342 152.029 134.867 152.487 134.42 152.683 C 133.722 152.992 133.018 153.288 132.314 153.581 C 131.691 153.841 131.066 154.1 130.44 154.356 Z M 135.037 143.859 C 137.06 143.859 138.7 142.235 138.7 140.23 C 138.7 138.224 137.06 136.597 135.037 136.597 C 133.014 136.597 131.375 138.224 131.375 140.23 C 131.375 142.235 133.014 143.859 135.037 143.859 Z M 135.037 143.859"/>
    <g clip-path="url(#clip1)" clip-rule="nonzero" style="" transform="matrix(0.828342, 0, 0, 0.828342, 25.560175, 32.045116)"/>
  </g>
  <text style="fill: rgb(255, 255, 255); font-family: Arial, sans-serif; font-size: 60.2px; font-weight: 700; white-space: pre;" x="85.473" y="247.431">C R A S</text>
</svg>