<?xml version="1.0" encoding="utf-8"?>
<svg viewBox="86.729 149.592 218.277 103.027" xmlns="http://www.w3.org/2000/svg">
  <defs>
    <clipPath id="clip1">
      <path d="M 0 186 L 317.199219 186 L 317.199219 257 L 0 257 Z M 0 186 "/>
    </clipPath>
  </defs>
  <g id="surface1" transform="matrix(1, 0, 0, 1, 34.609299, 16.819815)">
    <path style="stroke: none; fill-rule: evenodd; fill-opacity: 1; fill: rgb(233, 27, 27);" d="M 72.281 154.201 L 72.234 154.201 C 70.896 154.201 69.802 155.294 69.802 156.631 L 69.802 166.257 C 69.802 167.502 70.75 168.536 71.958 168.672 L 71.958 168.689 L 81.913 168.689 L 82.358 168.706 C 82.358 168.706 84.88 172.112 85.179 172.659 C 85.478 173.208 86.057 173.473 86.754 173.009 C 87.451 172.543 86.92 171.563 86.92 171.563 C 86.92 171.563 83.57 166.645 82.972 165.797 C 82.375 164.95 82.092 165.149 81.913 165.1 L 74.713 165.1 L 74.713 161.991 C 74.732 161.992 74.754 161.992 74.776 161.992 L 80.883 161.992 C 81.456 161.992 81.926 161.522 81.926 160.948 L 81.926 160.927 C 81.926 160.353 81.456 159.883 80.883 159.883 L 74.776 159.883 C 74.754 159.883 74.732 159.883 74.713 159.885 L 74.713 156.631 C 74.713 155.294 73.618 154.201 72.281 154.201 Z M 73.262 180.641 C 78.257 180.641 82.467 177.247 83.745 172.624 C 83.111 171.602 81.696 169.675 81.696 169.675 C 81.696 174.369 77.919 178.176 73.262 178.176 C 68.604 178.176 64.827 174.369 64.827 169.675 C 64.827 166.928 66.122 164.485 68.13 162.932 L 68.239 159.948 C 64.759 161.776 62.381 165.446 62.381 169.675 C 62.381 175.73 67.254 180.641 73.262 180.641 Z M 72.258 153.503 C 73.742 153.503 74.945 152.29 74.945 150.794 C 74.945 149.299 73.742 148.086 72.258 148.086 C 70.772 148.086 69.571 149.299 69.571 150.794 C 69.571 152.29 70.772 153.503 72.258 153.503 Z M 72.258 153.503"/>
    <path style="stroke: none; fill-rule: evenodd; fill-opacity: 1; fill: rgb(23, 183, 183);" d="M 183.526 167.754 L 183.526 179.843 C 183.526 180.615 182.932 181.246 182.208 181.246 L 182.182 181.246 C 181.456 181.246 180.863 180.615 180.863 179.843 L 180.863 155.877 C 180.452 155.979 180.076 156.159 179.897 156.466 L 179.897 165.913 C 179.897 166.558 179.368 167.086 178.724 167.086 L 178.7 167.086 C 178.056 167.086 177.529 166.558 177.529 165.913 L 177.529 155.233 C 177.529 155.18 177.532 155.127 177.539 155.076 C 177.572 154.617 177.677 153.369 177.961 152.826 C 178.296 152.191 180.129 151.792 180.863 151.792 L 187.112 151.792 C 187.846 151.792 189.679 152.191 190.014 152.826 C 190.299 153.369 190.403 154.617 190.437 155.076 C 190.443 155.127 190.446 155.18 190.446 155.233 L 190.446 165.913 C 190.446 166.558 189.919 167.086 189.275 167.086 L 189.251 167.086 C 188.607 167.086 188.078 166.558 188.078 165.913 L 188.078 156.466 C 187.899 156.159 187.526 155.979 187.112 155.877 L 187.112 179.843 C 187.112 180.615 186.52 181.246 185.794 181.246 L 185.767 181.246 C 185.043 181.246 184.45 180.615 184.45 179.843 L 184.45 167.754 Z M 183.988 150.688 C 185.764 150.688 187.206 149.246 187.206 147.466 C 187.206 145.686 185.764 144.243 183.988 144.243 C 182.211 144.243 180.77 145.686 180.77 147.466 C 180.77 149.246 182.211 150.688 183.988 150.688 Z M 183.988 150.688"/>
    <path style="stroke: none; fill-rule: evenodd; fill-opacity: 1; fill: rgb(26, 167, 26);" d="M 160.373 163.726 L 160.373 179.605 C 160.373 180.56 159.489 181.339 158.407 181.339 L 158.368 181.339 C 157.286 181.339 156.401 180.56 156.401 179.605 L 156.401 164.674 L 156.314 164.674 L 156.314 179.605 C 156.314 180.56 155.429 181.339 154.348 181.339 L 154.308 181.339 C 153.227 181.339 152.342 180.56 152.342 179.605 L 152.342 161.272 C 152.045 161.434 151.67 161.531 151.265 161.531 L 151.23 161.531 C 150.262 161.531 149.468 160.975 149.468 160.292 L 149.468 149.001 C 149.468 148.929 149.476 148.858 149.494 148.787 C 149.542 148.111 149.661 146.832 149.931 146.235 C 150.206 145.63 151.437 145.197 152.342 145.033 L 152.342 144.958 L 160.373 144.958 L 160.373 145.033 C 161.279 145.197 162.511 145.63 162.784 146.235 C 163.055 146.829 163.174 148.111 163.221 148.787 C 163.239 148.857 163.248 148.929 163.248 149.001 L 163.248 160.292 C 163.248 160.975 162.456 161.531 161.487 161.531 L 161.453 161.531 C 161.046 161.531 160.671 161.434 160.373 161.272 Z M 156.358 143.701 C 158.254 143.701 159.791 142.162 159.791 140.265 C 159.791 138.366 158.254 136.827 156.358 136.827 C 154.463 136.827 152.927 138.366 152.927 140.265 C 152.927 142.162 154.463 143.701 156.358 143.701 Z M 156.358 143.701"/>
    <path style="stroke: none; fill-rule: evenodd; fill-opacity: 1; fill: rgb(236, 132, 27);" d="M 99.14 167.963 L 99.14 179.469 C 99.14 180.205 98.574 180.805 97.886 180.805 L 97.86 180.805 C 97.169 180.805 96.603 180.205 96.603 179.469 L 96.603 156.659 C 96.213 156.756 95.856 156.926 95.683 157.22 L 95.683 166.213 C 95.683 166.825 95.181 167.327 94.569 167.327 L 94.548 167.327 C 93.932 167.327 93.431 166.825 93.431 166.213 L 93.431 156.046 C 93.431 155.994 93.436 155.944 93.44 155.895 C 93.471 155.457 93.573 154.269 93.843 153.754 C 94.162 153.151 95.905 152.77 96.603 152.77 L 102.554 152.77 C 103.251 152.77 104.998 153.151 105.315 153.754 C 105.585 154.269 105.687 155.457 105.717 155.895 C 105.724 155.944 105.727 155.994 105.727 156.046 L 105.727 166.213 C 105.727 166.825 105.225 167.327 104.612 167.327 L 104.589 167.327 C 103.976 167.327 103.474 166.825 103.474 166.213 L 103.474 157.22 C 103.304 156.926 102.945 156.756 102.554 156.659 L 102.554 179.469 C 102.554 180.205 101.989 180.805 101.297 180.805 L 101.274 180.805 C 100.583 180.805 100.017 180.205 100.017 179.469 L 100.017 167.963 Z M 99.58 151.719 C 101.269 151.719 102.642 150.347 102.642 148.653 C 102.642 146.959 101.269 145.584 99.58 145.584 C 97.888 145.584 96.516 146.959 96.516 148.653 C 96.516 150.347 97.888 151.719 99.58 151.719 Z M 99.58 151.719"/>
    <path style="stroke: none; fill-rule: evenodd; fill-opacity: 1; fill: rgb(187, 114, 246);" d="M 245.395 145.062 C 247.832 145.062 249.807 143.167 249.807 140.828 C 249.807 138.49 247.832 136.596 245.395 136.596 C 242.96 136.596 240.984 138.49 240.984 140.828 C 240.984 143.167 242.96 145.062 245.395 145.062 Z M 251.136 147.553 L 254.671 157.517 C 254.671 157.517 256.205 160.511 256.244 161.051 C 256.282 161.588 258.008 170.11 258.045 170.725 C 258.083 171.338 258.927 177.33 259.08 177.866 C 259.233 178.403 259.617 180.936 259.617 180.936 L 253.599 181.091 C 253.599 181.091 253.255 179.977 253.445 179.632 C 253.638 179.287 255.478 178.672 255.823 178.672 C 256.167 178.672 256.32 178.557 256.32 178.557 L 254.479 167.999 L 253.983 165.926 C 253.983 165.926 253.062 165.58 252.639 166.234 C 252.218 166.884 249.574 170.839 249.42 171.07 C 249.269 171.3 249.269 180.936 249.269 180.936 L 243.325 180.744 C 243.325 180.744 243.097 178.633 244.399 178.365 C 245.702 178.097 246.583 178.135 246.583 178.135 L 246.43 169.496 C 246.43 169.496 250.06 164.602 250.762 164.198 C 251.464 163.796 251.988 162.432 251.988 162.432 C 251.988 162.432 250.778 158.745 250.453 157.94 C 250.127 157.135 249.169 155.6 249.169 155.6 L 244.971 160.82 C 244.971 160.82 245.986 161.626 246.103 162.567 C 246.216 163.508 246.084 164.507 246.006 164.851 C 245.929 165.196 245.316 165.466 245.008 165.369 C 244.702 165.274 244.759 164.487 244.777 164.217 C 244.798 163.948 244.856 162.855 244.301 162.778 C 243.745 162.701 243.839 162.548 243.551 162.778 C 243.265 163.01 243.323 163.49 242.958 163.603 C 242.593 163.717 241.809 163.891 241.711 163.546 C 241.616 163.199 241.54 162.682 241.54 162.682 C 241.54 162.682 240.735 162.719 240.526 163.142 C 240.314 163.565 236.251 181.514 236.251 181.514 C 236.251 181.514 235.35 182.281 234.908 181.839 C 234.467 181.398 234.832 180.573 234.832 180.573 L 238.493 164.295 C 238.493 164.295 239.164 160.878 240.965 160.552 C 242.766 160.224 243.169 160.224 243.169 160.224 L 248.156 152.872 C 248.156 152.872 246.583 148.689 246.47 148.19 C 246.367 147.748 246.266 144.285 249.512 145.361 C 250.334 145.634 250.872 146.807 251.136 147.553 Z M 251.136 147.553"/>
    <path style="stroke: none; fill-rule: evenodd; fill-opacity: 1; fill: rgb(119, 119, 234);" d="M 214.465 145.682 C 216.312 145.682 217.81 144.209 217.81 142.396 C 217.81 140.581 216.312 139.109 214.465 139.109 C 212.619 139.109 211.12 140.581 211.12 142.396 C 211.12 144.209 212.619 145.682 214.465 145.682 Z M 214.52 167.406 C 214.568 167.579 214.594 167.761 214.594 167.949 L 214.594 178.949 C 214.594 180.071 213.677 180.988 212.557 180.988 L 212.515 180.988 C 211.394 180.988 210.477 180.071 210.477 178.949 L 210.477 167.949 C 210.477 167.805 210.492 167.665 210.52 167.528 C 207.832 167.583 205.443 167.551 205.588 167.265 C 205.909 166.621 205.974 165.589 205.974 163.205 C 205.974 160.822 204.944 161.209 204.688 157.857 C 204.431 154.507 209.448 152.832 209.127 151.931 C 208.804 151.028 209.899 147.227 213.502 147.098 C 217.102 146.969 217.361 149.933 217.425 150.642 C 217.489 151.351 217.489 156.632 217.747 160.371 C 218.003 164.108 217.553 166.942 217.682 167.265 C 217.682 167.265 216.326 167.335 214.52 167.406 Z M 213.967 147.73 L 214 147.73 C 215.041 147.73 215.892 148.583 215.892 149.625 L 215.892 159.326 C 215.892 160.369 215.041 161.22 214 161.22 L 213.967 161.22 C 212.926 161.22 212.073 160.369 212.073 159.326 L 212.073 149.625 C 212.073 148.583 212.926 147.73 213.967 147.73 Z M 213.967 148.001 L 214 148.001 C 214.893 148.001 215.624 148.73 215.624 149.625 L 215.624 159.326 C 215.624 160.22 214.893 160.95 214 160.95 L 213.967 160.95 C 213.072 160.95 212.342 160.22 212.342 159.326 L 212.342 149.625 C 212.342 148.73 213.072 148.001 213.967 148.001 Z M 213.967 148.001"/>
    <path style="stroke: none; fill-rule: evenodd; fill-opacity: 1; fill: rgb(221, 101, 21);" d="M 131.114 171.095 L 131.114 179.164 C 131.114 180.001 130.427 180.685 129.59 180.685 L 129.559 180.685 C 128.723 180.685 128.037 180.001 128.037 179.164 C 128.037 180.001 127.352 180.685 126.515 180.685 L 126.484 180.685 C 125.645 180.685 124.96 180.001 124.96 179.164 L 124.96 171.095 L 120.786 171.095 L 124.941 156.294 C 122.779 154.957 119.007 152.174 118.581 150.964 C 118.486 150.875 118.412 150.804 118.366 150.755 C 117.817 150.169 117.049 149.361 118.11 147.858 C 119.172 146.355 121.369 147.894 121.845 148.078 C 122.32 148.262 122.359 148.225 122.761 147.124 C 123.163 146.023 125.25 146.355 127.264 146.28 C 129.279 146.207 132.941 146.207 133.71 146.794 C 134.48 147.381 134.187 149.031 134.187 150.903 C 134.187 152.773 133.197 153.8 131.916 154.864 C 130.655 155.911 131.099 155.963 131.114 155.963 L 135.361 171.095 Z M 125.895 156.337 C 127.268 156.341 128.747 156.094 129.19 155.139 C 129.718 154.003 130.626 152.551 129.532 151.455 C 128.34 150.262 125.945 148.981 124.315 148.482 C 122.117 147.808 122.437 149.813 120.724 150.489 C 120.225 150.687 119.67 150.529 119.164 150.702 L 119.099 150.724 L 119.649 151.184 C 120.068 151.046 120.481 150.911 120.896 150.748 C 121.445 150.529 121.871 150.232 122.267 149.797 C 122.46 149.588 122.693 149.261 122.924 149.092 C 122.882 149.205 122.876 149.341 122.866 149.45 C 122.845 149.704 122.834 149.966 122.822 150.222 C 122.804 150.695 122.79 151.169 122.779 151.642 C 122.726 152.084 122.678 152.46 122.657 152.639 C 122.619 152.958 122.576 153.281 122.536 153.603 L 122.793 154.075 C 122.801 153.498 123.141 152.882 123.152 152.305 C 123.158 152.016 123.164 151.67 123.171 151.381 C 123.284 150.421 123.387 149.794 123.294 149.461 C 123.272 149.383 123.264 149.021 123.203 148.975 C 123.45 148.968 123.696 148.726 123.916 148.793 C 125.449 149.261 127.871 150.291 128.99 151.412 C 129.145 151.568 129.576 152.128 129.623 152.345 C 129.765 152.996 129.163 154.242 128.892 154.826 C 128.598 155.457 127.207 156.012 126.1 156.027 C 125.731 156.032 125.382 155.706 125.045 155.681 C 125.106 155.732 125.158 155.77 125.194 155.799 C 125.422 155.974 125.672 156.164 125.895 156.337 Z M 123.44 154.356 L 124.064 154.378 C 124.591 154.161 125.025 154.366 125.551 154.147 C 126.266 153.849 126.652 153.455 127.361 153.142 C 127.536 152.946 127.907 152.331 128.888 152.644 L 129.125 152.449 L 128.717 152.36 C 128.342 152.029 127.867 152.487 127.42 152.683 C 126.722 152.992 126.018 153.288 125.314 153.581 C 124.691 153.841 124.066 154.1 123.44 154.356 Z M 128.037 143.859 C 130.06 143.859 131.7 142.235 131.7 140.23 C 131.7 138.224 130.06 136.597 128.037 136.597 C 126.014 136.597 124.375 138.224 124.375 140.23 C 124.375 142.235 126.014 143.859 128.037 143.859 Z M 128.037 143.859"/>
    <g clip-path="url(#clip1)" clip-rule="nonzero" style="" transform="matrix(0.828342, 0, 0, 0.828342, 25.560175, 32.045116)">
      <path style="stroke: none; fill-rule: evenodd; fill-opacity: 1; fill: rgb(255, 255, 255);" d="M 95.43 208.341 L 75.832 208.341 C 75.321 205.857 74.124 203.925 72.217 202.524 C 70.313 201.123 67.803 200.427 64.683 200.427 C 60.48 200.427 57.428 201.946 55.538 204.979 C 53.634 208.01 52.681 211.495 52.681 215.418 C 52.681 217.874 53.075 220.248 53.882 222.54 C 54.685 224.831 56.03 226.739 57.903 228.275 C 59.773 229.81 62.204 230.578 65.192 230.578 C 68.378 230.578 70.855 229.726 72.595 228.039 C 74.336 226.339 75.402 224.119 75.832 221.347 L 95.84 221.347 C 95.483 225.913 93.953 229.946 91.261 233.444 C 88.555 236.929 84.972 239.621 80.526 241.497 C 76.06 243.377 71.084 244.325 65.585 244.325 C 61.778 244.325 57.951 243.789 54.112 242.733 C 50.267 241.662 46.672 239.975 43.375 237.658 C 40.058 235.352 37.398 232.347 35.395 228.629 C 33.392 224.925 32.391 220.579 32.391 215.583 C 32.391 211.676 33.178 207.942 34.772 204.401 C 36.363 200.865 38.614 197.777 41.519 195.127 C 44.424 192.482 47.905 190.409 51.942 188.916 C 55.983 187.419 60.397 186.68 65.192 186.68 C 70.822 186.68 75.583 187.474 79.474 189.063 C 83.366 190.642 86.403 192.604 88.588 194.937 C 90.769 197.271 92.378 199.6 93.412 201.933 C 94.431 204.266 95.103 206.406 95.43 208.341 Z M 103.412 242.911 L 103.412 188.009 L 136.919 188.009 C 143.945 188.009 149.297 188.887 152.972 190.642 C 155.78 191.987 158.029 193.841 159.703 196.2 C 161.396 198.574 162.234 201.07 162.234 203.73 C 162.234 206.763 161.396 209.532 159.737 212.059 C 158.061 214.582 155.652 216.422 152.463 217.558 C 158.029 219.179 161.214 223.705 162.037 231.139 L 162.709 236.983 C 162.889 239.962 163.446 241.937 164.399 242.911 L 144.518 242.911 C 143.828 241.497 143.285 238.756 142.928 234.679 C 142.631 232.018 142.204 229.946 141.647 228.452 C 141.089 226.958 140.036 225.776 138.511 224.899 C 137 224.021 134.783 223.583 131.879 223.583 L 123.111 223.583 L 123.111 242.911 Z M 123.111 200.769 L 123.111 211.962 L 134.356 211.962 C 140.004 211.962 142.827 209.958 142.827 205.954 C 142.827 202.495 139.643 200.769 133.274 200.769 Z M 211.189 188.009 L 235.42 242.911 L 214.932 242.911 L 211.779 235.173 L 190.601 235.173 L 187.449 242.911 L 167.058 242.911 L 191.293 188.009 Z M 207.643 223.388 L 201.354 204.814 L 194.441 223.388 Z M 291.746 204.718 L 272.835 204.718 C 272.783 202.743 272.028 201.261 270.602 200.286 C 269.175 199.299 267.253 198.806 264.839 198.806 C 260.257 198.806 257.958 200.207 257.958 202.991 C 257.958 204.004 258.586 204.801 259.83 205.377 C 261.08 205.954 263.377 206.582 266.712 207.27 C 270.06 207.97 271.8 208.325 271.931 208.355 C 276.856 209.507 280.828 210.672 283.866 211.852 C 286.904 213.017 289.415 214.773 291.402 217.093 C 293.387 219.41 294.391 222.469 294.391 226.283 C 294.391 230.345 292.993 233.717 290.186 236.393 C 287.379 239.071 283.736 241.031 279.27 242.278 C 274.82 243.514 270.076 244.131 265.052 244.131 C 259.862 244.131 255.071 243.418 250.67 241.992 C 246.288 240.565 242.757 238.371 240.083 235.405 C 237.406 232.431 236.043 228.767 235.979 224.377 L 256.188 224.377 C 256.369 226.819 257.353 228.657 259.109 229.879 C 260.882 231.097 263.245 231.718 266.233 231.718 C 268.795 231.718 270.831 231.414 272.341 230.824 C 273.852 230.22 274.608 229.042 274.608 227.27 C 274.608 226.368 274.096 225.557 273.08 224.843 C 272.062 224.13 270.848 223.54 269.436 223.06 C 268.024 222.595 266.546 222.181 265.02 221.827 C 263.494 221.482 262.277 221.208 261.408 221.004 C 256.991 219.892 253.742 219.026 251.657 218.409 C 249.572 217.806 247.485 216.887 245.368 215.679 C 243.267 214.461 241.608 212.896 240.376 210.988 C 239.162 209.08 238.557 206.693 238.557 203.815 C 238.557 199.697 239.95 196.377 242.741 193.841 C 245.532 191.317 248.978 189.519 253.084 188.461 C 257.188 187.407 261.276 186.87 265.349 186.87 C 268.976 186.87 272.358 187.199 275.464 187.858 C 278.563 188.532 281.322 189.575 283.768 191.001 C 286.198 192.426 288.119 194.279 289.531 196.571 C 290.941 198.848 291.68 201.562 291.746 204.718 Z M 291.746 204.718"/>
    </g>
  </g>
</svg>