<?xml version="1.0" encoding="utf-8"?>
<svg viewBox="166.241 40.281 285.166 290.92" xmlns="http://www.w3.org/2000/svg">
  <defs>
    <clipPath id="clip1">
      <path d="M 0 186 L 317.199219 186 L 317.199219 257 L 0 257 Z M 0 186 "/>
    </clipPath>
  </defs>
  <g id="surface1" transform="matrix(1, 0, 0, 1, 150.18486, 9.452525)">
    <path style="stroke: none; fill-rule: evenodd; fill-opacity: 1; fill: rgb(233, 27, 27);" d="M 58.283 122.804 L 58.179 122.804 C 55.26 122.804 52.869 125.191 52.869 128.11 L 52.869 149.129 C 52.869 151.847 54.939 154.104 57.578 154.403 L 57.578 154.439 L 79.313 154.439 L 80.285 154.475 C 80.285 154.475 85.793 161.912 86.444 163.107 C 87.096 164.306 88.363 164.885 89.882 163.87 C 91.404 162.855 90.245 160.713 90.245 160.713 C 90.245 160.713 82.931 149.975 81.624 148.125 C 80.321 146.274 79.705 146.71 79.313 146.602 L 63.593 146.602 L 63.593 139.813 C 63.636 139.816 63.683 139.816 63.73 139.816 L 77.063 139.816 C 78.316 139.816 79.342 138.791 79.342 137.538 L 79.342 137.491 C 79.342 136.238 78.316 135.212 77.063 135.212 L 63.73 135.212 C 63.683 135.212 63.636 135.212 63.593 135.216 L 63.593 128.11 C 63.593 125.191 61.203 122.804 58.283 122.804 Z M 60.425 180.533 C 71.332 180.533 80.522 173.125 83.312 163.031 C 81.93 160.799 78.841 156.591 78.841 156.591 C 78.841 166.84 70.594 175.152 60.425 175.152 C 50.256 175.152 42.009 166.84 42.009 156.591 C 42.009 150.594 44.835 145.259 49.219 141.868 L 49.457 135.353 C 41.858 139.345 36.667 147.358 36.667 156.591 C 36.667 169.813 47.308 180.533 60.425 180.533 Z M 58.233 121.281 C 61.473 121.281 64.1 118.632 64.1 115.367 C 64.1 112.102 61.473 109.453 58.233 109.453 C 54.99 109.453 52.365 112.102 52.365 115.367 C 52.365 118.632 54.99 121.281 58.233 121.281 Z M 58.233 121.281"/>
    <path style="stroke: none; fill-rule: evenodd; fill-opacity: 1; fill: rgb(23, 183, 183);" d="M 186.877 151.753 L 186.877 178.017 C 186.877 179.694 185.588 181.066 184.015 181.066 L 183.957 181.066 C 182.381 181.066 181.092 179.694 181.092 178.017 L 181.092 125.95 C 180.199 126.17 179.382 126.562 178.993 127.228 L 178.993 147.754 C 178.993 149.154 177.845 150.303 176.445 150.303 L 176.394 150.303 C 174.994 150.303 173.849 149.154 173.849 147.754 L 173.849 124.55 C 173.849 124.435 173.856 124.32 173.871 124.208 C 173.943 123.211 174.17 120.5 174.789 119.32 C 175.516 117.941 179.497 117.073 181.092 117.073 L 194.67 117.073 C 196.265 117.073 200.246 117.941 200.973 119.32 C 201.592 120.5 201.819 123.211 201.891 124.208 C 201.906 124.32 201.913 124.435 201.913 124.55 L 201.913 147.754 C 201.913 149.154 200.768 150.303 199.368 150.303 L 199.317 150.303 C 197.917 150.303 196.769 149.154 196.769 147.754 L 196.769 127.228 C 196.38 126.562 195.567 126.17 194.67 125.95 L 194.67 178.017 C 194.67 179.694 193.381 181.066 191.805 181.066 L 191.747 181.066 C 190.174 181.066 188.885 179.694 188.885 178.017 L 188.885 151.753 Z M 187.881 114.676 C 191.74 114.676 194.872 111.541 194.872 107.674 C 194.872 103.808 191.74 100.673 187.881 100.673 C 184.022 100.673 180.89 103.808 180.89 107.674 C 180.89 111.541 184.022 114.676 187.881 114.676 Z M 187.881 114.676"/>
    <path style="stroke: none; fill-rule: evenodd; fill-opacity: 1; fill: rgb(26, 167, 26);" d="M 165.307 143.452 L 165.307 175.796 C 165.307 177.74 163.504 179.327 161.301 179.327 L 161.221 179.327 C 159.018 179.327 157.215 177.74 157.215 175.796 L 157.215 145.382 L 157.039 145.382 L 157.039 175.796 C 157.039 177.74 155.235 179.327 153.032 179.327 L 152.953 179.327 C 150.75 179.327 148.946 177.74 148.946 175.796 L 148.946 138.452 C 148.342 138.783 147.578 138.981 146.754 138.981 L 146.682 138.981 C 144.709 138.981 143.093 137.847 143.093 136.458 L 143.093 113.459 C 143.093 113.312 143.111 113.168 143.147 113.024 C 143.244 111.645 143.485 109.039 144.036 107.826 C 144.598 106.591 147.103 105.709 148.946 105.374 L 148.946 105.223 L 165.307 105.223 L 165.307 105.374 C 167.15 105.709 169.659 106.591 170.217 107.826 C 170.768 109.035 171.009 111.645 171.106 113.024 C 171.142 113.164 171.16 113.312 171.16 113.459 L 171.16 136.458 C 171.16 137.847 169.548 138.981 167.575 138.981 L 167.503 138.981 C 166.675 138.981 165.912 138.783 165.307 138.452 Z M 157.129 102.664 C 160.987 102.664 164.119 99.528 164.119 95.662 C 164.119 91.796 160.987 88.661 157.129 88.661 C 153.266 88.661 150.138 91.796 150.138 95.662 C 150.138 99.528 153.266 102.664 157.129 102.664 Z M 157.129 102.664"/>
    <path style="stroke: none; fill-rule: evenodd; fill-opacity: 1; fill: rgb(236, 132, 27);" d="M 101.545 161.717 L 101.545 179.223 C 101.545 180.342 100.685 181.257 99.637 181.257 L 99.597 181.257 C 98.546 181.257 97.686 180.342 97.686 179.223 L 97.686 144.518 C 97.092 144.665 96.549 144.925 96.286 145.371 L 96.286 159.053 C 96.286 159.986 95.523 160.749 94.59 160.749 L 94.558 160.749 C 93.622 160.749 92.859 159.986 92.859 159.053 L 92.859 143.585 C 92.859 143.506 92.866 143.431 92.873 143.355 C 92.92 142.689 93.075 140.882 93.485 140.097 C 93.971 139.179 96.624 138.6 97.686 138.6 L 106.739 138.6 C 107.801 138.6 110.458 139.179 110.94 140.097 C 111.351 140.882 111.505 142.689 111.552 143.355 C 111.563 143.431 111.567 143.506 111.567 143.585 L 111.567 159.053 C 111.567 159.986 110.803 160.749 109.871 160.749 L 109.835 160.749 C 108.903 160.749 108.14 159.986 108.14 159.053 L 108.14 145.371 C 107.88 144.925 107.333 144.665 106.739 144.518 L 106.739 179.223 C 106.739 180.342 105.879 181.257 104.828 181.257 L 104.792 181.257 C 103.741 181.257 102.88 180.342 102.88 179.223 L 102.88 161.717 Z M 102.215 137.001 C 104.785 137.001 106.873 134.914 106.873 132.336 C 106.873 129.759 104.785 127.667 102.215 127.667 C 99.641 127.667 97.553 129.759 97.553 132.336 C 97.553 134.914 99.641 137.001 102.215 137.001 Z M 102.215 137.001"/>
    <path style=" stroke:none;fill-rule:evenodd;fill:rgb(56.054688%,19.213867%,46.263123%);fill-opacity:1;" d="M 252.158 113.049 C 256.762 113.049 260.495 109.467 260.495 105.047 C 260.495 100.63 256.762 97.048 252.158 97.048 C 247.554 97.048 243.821 100.63 243.821 105.047 C 243.821 109.467 247.554 113.049 252.158 113.049 Z M 263.008 117.757 L 269.689 136.588 C 269.689 136.588 272.586 142.246 272.658 143.265 C 272.73 144.28 275.992 160.385 276.064 161.548 C 276.136 162.707 277.731 174.028 278.018 175.044 C 278.31 176.059 279.034 180.846 279.034 180.846 L 267.662 181.138 C 267.662 181.138 267.01 179.032 267.37 178.38 C 267.734 177.729 271.211 176.566 271.863 176.566 C 272.514 176.566 272.802 176.35 272.802 176.35 L 269.325 156.397 L 268.386 152.477 C 268.386 152.477 266.647 151.825 265.848 153.06 C 265.052 154.291 260.056 161.764 259.764 162.2 C 259.476 162.635 259.476 180.846 259.476 180.846 L 248.245 180.483 C 248.245 180.483 247.813 176.494 250.275 175.987 C 252.738 175.479 254.404 175.551 254.404 175.551 L 254.113 159.226 C 254.113 159.226 260.974 149.975 262.298 149.212 C 263.627 148.452 264.617 145.875 264.617 145.875 C 264.617 145.875 262.331 138.909 261.715 137.387 C 261.1 135.864 259.289 132.963 259.289 132.963 L 251.355 142.829 C 251.355 142.829 253.274 144.352 253.493 146.13 C 253.709 147.909 253.457 149.795 253.31 150.447 C 253.166 151.098 252.007 151.609 251.427 151.426 C 250.848 151.246 250.956 149.759 250.992 149.248 C 251.028 148.74 251.139 146.674 250.088 146.53 C 249.037 146.382 249.217 146.094 248.673 146.53 C 248.13 146.966 248.241 147.873 247.55 148.089 C 246.863 148.305 245.38 148.632 245.196 147.981 C 245.016 147.326 244.872 146.346 244.872 146.346 C 244.872 146.346 243.349 146.418 242.953 147.218 C 242.554 148.017 234.876 181.937 234.876 181.937 C 234.876 181.937 233.173 183.388 232.338 182.553 C 231.506 181.717 232.194 180.159 232.194 180.159 L 239.113 149.395 C 239.113 149.395 240.38 142.937 243.785 142.322 C 247.19 141.703 247.95 141.703 247.95 141.703 L 257.374 127.808 C 257.374 127.808 254.404 119.903 254.188 118.96 C 253.994 118.124 253.803 111.58 259.937 113.614 C 261.492 114.129 262.507 116.346 263.008 117.757 Z M 263.008 117.757"/>
    <path style="stroke: none; fill-rule: evenodd; fill-opacity: 1; fill: rgb(119, 119, 234);" d="M 227.46 101.256 C 231.621 101.256 234.994 97.941 234.994 93.855 C 234.994 89.769 231.621 86.454 227.46 86.454 C 223.302 86.454 219.926 89.769 219.926 93.855 C 219.926 97.941 223.302 101.256 227.46 101.256 Z M 227.583 150.184 C 227.694 150.576 227.752 150.986 227.752 151.408 L 227.752 176.185 C 227.752 178.708 225.686 180.774 223.162 180.774 L 223.068 180.774 C 220.545 180.774 218.479 178.708 218.479 176.185 L 218.479 151.408 C 218.479 151.084 218.511 150.767 218.576 150.461 C 212.521 150.583 207.143 150.511 207.467 149.867 C 208.191 148.416 208.338 146.094 208.338 140.724 C 208.338 135.356 206.02 136.228 205.441 128.679 C 204.861 121.134 216.161 117.361 215.437 115.331 C 214.71 113.297 217.176 104.737 225.29 104.445 C 233.4 104.157 233.983 110.831 234.127 112.43 C 234.271 114.024 234.271 125.922 234.85 134.341 C 235.43 142.757 234.415 149.14 234.706 149.867 C 234.706 149.867 231.65 150.025 227.583 150.184 Z M 226.337 105.871 L 226.413 105.871 C 228.756 105.871 230.675 107.79 230.675 110.137 L 230.675 131.987 C 230.675 134.334 228.756 136.253 226.413 136.253 L 226.337 136.253 C 223.994 136.253 222.075 134.334 222.075 131.987 L 222.075 110.137 C 222.075 107.79 223.994 105.871 226.337 105.871 Z M 226.337 106.479 L 226.413 106.479 C 228.425 106.479 230.07 108.124 230.07 110.137 L 230.07 131.987 C 230.07 133.999 228.425 135.644 226.413 135.644 L 226.337 135.644 C 224.325 135.644 222.68 133.999 222.68 131.987 L 222.68 110.137 C 222.68 108.124 224.325 106.479 226.337 106.479 Z M 226.337 106.479"/>
    <path style="stroke: none; fill-rule: evenodd; fill-opacity: 1; fill: rgb(221, 101, 21);" d="M 133.867 162.383 L 133.867 178.344 C 133.867 180 132.51 181.354 130.854 181.354 L 130.793 181.354 C 129.137 181.354 127.78 180 127.78 178.344 C 127.78 180 126.426 181.354 124.77 181.354 L 124.709 181.354 C 123.05 181.354 121.696 180 121.696 178.344 L 121.696 162.383 L 113.438 162.383 L 121.657 133.107 C 117.38 130.461 109.918 124.957 109.076 122.563 C 108.888 122.387 108.741 122.246 108.651 122.149 C 107.564 120.99 106.045 119.392 108.143 116.418 C 110.246 113.445 114.59 116.49 115.534 116.854 C 116.473 117.217 116.549 117.145 117.344 114.968 C 118.14 112.79 122.269 113.445 126.254 113.297 C 130.238 113.153 137.481 113.153 139.004 114.316 C 140.527 115.475 139.947 118.74 139.947 122.441 C 139.947 126.141 137.989 128.171 135.454 130.277 C 132.96 132.347 133.838 132.451 133.867 132.451 L 142.269 162.383 Z M 123.543 133.189 C 126.261 133.2 129.187 132.711 130.062 130.821 C 131.106 128.575 132.902 125.702 130.739 123.535 C 128.381 121.173 123.644 118.639 120.418 117.653 C 116.07 116.321 116.703 120.284 113.316 121.623 C 112.326 122.016 111.232 121.703 110.228 122.045 L 110.102 122.088 L 111.189 122.999 C 112.017 122.725 112.834 122.459 113.654 122.135 C 114.742 121.703 115.584 121.116 116.369 120.256 C 116.75 119.842 117.211 119.194 117.668 118.859 C 117.585 119.082 117.571 119.352 117.553 119.568 C 117.51 120.072 117.488 120.587 117.467 121.094 C 117.431 122.03 117.402 122.97 117.38 123.906 C 117.276 124.777 117.182 125.522 117.139 125.875 C 117.063 126.508 116.981 127.145 116.898 127.783 L 117.409 128.715 C 117.423 127.574 118.097 126.357 118.118 125.216 C 118.129 124.644 118.143 123.96 118.158 123.387 C 118.377 121.49 118.583 120.248 118.399 119.59 C 118.356 119.435 118.338 118.718 118.219 118.628 C 118.709 118.614 119.194 118.135 119.63 118.268 C 122.661 119.194 127.452 121.231 129.666 123.448 C 129.972 123.758 130.825 124.867 130.919 125.295 C 131.2 126.584 130.008 129.046 129.472 130.202 C 128.892 131.451 126.138 132.549 123.95 132.577 C 123.219 132.588 122.528 131.944 121.862 131.893 C 121.984 131.994 122.085 132.07 122.157 132.127 C 122.607 132.473 123.104 132.847 123.543 133.189 Z M 118.687 129.273 L 119.922 129.316 C 120.966 128.888 121.822 129.291 122.863 128.859 C 124.277 128.269 125.04 127.491 126.444 126.872 C 126.79 126.483 127.524 125.266 129.465 125.886 L 129.932 125.5 L 129.126 125.324 C 128.385 124.669 127.445 125.576 126.56 125.965 C 125.181 126.573 123.788 127.16 122.395 127.739 C 121.164 128.254 119.925 128.765 118.687 129.273 Z M 127.78 108.51 C 131.783 108.51 135.026 105.295 135.026 101.328 C 135.026 97.361 131.783 94.143 127.78 94.143 C 123.781 94.143 120.537 97.361 120.537 101.328 C 120.537 105.295 123.781 108.51 127.78 108.51 Z M 127.78 108.51"/>
    <g clip-path="url(#clip1)" clip-rule="nonzero" transform="matrix(0.865915, 0, 0, 0.865915, 20.763218, 28.775404)">
      <path style=" stroke:none;fill-rule:evenodd;fill:rgb(10.594177%,9.812927%,9.423828%);fill-opacity:1;" d="M 76.371094 212.902344 L 52.644531 212.902344 C 52.027344 209.894531 50.578125 207.554688 48.269531 205.859375 C 45.964844 204.164063 42.925781 203.320313 39.148438 203.320313 C 34.0625 203.320313 30.367188 205.160156 28.078125 208.832031 C 25.773438 212.5 24.621094 216.71875 24.621094 221.46875 C 24.621094 224.441406 25.097656 227.316406 26.074219 230.089844 C 27.046875 232.863281 28.675781 235.171875 30.941406 237.03125 C 33.207031 238.890625 36.148438 239.820313 39.765625 239.820313 C 43.621094 239.820313 46.621094 238.789063 48.726563 236.746094 C 50.835938 234.6875 52.125 232 52.644531 228.644531 L 76.867188 228.644531 C 76.433594 234.171875 74.582031 239.054688 71.324219 243.289063 C 68.046875 247.507813 63.710938 250.765625 58.328125 253.039063 C 52.921875 255.3125 46.898438 256.460938 40.242188 256.460938 C 35.632813 256.460938 31 255.8125 26.351563 254.535156 C 21.699219 253.238281 17.347656 251.195313 13.355469 248.390625 C 9.339844 245.597656 6.121094 241.960938 3.695313 237.460938 C 1.269531 232.976563 0.0585938 227.714844 0.0585938 221.667969 C 0.0585938 216.9375 1.011719 212.417969 2.941406 208.132813 C 4.867188 203.851563 7.589844 200.113281 11.109375 196.90625 C 14.625 193.703125 18.839844 191.195313 23.726563 189.386719 C 28.617188 187.574219 33.960938 186.679688 39.765625 186.679688 C 46.582031 186.679688 52.34375 187.640625 57.054688 189.566406 C 61.765625 191.476563 65.441406 193.851563 68.085938 196.675781 C 70.726563 199.5 72.675781 202.320313 73.925781 205.144531 C 75.160156 207.96875 75.972656 210.558594 76.371094 212.902344 Z M 86.03125 254.75 L 86.03125 188.289063 L 126.59375 188.289063 C 135.097656 188.289063 141.578125 189.351563 146.027344 191.476563 C 149.425781 193.105469 152.148438 195.347656 154.175781 198.203125 C 156.222656 201.078125 157.238281 204.097656 157.238281 207.320313 C 157.238281 210.992188 156.222656 214.34375 154.214844 217.402344 C 152.1875 220.457031 149.269531 222.683594 145.410156 224.058594 C 152.148438 226.019531 156.003906 231.5 157 240.5 L 157.8125 247.574219 C 158.03125 251.179688 158.707031 253.570313 159.859375 254.75 L 135.792969 254.75 C 134.957031 253.039063 134.300781 249.71875 133.867188 244.785156 C 133.507813 241.5625 132.992188 239.054688 132.316406 237.246094 C 131.640625 235.4375 130.367188 234.007813 128.519531 232.945313 C 126.691406 231.882813 124.007813 231.351563 120.492188 231.351563 L 109.878906 231.351563 L 109.878906 254.75 Z M 109.878906 203.734375 L 109.878906 217.285156 L 123.492188 217.285156 C 130.328125 217.285156 133.746094 214.859375 133.746094 210.011719 C 133.746094 205.824219 129.890625 203.734375 122.179688 203.734375 Z M 216.5 188.289063 L 245.832031 254.75 L 221.03125 254.75 L 217.214844 245.382813 L 191.578125 245.382813 L 187.761719 254.75 L 163.078125 254.75 L 192.414063 188.289063 Z M 212.207031 231.117188 L 204.59375 208.632813 L 196.226563 231.117188 Z M 314.015625 208.515625 L 291.125 208.515625 C 291.0625 206.125 290.148438 204.332031 288.421875 203.152344 C 286.691406 201.957031 284.367188 201.359375 281.445313 201.359375 C 275.898438 201.359375 273.117188 203.054688 273.117188 206.425781 C 273.117188 207.652344 273.875 208.617188 275.382813 209.3125 C 276.894531 210.011719 279.675781 210.773438 283.710938 211.605469 C 287.765625 212.453125 289.871094 212.882813 290.03125 212.917969 C 295.992188 214.3125 300.800781 215.722656 304.476563 217.152344 C 308.15625 218.5625 311.195313 220.6875 313.601563 223.496094 C 316.003906 226.300781 317.21875 230.003906 317.21875 234.621094 C 317.21875 239.539063 315.527344 243.621094 312.128906 246.859375 C 308.730469 250.101563 304.320313 252.472656 298.914063 253.984375 C 293.527344 255.480469 287.785156 256.226563 281.703125 256.226563 C 275.421875 256.226563 269.621094 255.363281 264.292969 253.636719 C 258.988281 251.910156 254.714844 249.253906 251.476563 245.664063 C 248.238281 242.0625 246.585938 237.628906 246.507813 232.3125 L 270.972656 232.3125 C 271.191406 235.269531 272.382813 237.496094 274.507813 238.972656 C 276.65625 240.449219 279.515625 241.199219 283.132813 241.199219 C 286.234375 241.199219 288.699219 240.832031 290.527344 240.117188 C 292.355469 239.386719 293.269531 237.960938 293.269531 235.816406 C 293.269531 234.722656 292.652344 233.742188 291.421875 232.878906 C 290.1875 232.015625 288.71875 231.300781 287.007813 230.71875 C 285.300781 230.15625 283.511719 229.65625 281.664063 229.226563 C 279.816406 228.808594 278.34375 228.476563 277.292969 228.230469 C 271.945313 226.882813 268.011719 225.835938 265.488281 225.089844 C 262.964844 224.359375 260.4375 223.246094 257.875 221.785156 C 255.332031 220.308594 253.324219 218.414063 251.832031 216.105469 C 250.363281 213.796875 249.628906 210.90625 249.628906 207.421875 C 249.628906 202.4375 251.316406 198.417969 254.695313 195.347656 C 258.074219 192.292969 262.246094 190.117188 267.214844 188.835938 C 272.183594 187.558594 277.132813 186.910156 282.0625 186.910156 C 286.453125 186.910156 290.546875 187.308594 294.304688 188.105469 C 298.058594 188.921875 301.398438 190.183594 304.359375 191.910156 C 307.300781 193.636719 309.625 195.878906 311.335938 198.652344 C 313.042969 201.410156 313.9375 204.695313 314.015625 208.515625 Z M 314.015625 208.515625 "/>
    </g>
    <path style=" stroke:none;fill-rule:evenodd;fill:rgb(10.594177%,9.812927%,9.423828%);fill-opacity:1;" d="M 19.601 98.262 L 155.703 32.544 C 156.6 31.957 157.676 31.644 158.77 31.655 C 159.861 31.644 160.937 31.957 161.833 32.544 L 297.94 98.262 C 300.495 99.495 301.511 102.466 300.189 104.86 L 300.142 104.949 C 298.822 107.343 295.65 108.29 293.091 107.056 L 158.77 42.199 L 24.445 107.056 C 21.886 108.29 18.715 107.343 17.397 104.949 L 17.347 104.86 C 16.03 102.466 17.041 99.495 19.601 98.262 Z M 19.601 98.262"/>
    <path style="stroke: none; fill-rule: evenodd; fill: rgb(217, 218, 219); fill-opacity: 1;" d="M 14.101 323.639 L 301.937 323.639 L 301.937 261.483 L 14.101 261.483 Z M 14.101 323.639"/>
    <path style=" stroke:none;fill-rule:evenodd;fill:rgb(10.594177%,9.812927%,9.423828%);fill-opacity:1;" d="M 45.002 279.783 L 40.992 279.783 C 40.886 279.051 40.641 278.48 40.254 278.068 C 39.865 277.656 39.351 277.451 38.711 277.451 C 37.854 277.451 37.227 277.897 36.842 278.793 C 36.451 279.685 36.257 280.713 36.257 281.87 C 36.257 282.592 36.338 283.293 36.502 283.967 C 36.669 284.644 36.941 285.206 37.326 285.659 C 37.707 286.112 38.204 286.336 38.817 286.336 C 39.467 286.336 39.974 286.088 40.331 285.591 C 40.686 285.087 40.904 284.433 40.992 283.617 L 45.084 283.617 C 45.012 284.961 44.699 286.153 44.147 287.184 C 43.593 288.208 42.861 289.001 41.952 289.556 C 41.04 290.108 40.022 290.387 38.895 290.387 C 38.119 290.387 37.336 290.231 36.55 289.921 C 35.763 289.604 35.028 289.107 34.354 288.423 C 33.677 287.746 33.132 286.857 32.724 285.765 C 32.311 284.672 32.107 283.388 32.107 281.917 C 32.107 280.767 32.267 279.665 32.594 278.622 C 32.921 277.581 33.381 276.669 33.973 275.89 C 34.568 275.11 35.28 274.501 36.107 274.058 C 36.931 273.619 37.836 273.397 38.817 273.397 C 39.967 273.397 40.941 273.633 41.738 274.102 C 42.534 274.569 43.154 275.147 43.599 275.831 C 44.049 276.519 44.376 277.206 44.586 277.894 C 44.794 278.582 44.934 279.212 45.002 279.783 Z M 57.754 273.792 L 57.754 277.649 L 50.585 277.649 L 50.585 279.831 L 57.09 279.831 L 57.09 283.422 L 50.585 283.422 L 50.585 285.969 L 57.934 285.969 L 57.934 289.972 L 46.615 289.972 L 46.615 273.792 Z M 71.938 273.792 L 71.938 289.972 L 68.01 289.972 L 63.779 281.142 L 63.779 289.972 L 59.813 289.972 L 59.813 273.792 L 63.885 273.792 L 67.969 282.428 L 67.969 273.792 Z M 85.46 273.792 L 85.46 277.993 L 81.715 277.993 L 81.715 289.972 L 77.603 289.972 L 77.603 277.993 L 73.842 277.993 L 73.842 273.792 Z M 87.349 289.972 L 87.349 273.792 L 94.201 273.792 C 95.637 273.792 96.734 274.051 97.486 274.569 C 98.058 274.963 98.517 275.508 98.861 276.206 C 99.208 276.904 99.378 277.639 99.378 278.426 C 99.378 279.317 99.208 280.134 98.868 280.88 C 98.524 281.622 98.03 282.163 97.38 282.5 C 98.517 282.976 99.171 284.311 99.337 286.503 L 99.474 288.226 C 99.512 289.104 99.627 289.686 99.821 289.972 L 95.757 289.972 C 95.614 289.556 95.505 288.746 95.43 287.545 C 95.369 286.762 95.28 286.153 95.168 285.71 C 95.052 285.271 94.837 284.924 94.528 284.665 C 94.218 284.406 93.765 284.274 93.169 284.274 L 91.376 284.274 L 91.376 289.972 Z M 91.376 277.551 L 91.376 280.849 L 93.677 280.849 C 94.83 280.849 95.41 280.26 95.41 279.079 C 95.41 278.061 94.759 277.551 93.455 277.551 Z M 107.977 273.397 C 108.989 273.397 109.907 273.608 110.738 274.034 C 111.562 274.453 112.27 275.052 112.859 275.821 C 113.448 276.594 113.893 277.496 114.207 278.534 C 114.513 279.572 114.67 280.692 114.67 281.894 C 114.67 283.137 114.509 284.27 114.196 285.312 C 113.883 286.347 113.427 287.242 112.825 288.004 C 112.229 288.763 111.504 289.353 110.653 289.764 C 109.805 290.183 108.866 290.387 107.837 290.387 C 106.837 290.387 105.88 290.16 104.968 289.692 C 104.059 289.23 103.289 288.553 102.657 287.667 C 102.116 286.894 101.71 286.01 101.445 285.015 C 101.183 284.022 101.046 282.99 101.046 281.917 C 101.046 280.655 101.207 279.504 101.53 278.463 C 101.85 277.417 102.316 276.515 102.926 275.756 C 103.535 275.001 104.27 274.419 105.128 274.01 C 105.986 273.602 106.935 273.397 107.977 273.397 Z M 107.939 277.451 C 106.98 277.451 106.282 277.887 105.85 278.756 C 105.414 279.63 105.196 280.689 105.196 281.942 C 105.196 283.171 105.414 284.212 105.857 285.06 C 106.292 285.914 106.987 286.336 107.939 286.336 C 108.573 286.336 109.077 286.119 109.468 285.679 C 109.853 285.237 110.125 284.678 110.285 284.005 C 110.442 283.334 110.52 282.612 110.52 281.846 C 110.52 280.444 110.298 279.361 109.853 278.619 C 109.396 277.84 108.76 277.451 107.939 277.451 Z M 122.625 273.792 L 128.633 273.792 C 130.614 273.792 132.187 274.422 133.344 275.678 C 134.032 276.41 134.55 277.322 134.9 278.412 C 135.243 279.504 135.421 280.642 135.421 281.822 C 135.421 284.526 134.781 286.605 133.504 288.052 C 133.065 288.549 132.585 288.94 132.057 289.223 C 131.53 289.512 130.986 289.706 130.416 289.812 C 129.848 289.921 129.229 289.972 128.552 289.972 L 122.625 289.972 Z M 126.655 277.819 L 126.655 285.969 L 128.282 285.969 C 129.215 285.969 129.93 285.662 130.423 285.053 C 130.986 284.304 131.268 283.218 131.268 281.802 C 131.268 281.121 131.159 280.474 130.934 279.865 C 130.709 279.253 130.382 278.779 129.957 278.446 C 129.443 278.027 128.759 277.819 127.905 277.819 Z M 148.264 273.792 L 148.264 277.649 L 141.099 277.649 L 141.099 279.831 L 147.6 279.831 L 147.6 283.422 L 141.099 283.422 L 141.099 285.969 L 148.448 285.969 L 148.448 289.972 L 137.13 289.972 L 137.13 273.792 Z M 156.588 289.972 L 156.588 273.792 L 163.44 273.792 C 164.876 273.792 165.972 274.051 166.722 274.569 C 167.297 274.963 167.756 275.508 168.1 276.206 C 168.444 276.904 168.617 277.639 168.617 278.426 C 168.617 279.317 168.444 280.134 168.106 280.88 C 167.763 281.622 167.269 282.163 166.619 282.5 C 167.756 282.976 168.41 284.311 168.576 286.503 L 168.713 288.226 C 168.75 289.104 168.865 289.686 169.06 289.972 L 164.992 289.972 C 164.852 289.556 164.743 288.746 164.668 287.545 C 164.607 286.762 164.519 286.153 164.406 285.71 C 164.29 285.271 164.076 284.924 163.763 284.665 C 163.456 284.406 163.004 284.274 162.408 284.274 L 160.614 284.274 L 160.614 289.972 Z M 160.614 277.551 L 160.614 280.849 L 162.915 280.849 C 164.07 280.849 164.648 280.26 164.648 279.079 C 164.648 278.061 163.998 277.551 162.694 277.551 Z M 181.988 273.792 L 181.988 277.649 L 174.822 277.649 L 174.822 279.831 L 181.324 279.831 L 181.324 283.422 L 174.822 283.422 L 174.822 285.969 L 182.172 285.969 L 182.172 289.972 L 170.854 289.972 L 170.854 273.792 Z M 194.444 273.792 L 194.444 277.819 L 188.14 277.819 L 188.14 280.413 L 193.579 280.413 L 193.579 284.151 L 188.14 284.151 L 188.14 289.972 L 184.051 289.972 L 184.051 273.792 Z M 207.056 273.792 L 207.056 277.649 L 199.887 277.649 L 199.887 279.831 L 206.389 279.831 L 206.389 283.422 L 199.887 283.422 L 199.887 285.969 L 207.237 285.969 L 207.237 289.972 L 195.917 289.972 L 195.917 273.792 Z M 209.129 289.972 L 209.129 273.792 L 215.981 273.792 C 217.421 273.792 218.514 274.051 219.266 274.569 C 219.842 274.963 220.301 275.508 220.642 276.206 C 220.989 276.904 221.159 277.639 221.159 278.426 C 221.159 279.317 220.989 280.134 220.648 280.88 C 220.308 281.622 219.814 282.163 219.161 282.5 C 220.301 282.976 220.951 284.311 221.121 286.503 L 221.258 288.226 C 221.296 289.104 221.407 289.686 221.605 289.972 L 217.537 289.972 C 217.398 289.556 217.285 288.746 217.21 287.545 C 217.153 286.762 217.064 286.153 216.948 285.71 C 216.836 285.271 216.621 284.924 216.308 284.665 C 215.998 284.406 215.546 284.274 214.953 284.274 L 213.16 284.274 L 213.16 289.972 Z M 213.16 277.551 L 213.16 280.849 L 215.457 280.849 C 216.614 280.849 217.194 280.26 217.194 279.079 C 217.194 278.061 216.54 277.551 215.236 277.551 Z M 234.534 273.792 L 234.534 277.649 L 227.364 277.649 L 227.364 279.831 L 233.87 279.831 L 233.87 283.422 L 227.364 283.422 L 227.364 285.969 L 234.714 285.969 L 234.714 289.972 L 223.396 289.972 L 223.396 273.792 Z M 232.352 272.461 L 229.751 272.461 L 228.828 270.735 L 227.946 272.461 L 225.363 272.461 L 227.398 269.013 L 230.357 269.013 Z M 248.718 273.792 L 248.718 289.972 L 244.79 289.972 L 240.562 281.142 L 240.562 289.972 L 236.593 289.972 L 236.593 273.792 L 240.664 273.792 L 244.753 282.428 L 244.753 273.792 Z M 263.349 279.783 L 259.339 279.783 C 259.237 279.051 258.991 278.48 258.6 278.068 C 258.212 277.656 257.698 277.451 257.062 277.451 C 256.2 277.451 255.577 277.897 255.189 278.793 C 254.802 279.685 254.607 280.713 254.607 281.87 C 254.607 282.592 254.686 283.293 254.852 283.967 C 255.016 284.644 255.291 285.206 255.673 285.659 C 256.057 286.112 256.554 286.336 257.164 286.336 C 257.818 286.336 258.325 286.088 258.679 285.591 C 259.036 285.087 259.254 284.433 259.339 283.617 L 263.434 283.617 C 263.359 284.961 263.046 286.153 262.498 287.184 C 261.943 288.208 261.211 289.001 260.299 289.556 C 259.386 290.108 258.369 290.387 257.245 290.387 C 256.466 290.387 255.683 290.231 254.897 289.921 C 254.114 289.604 253.379 289.107 252.701 288.423 C 252.023 287.746 251.479 286.857 251.071 285.765 C 250.662 284.672 250.454 283.388 250.454 281.917 C 250.454 280.767 250.618 279.665 250.941 278.622 C 251.268 277.581 251.727 276.669 252.323 275.89 C 252.916 275.11 253.627 274.501 254.454 274.058 C 255.282 273.619 256.184 273.397 257.164 273.397 C 258.318 273.397 259.291 273.633 260.084 274.102 C 260.881 274.569 261.504 275.147 261.95 275.831 C 262.396 276.519 262.726 277.206 262.937 277.894 C 263.145 278.582 263.281 279.212 263.349 279.783 Z M 269.075 289.972 L 264.986 289.972 L 264.986 273.792 L 269.075 273.792 Z M 279.123 273.792 L 284.079 289.972 L 279.889 289.972 L 279.246 287.691 L 274.913 287.691 L 274.27 289.972 L 270.099 289.972 L 275.056 273.792 Z M 278.398 284.219 L 277.111 278.745 L 275.699 284.219 Z M 36.083 296.409 L 42.092 296.409 C 44.072 296.409 45.642 297.039 46.799 298.298 C 47.49 299.03 48.008 299.939 48.355 301.028 C 48.702 302.121 48.876 303.258 48.876 304.439 C 48.876 307.142 48.24 309.222 46.963 310.669 C 46.524 311.166 46.044 311.557 45.516 311.843 C 44.988 312.129 44.44 312.323 43.872 312.428 C 43.306 312.537 42.684 312.589 42.01 312.589 L 36.083 312.589 Z M 40.113 300.436 L 40.113 308.585 L 41.741 308.585 C 42.67 308.585 43.385 308.279 43.879 307.669 C 44.444 306.921 44.726 305.838 44.726 304.419 C 44.726 303.738 44.614 303.091 44.39 302.482 C 44.165 301.873 43.838 301.399 43.413 301.062 C 42.899 300.647 42.214 300.436 41.36 300.436 Z M 57.556 296.409 L 62.513 312.589 L 58.322 312.589 L 57.676 310.308 L 53.345 310.308 L 52.699 312.589 L 48.529 312.589 L 53.485 296.409 Z M 56.831 306.835 L 55.544 301.362 L 54.131 306.835 Z M 77.517 296.409 L 82.474 312.589 L 78.283 312.589 L 77.637 310.308 L 73.307 310.308 L 72.66 312.589 L 68.49 312.589 L 73.446 296.409 Z M 76.792 306.835 L 75.506 301.362 L 74.093 306.835 Z M 93.994 301.335 L 90.123 301.335 C 90.116 300.753 89.96 300.314 89.667 300.028 C 89.374 299.735 88.983 299.592 88.489 299.592 C 87.553 299.592 87.083 300.003 87.083 300.824 C 87.083 301.124 87.209 301.358 87.464 301.528 C 87.719 301.699 88.189 301.883 88.874 302.083 C 89.558 302.291 89.912 302.396 89.939 302.403 C 90.946 302.744 91.76 303.087 92.38 303.435 C 93.003 303.778 93.517 304.296 93.921 304.98 C 94.327 305.664 94.535 306.567 94.535 307.69 C 94.535 308.885 94.248 309.882 93.673 310.669 C 93.098 311.458 92.353 312.037 91.44 312.405 C 90.531 312.769 89.562 312.949 88.533 312.949 C 87.471 312.949 86.491 312.739 85.592 312.319 C 84.697 311.898 83.972 311.251 83.427 310.38 C 82.879 309.501 82.6 308.422 82.587 307.128 L 86.719 307.128 C 86.756 307.846 86.957 308.387 87.318 308.749 C 87.678 309.11 88.162 309.29 88.775 309.29 C 89.299 309.29 89.714 309.201 90.024 309.028 C 90.334 308.851 90.487 308.503 90.487 307.98 C 90.487 307.714 90.382 307.476 90.174 307.264 C 89.966 307.053 89.718 306.88 89.428 306.74 C 89.142 306.601 88.839 306.482 88.526 306.376 C 88.213 306.274 87.965 306.192 87.787 306.131 C 86.885 305.804 86.219 305.549 85.793 305.369 C 85.367 305.192 84.939 304.919 84.506 304.565 C 84.078 304.205 83.737 303.744 83.485 303.18 C 83.237 302.618 83.114 301.917 83.114 301.066 C 83.114 299.854 83.4 298.874 83.969 298.128 C 84.54 297.383 85.244 296.851 86.085 296.542 C 86.923 296.232 87.76 296.072 88.594 296.072 C 89.337 296.072 90.028 296.171 90.66 296.365 C 91.297 296.562 91.859 296.869 92.36 297.291 C 92.856 297.71 93.251 298.257 93.541 298.931 C 93.826 299.602 93.98 300.402 93.994 301.335 Z M 106.725 301.335 L 102.857 301.335 C 102.848 300.753 102.691 300.314 102.401 300.028 C 102.109 299.735 101.714 299.592 101.22 299.592 C 100.284 299.592 99.814 300.003 99.814 300.824 C 99.814 301.124 99.944 301.358 100.199 301.528 C 100.455 301.699 100.924 301.883 101.605 302.083 C 102.289 302.291 102.646 302.396 102.673 302.403 C 103.678 302.744 104.491 303.087 105.114 303.435 C 105.734 303.778 106.248 304.296 106.653 304.98 C 107.062 305.664 107.266 306.567 107.266 307.69 C 107.266 308.885 106.98 309.882 106.405 310.669 C 105.832 311.458 105.087 312.037 104.171 312.405 C 103.262 312.769 102.292 312.949 101.264 312.949 C 100.205 312.949 99.225 312.739 98.323 312.319 C 97.428 311.898 96.707 311.251 96.158 310.38 C 95.61 309.501 95.331 308.422 95.317 307.128 L 99.453 307.128 C 99.487 307.846 99.692 308.387 100.049 308.749 C 100.414 309.11 100.896 309.29 101.506 309.29 C 102.03 309.29 102.446 309.201 102.755 309.028 C 103.065 308.851 103.218 308.503 103.218 307.98 C 103.218 307.714 103.116 307.476 102.909 307.264 C 102.698 307.053 102.453 306.88 102.163 306.74 C 101.873 306.601 101.571 306.482 101.257 306.376 C 100.948 306.274 100.699 306.192 100.519 306.131 C 99.617 305.804 98.953 305.549 98.524 305.369 C 98.098 305.192 97.673 304.919 97.241 304.565 C 96.808 304.205 96.471 303.744 96.219 303.18 C 95.971 302.618 95.846 301.917 95.846 301.066 C 95.846 299.854 96.131 298.874 96.703 298.128 C 97.271 297.383 97.98 296.851 98.817 296.542 C 99.658 296.232 100.492 296.072 101.326 296.072 C 102.068 296.072 102.759 296.171 103.396 296.365 C 104.028 296.562 104.594 296.869 105.094 297.291 C 105.591 297.71 105.982 298.257 106.271 298.931 C 106.561 299.602 106.711 300.402 106.725 301.335 Z M 113.029 312.589 L 108.944 312.589 L 108.944 296.409 L 113.029 296.409 Z M 125.838 301.335 L 121.971 301.335 C 121.961 300.753 121.807 300.314 121.516 300.028 C 121.223 299.735 120.831 299.592 120.337 299.592 C 119.401 299.592 118.932 300.003 118.932 300.824 C 118.932 301.124 119.057 301.358 119.313 301.528 C 119.568 301.699 120.038 301.883 120.718 302.083 C 121.403 302.291 121.76 302.396 121.787 302.403 C 122.795 302.744 123.609 303.087 124.228 303.435 C 124.848 303.778 125.362 304.296 125.77 304.98 C 126.175 305.664 126.38 306.567 126.38 307.69 C 126.38 308.885 126.093 309.882 125.522 310.669 C 124.946 311.458 124.201 312.037 123.289 312.405 C 122.38 312.769 121.407 312.949 120.382 312.949 C 119.32 312.949 118.339 312.739 117.441 312.319 C 116.542 311.898 115.82 311.251 115.272 310.38 C 114.727 309.501 114.448 308.422 114.435 307.128 L 118.567 307.128 C 118.605 307.846 118.805 308.387 119.166 308.749 C 119.527 309.11 120.011 309.29 120.623 309.29 C 121.144 309.29 121.563 309.201 121.873 309.028 C 122.179 308.851 122.336 308.503 122.336 307.98 C 122.336 307.714 122.23 307.476 122.023 307.264 C 121.814 307.053 121.566 306.88 121.277 306.74 C 120.987 306.601 120.684 306.482 120.375 306.376 C 120.062 306.274 119.813 306.192 119.636 306.131 C 118.73 305.804 118.067 305.549 117.641 305.369 C 117.212 305.192 116.787 304.919 116.355 304.565 C 115.925 304.205 115.585 303.744 115.334 303.18 C 115.085 302.618 114.962 301.917 114.962 301.066 C 114.962 299.854 115.245 298.874 115.816 298.128 C 116.389 297.383 117.093 296.851 117.93 296.542 C 118.771 296.232 119.609 296.072 120.439 296.072 C 121.182 296.072 121.876 296.171 122.509 296.365 C 123.143 296.562 123.707 296.869 124.207 297.291 C 124.705 297.71 125.096 298.257 125.386 298.931 C 125.675 299.602 125.828 300.402 125.838 301.335 Z M 138.471 296.409 L 138.471 300.61 L 134.723 300.61 L 134.723 312.589 L 130.614 312.589 L 130.614 300.61 L 126.85 300.61 L 126.85 296.409 Z M 151.477 296.409 L 151.477 300.266 L 144.312 300.266 L 144.312 302.448 L 150.814 302.448 L 150.814 306.039 L 144.312 306.039 L 144.312 308.585 L 151.661 308.585 L 151.661 312.589 L 140.343 312.589 L 140.343 296.409 Z M 149.295 295.078 L 146.698 295.078 L 145.772 293.352 L 144.891 295.078 L 142.311 295.078 L 144.343 291.63 L 147.301 291.63 Z M 165.666 296.409 L 165.666 312.589 L 161.738 312.589 L 157.506 303.758 L 157.506 312.589 L 153.538 312.589 L 153.538 296.409 L 157.609 296.409 L 161.697 305.045 L 161.697 296.409 Z M 180.293 302.4 L 176.286 302.4 C 176.181 301.669 175.936 301.1 175.548 300.688 C 175.156 300.273 174.642 300.069 174.006 300.069 C 173.145 300.069 172.522 300.517 172.133 301.41 C 171.745 302.305 171.552 303.33 171.552 304.487 C 171.552 305.212 171.633 305.91 171.797 306.584 C 171.96 307.262 172.236 307.823 172.617 308.276 C 173.002 308.728 173.499 308.956 174.108 308.956 C 174.761 308.956 175.269 308.705 175.622 308.207 C 175.981 307.707 176.198 307.05 176.286 306.233 L 180.378 306.233 C 180.303 307.581 179.994 308.769 179.442 309.801 C 178.887 310.828 178.156 311.619 177.247 312.173 C 176.331 312.728 175.317 313.007 174.19 313.007 C 173.41 313.007 172.627 312.847 171.844 312.537 C 171.058 312.221 170.322 311.724 169.649 311.039 C 168.968 310.362 168.427 309.477 168.015 308.381 C 167.606 307.289 167.402 306.008 167.402 304.535 C 167.402 303.384 167.562 302.285 167.888 301.239 C 168.212 300.198 168.675 299.289 169.267 298.506 C 169.863 297.726 170.574 297.117 171.402 296.674 C 172.226 296.235 173.128 296.017 174.108 296.017 C 175.262 296.017 176.236 296.253 177.032 296.719 C 177.825 297.185 178.449 297.764 178.894 298.451 C 179.34 299.139 179.67 299.826 179.881 300.51 C 180.089 301.198 180.229 301.832 180.293 302.4 Z M 186.019 312.589 L 181.934 312.589 L 181.934 296.409 L 186.019 296.409 Z M 196.067 296.409 L 201.024 312.589 L 196.833 312.589 L 196.19 310.308 L 191.857 310.308 L 191.213 312.589 L 187.044 312.589 L 191.999 296.409 Z M 195.342 306.835 L 194.056 301.362 L 192.643 306.835 Z M 218.79 301.335 L 214.923 301.335 C 214.912 300.753 214.756 300.314 214.467 300.028 C 214.174 299.735 213.779 299.592 213.285 299.592 C 212.349 299.592 211.88 300.003 211.88 300.824 C 211.88 301.124 212.009 301.358 212.26 301.528 C 212.516 301.699 212.989 301.883 213.67 302.083 C 214.355 302.291 214.712 302.396 214.735 302.403 C 215.743 302.744 216.557 303.087 217.176 303.435 C 217.799 303.778 218.313 304.296 218.719 304.98 C 219.127 305.664 219.331 306.567 219.331 307.69 C 219.331 308.885 219.045 309.882 218.469 310.669 C 217.898 311.458 217.153 312.037 216.237 312.405 C 215.328 312.769 214.358 312.949 213.33 312.949 C 212.267 312.949 211.287 312.739 210.389 312.319 C 209.494 311.898 208.771 311.251 208.224 310.38 C 207.676 309.501 207.396 308.422 207.383 307.128 L 211.515 307.128 C 211.553 307.846 211.757 308.387 212.114 308.749 C 212.478 309.11 212.962 309.29 213.571 309.29 C 214.096 309.29 214.511 309.201 214.821 309.028 C 215.13 308.851 215.283 308.503 215.283 307.98 C 215.283 307.714 215.182 307.476 214.971 307.264 C 214.762 307.053 214.514 306.88 214.228 306.74 C 213.939 306.601 213.636 306.482 213.323 306.376 C 213.01 306.274 212.762 306.192 212.584 306.131 C 211.682 305.804 211.019 305.549 210.589 305.369 C 210.164 305.192 209.738 304.919 209.303 304.565 C 208.874 304.205 208.537 303.744 208.285 303.18 C 208.037 302.618 207.91 301.917 207.91 301.066 C 207.91 299.854 208.196 298.874 208.769 298.128 C 209.337 297.383 210.044 296.851 210.882 296.542 C 211.723 296.232 212.557 296.072 213.391 296.072 C 214.133 296.072 214.824 296.171 215.457 296.365 C 216.094 296.562 216.659 296.869 217.159 297.291 C 217.656 297.71 218.048 298.257 218.337 298.931 C 218.626 299.602 218.776 300.402 218.79 301.335 Z M 227.348 296.017 C 228.359 296.017 229.278 296.225 230.108 296.651 C 230.935 297.073 231.644 297.669 232.229 298.438 C 232.818 299.21 233.264 300.112 233.577 301.151 C 233.887 302.189 234.04 303.309 234.04 304.51 C 234.04 305.753 233.884 306.89 233.567 307.928 C 233.253 308.963 232.798 309.862 232.198 310.621 C 231.599 311.38 230.874 311.973 230.023 312.384 C 229.176 312.8 228.239 313.007 227.208 313.007 C 226.207 313.007 225.255 312.776 224.339 312.309 C 223.43 311.846 222.66 311.169 222.027 310.284 C 221.486 309.512 221.084 308.626 220.819 307.632 C 220.553 306.638 220.417 305.607 220.417 304.535 C 220.417 303.275 220.58 302.121 220.9 301.08 C 221.221 300.035 221.687 299.132 222.299 298.373 C 222.905 297.617 223.641 297.035 224.498 296.626 C 225.356 296.219 226.306 296.017 227.348 296.017 Z M 227.31 300.069 C 226.35 300.069 225.653 300.504 225.22 301.372 C 224.787 302.247 224.57 303.305 224.57 304.558 C 224.57 305.787 224.787 306.828 225.227 307.676 C 225.662 308.531 226.357 308.956 227.31 308.956 C 227.943 308.956 228.45 308.735 228.839 308.296 C 229.227 307.853 229.496 307.296 229.655 306.621 C 229.812 305.951 229.891 305.232 229.891 304.463 C 229.891 303.06 229.669 301.981 229.227 301.236 C 228.767 300.456 228.13 300.069 227.31 300.069 Z M 248.098 302.4 L 244.089 302.4 C 243.987 301.669 243.741 301.1 243.35 300.688 C 242.962 300.273 242.448 300.069 241.812 300.069 C 240.95 300.069 240.327 300.517 239.939 301.41 C 239.551 302.305 239.357 303.33 239.357 304.487 C 239.357 305.212 239.435 305.91 239.602 306.584 C 239.766 307.262 240.041 307.823 240.423 308.276 C 240.807 308.728 241.304 308.956 241.914 308.956 C 242.564 308.956 243.071 308.705 243.428 308.207 C 243.786 307.707 244.004 307.05 244.089 306.233 L 248.184 306.233 C 248.109 307.581 247.796 308.769 247.244 309.801 C 246.693 310.828 245.961 311.619 245.048 312.173 C 244.136 312.728 243.119 313.007 241.995 313.007 C 241.216 313.007 240.432 312.847 239.646 312.537 C 238.86 312.221 238.128 311.724 237.451 311.039 C 236.773 310.362 236.229 309.477 235.821 308.381 C 235.409 307.289 235.204 306.008 235.204 304.535 C 235.204 303.384 235.368 302.285 235.691 301.239 C 236.018 300.198 236.477 299.289 237.073 298.506 C 237.666 297.726 238.377 297.117 239.204 296.674 C 240.032 296.235 240.933 296.017 241.914 296.017 C 243.064 296.017 244.038 296.253 244.834 296.719 C 245.631 297.185 246.25 297.764 246.7 298.451 C 247.146 299.139 247.476 299.826 247.687 300.51 C 247.895 301.198 248.03 301.832 248.098 302.4 Z M 253.825 312.589 L 249.736 312.589 L 249.736 296.409 L 253.825 296.409 Z M 263.873 296.409 L 268.829 312.589 L 264.639 312.589 L 263.993 310.308 L 259.662 310.308 L 259.019 312.589 L 254.849 312.589 L 259.802 296.409 Z M 263.148 306.835 L 261.861 301.362 L 260.449 306.835 Z M 279.903 308.387 L 279.903 312.589 L 269.817 312.589 L 269.817 296.409 L 273.902 296.409 L 273.902 308.387 Z M 279.903 308.387"/>
  </g>
</svg>